<?xml version="1.0" encoding="UTF-8" standalone="no"?>
<svg
   xmlns:dc="http://purl.org/dc/elements/1.1/"
   xmlns:cc="http://creativecommons.org/ns#"
   xmlns:rdf="http://www.w3.org/1999/02/22-rdf-syntax-ns#"
   xmlns:svg="http://www.w3.org/2000/svg"
   xmlns="http://www.w3.org/2000/svg"
   viewBox="0 0 560 1059.5765"
   height="1059.5765"
   width="560"
   id="svg2"
   version="1.1">
  <metadata
     id="metadata8">
    <rdf:RDF>
      <cc:Work
         rdf:about="">
        <dc:format>image/svg+xml</dc:format>
        <dc:type
           rdf:resource="http://purl.org/dc/dcmitype/StillImage" />
        <dc:title></dc:title>
      </cc:Work>
    </rdf:RDF>
  </metadata>
  <defs
     id="defs6" />
  <text
     xml:space="preserve"
     style="font-style:normal;font-variant:normal;font-weight:normal;font-stretch:normal;font-size:69.33333588px;line-height:1.25;font-family:Rose;-inkscape-font-specification:Rose;letter-spacing:0px;word-spacing:0px;fill:#df3939;fill-opacity:1;stroke:none;"
     x="40.588543"
     y="109.57654"
     id="text4955"><tspan
       style="fill:#df3939;fill-opacity:1;"
       id="tspan4953"
       x="40.588543"
       y="109.57654">2</tspan></text>
  <text
     xml:space="preserve"
     style="font-style:normal;font-variant:normal;font-weight:normal;font-stretch:normal;font-size:69.33216858px;line-height:1.25;font-family:Rose;-inkscape-font-specification:Rose;letter-spacing:0px;word-spacing:0px;fill:#df3939;fill-opacity:1;stroke:none;stroke-width:0.99998319;"
     x="480.58868"
     y="109.57654"
     id="text4955-6"><tspan
       id="tspan4953-2"
       x="480.58868"
       y="109.57654"
       style="stroke-width:0.99998319;fill:#df3939;fill-opacity:1;">2</tspan></text>
  <text
     xml:space="preserve"
     style="font-style:normal;font-variant:normal;font-weight:normal;font-stretch:normal;font-size:69.33333588px;line-height:1.25;font-family:Rose;-inkscape-font-specification:Rose;letter-spacing:0px;word-spacing:0px;fill:#df3939;fill-opacity:1;stroke:none;"
     x="40.588543"
     y="-968.99841"
     id="text4955-3"
     transform="scale(1,-1)"><tspan
       style="fill:#df3939;fill-opacity:1;"
       id="tspan4953-7"
       x="40.588543"
       y="-968.99841">2</tspan></text>
  <text
     xml:space="preserve"
     style="font-style:normal;font-variant:normal;font-weight:normal;font-stretch:normal;font-size:69.33216858px;line-height:1.25;font-family:Rose;-inkscape-font-specification:Rose;letter-spacing:0px;word-spacing:0px;fill:#df3939;fill-opacity:1;stroke:none;stroke-width:0.99998319;"
     x="480.58868"
     y="-968.99841"
     id="text4955-6-2"
     transform="scale(1,-1)"><tspan
       id="tspan4953-2-7"
       x="480.58868"
       y="-968.99841"
       style="stroke-width:0.99998319;fill:#df3939;fill-opacity:1;">2</tspan></text>
  <path
     id="path4868-8"
     d="m 62.021937,159.57654 c -0.41678,-1.33109 -0.56669,-2.75636 -1.27262,-3.99233 -0.57344,-1.32296 -1.53998,-2.49548 -2.58388,-3.5123 -1.11347,-1.10185 -2.5161,-1.7938 -3.80929,-2.65019 -1.58673,-1.15594 -3.10329,-2.42483 -4.35462,-3.98087 -0.98659,-1.08434 -1.57104,-2.45322 -2.18705,-3.7719 -0.41339,-1.31388 -0.69026,-2.68093 -0.7904,-4.0695 -0.13895,-1.36394 0.34403,-2.77862 0.92094,-4.02485 0.71923,-1.35919 1.945,-2.48761 3.24782,-3.21 1.32706,-0.66786 2.8537,-0.85175 4.31557,-0.76988 1.94898,0.29604 3.76451,1.36973 4.97068,2.99992 0.7618,0.66057 1.30819,3.52458 2.2105,1.47567 0.62223,-1.36605 1.63019,-2.55571 2.93151,-3.25843 1.52885,-1.21318 3.59934,-1.21927 5.42393,-0.92989 1.68612,0.48779 3.30375,1.44224 4.34305,2.94679 1.10673,1.44017 1.63673,3.21608 1.61103,5.04333 -0.0815,1.46158 -0.36817,2.92955 -0.97608,4.26066 -0.62706,1.35321 -1.39586,2.66638 -2.36296,3.79722 -1.24461,1.53448 -2.85488,2.66872 -4.487,3.73394 -1.19447,0.88135 -2.51748,1.58887 -3.56502,2.6885 -1.09181,0.90527 -1.61888,2.23009 -2.34316,3.42435 -0.61481,1.11661 -0.75424,2.98095 -1.24295,3.79976 z"
     style="fill:#df3939;fill-opacity:1;stroke-width:0.09388597" />
  <path
     id="path4868-8-9"
     d="m 502.02194,159.57654 c -0.41678,-1.33109 -0.56669,-2.75636 -1.27262,-3.99233 -0.57344,-1.32296 -1.53998,-2.49548 -2.58388,-3.5123 -1.11347,-1.10185 -2.5161,-1.7938 -3.80929,-2.65019 -1.58673,-1.15594 -3.10329,-2.42483 -4.35462,-3.98087 -0.98659,-1.08434 -1.57104,-2.45322 -2.18705,-3.7719 -0.41339,-1.31388 -0.69026,-2.68093 -0.7904,-4.0695 -0.13895,-1.36394 0.34403,-2.77862 0.92094,-4.02485 0.71923,-1.35919 1.945,-2.48761 3.24782,-3.21 1.32706,-0.66786 2.8537,-0.85175 4.31557,-0.76988 1.94898,0.29604 3.76451,1.36973 4.97068,2.99992 0.7618,0.66057 1.30819,3.52458 2.2105,1.47567 0.62223,-1.36605 1.63019,-2.55571 2.93151,-3.25843 1.52885,-1.21318 3.59934,-1.21927 5.42393,-0.92989 1.68612,0.48779 3.30375,1.44224 4.34305,2.94679 1.10673,1.44017 1.63673,3.21608 1.61103,5.04333 -0.0815,1.46158 -0.36817,2.92955 -0.97608,4.26066 -0.62706,1.35321 -1.39586,2.66638 -2.36296,3.79722 -1.24461,1.53448 -2.85488,2.66872 -4.487,3.73394 -1.19447,0.88135 -2.51748,1.58887 -3.56502,2.6885 -1.09181,0.90527 -1.61888,2.23009 -2.34316,3.42435 -0.61481,1.11661 -0.75424,2.98095 -1.24295,3.79976 z"
     style="fill:#df3939;fill-opacity:1;stroke-width:0.09388597" />
  <path
     id="path4868-8-0"
     d="m 62.021937,923.57653 c -0.41678,1.33109 -0.56669,2.75636 -1.27262,3.99233 -0.57344,1.32296 -1.53998,2.49548 -2.58388,3.5123 -1.11347,1.10185 -2.5161,1.7938 -3.80929,2.65019 -1.58673,1.15594 -3.10329,2.42483 -4.35462,3.98087 -0.98659,1.08434 -1.57104,2.45322 -2.18705,3.7719 -0.41339,1.31388 -0.69026,2.68093 -0.7904,4.0695 -0.13895,1.36394 0.34403,2.77862 0.92094,4.02485 0.71923,1.35919 1.945,2.48761 3.24782,3.21 1.32706,0.66786 2.8537,0.85175 4.31557,0.76988 1.94898,-0.29604 3.76451,-1.36973 4.97068,-2.99992 0.7618,-0.66057 1.30819,-3.52458 2.2105,-1.47567 0.62223,1.36605 1.63019,2.55571 2.93151,3.25843 1.52885,1.21318 3.59934,1.21927 5.42393,0.92989 1.68612,-0.48779 3.30375,-1.44224 4.34305,-2.94679 1.10673,-1.44017 1.63673,-3.21608 1.61103,-5.04333 -0.0815,-1.46158 -0.36817,-2.92955 -0.97608,-4.26066 -0.62706,-1.35321 -1.39586,-2.66638 -2.36296,-3.79722 -1.24461,-1.53448 -2.85488,-2.66872 -4.487,-3.73394 -1.19447,-0.88135 -2.51748,-1.58887 -3.56502,-2.6885 -1.09181,-0.90527 -1.61888,-2.23009 -2.34316,-3.42435 -0.61481,-1.11661 -0.75424,-2.98095 -1.24295,-3.79976 z"
     style="fill:#df3939;fill-opacity:1;stroke-width:0.09388597" />
  <path
     id="path4868-8-8"
     d="m 502.02194,923.57653 c -0.41678,1.33109 -0.56669,2.75636 -1.27262,3.99233 -0.57344,1.32296 -1.53998,2.49548 -2.58388,3.5123 -1.11347,1.10185 -2.5161,1.7938 -3.80929,2.65019 -1.58673,1.15594 -3.10329,2.42483 -4.35462,3.98087 -0.98659,1.08434 -1.57104,2.45322 -2.18705,3.7719 -0.41339,1.31388 -0.69026,2.68093 -0.7904,4.0695 -0.13895,1.36394 0.34403,2.77862 0.92094,4.02485 0.71923,1.35919 1.945,2.48761 3.24782,3.21 1.32706,0.66786 2.8537,0.85175 4.31557,0.76988 1.94898,-0.29604 3.76451,-1.36973 4.97068,-2.99992 0.7618,-0.66057 1.30819,-3.52458 2.2105,-1.47567 0.62223,1.36605 1.63019,2.55571 2.93151,3.25843 1.52885,1.21318 3.59934,1.21927 5.42393,0.92989 1.68612,-0.48779 3.30375,-1.44224 4.34305,-2.94679 1.10673,-1.44017 1.63673,-3.21608 1.61103,-5.04333 -0.0815,-1.46158 -0.36817,-2.92955 -0.97608,-4.26066 -0.62706,-1.35321 -1.39586,-2.66638 -2.36296,-3.79722 -1.24461,-1.53448 -2.85488,-2.66872 -4.487,-3.73394 -1.19447,-0.88135 -2.51748,-1.58887 -3.56502,-2.6885 -1.09181,-0.90527 -1.61888,-2.23009 -2.34316,-3.42435 -0.61481,-1.11661 -0.75424,-2.98095 -1.24295,-3.79976 z"
     style="fill:#df3939;fill-opacity:1;stroke-width:0.09388597" />
  <path
     id="path4868"
     d="m 280.07312,379.57654 c -1.38928,-4.43698 -1.88897,-9.18788 -4.24206,-13.30775 -1.91146,-4.40988 -5.13328,-8.31829 -8.61294,-11.7077 -3.71157,-3.67283 -8.387,-5.97932 -12.69763,-8.83396 -5.28911,-3.85312 -10.3443,-8.08275 -14.51539,-13.26954 -3.28864,-3.61448 -5.2368,-8.17743 -7.29018,-12.57302 -1.37797,-4.3796 -2.30086,-8.93643 -2.63467,-13.56499 -0.46314,-4.54647 1.14679,-9.26207 3.06981,-13.41619 2.39743,-4.53063 6.48333,-8.29202 10.82608,-10.69999 4.42352,-2.22618 9.51232,-2.83914 14.38522,-2.56626 6.49659,0.98679 12.54837,4.56578 16.56892,9.99972 2.53935,2.20192 4.36063,11.74862 7.36834,4.9189 2.07409,-4.5535 5.43398,-8.51901 9.77171,-10.86141 5.09616,-4.04395 11.9978,-4.06424 18.07974,-3.09963 5.62043,1.62595 11.01253,4.80744 14.47684,9.82261 3.68912,4.80057 5.45578,10.72029 5.37011,16.81111 -0.27175,4.87193 -1.22722,9.76517 -3.25361,14.20218 -2.09019,4.51072 -4.65286,8.88794 -7.87653,12.65742 -4.14868,5.11494 -9.51625,8.89572 -14.95665,12.44647 -3.98159,2.93783 -8.39161,5.29622 -11.88341,8.96168 -3.63938,3.01753 -5.39625,7.43361 -7.81054,11.41447 -2.04937,3.72204 -2.51414,9.93649 -4.14316,12.66588 z"
     style="fill:#df3939;fill-opacity:1;stroke-width:0.3129532" />
  <path
     id="path4868-2"
     d="m 280.07312,679.57653 c -1.38928,4.43697 -1.88897,9.18787 -4.24207,13.30775 -1.91146,4.40987 -5.13328,8.31828 -8.61294,11.70769 -3.71157,3.67283 -8.387,5.97933 -12.69762,8.83396 -5.28911,3.85312 -10.34431,8.08275 -14.51539,13.26955 -3.28865,3.61447 -5.2368,8.17742 -7.29018,12.57301 -1.37798,4.37961 -2.30087,8.93643 -2.63467,13.56499 -0.46315,4.54647 1.14678,9.26207 3.0698,13.41619 2.39743,4.53063 6.48333,8.29202 10.82608,10.69999 4.42352,2.22618 9.51232,2.83915 14.38522,2.56627 6.4966,-0.9868 12.54838,-4.56579 16.56892,-9.99973 2.53936,-2.20191 4.36063,-11.74862 7.36834,-4.9189 2.0741,4.5535 5.43398,8.51902 9.77171,10.86142 5.09616,4.04394 11.99781,4.06424 18.07975,3.09962 5.62042,-1.62595 11.01252,-4.80744 14.47683,-9.82261 3.68913,-4.80057 5.45579,-10.72029 5.37011,-16.81111 -0.27175,-4.87193 -1.22721,-9.76517 -3.25361,-14.20218 -2.09019,-4.51072 -4.65286,-8.88794 -7.87653,-12.65741 -4.14868,-5.11495 -9.51625,-8.89573 -14.95665,-12.44648 -3.98158,-2.93783 -8.39161,-5.29621 -11.8834,-8.96167 -3.63939,-3.01754 -5.39626,-7.43362 -7.81055,-11.41448 -2.04937,-3.72204 -2.51414,-9.93649 -4.14315,-12.66587 z"
     style="fill:#df3939;fill-opacity:1;stroke-width:0.3129532" />
</svg>
