<?xml version="1.0" encoding="UTF-8" standalone="no"?>
<svg
   xmlns:dc="http://purl.org/dc/elements/1.1/"
   xmlns:cc="http://creativecommons.org/ns#"
   xmlns:rdf="http://www.w3.org/1999/02/22-rdf-syntax-ns#"
   xmlns:svg="http://www.w3.org/2000/svg"
   xmlns="http://www.w3.org/2000/svg"
   viewBox="0 0 560 1059.5765"
   height="1059.5765"
   width="560"
   id="svg2"
   version="1.1">
  <metadata
     id="metadata8">
    <rdf:RDF>
      <cc:Work
         rdf:about="">
        <dc:format>image/svg+xml</dc:format>
        <dc:type
           rdf:resource="http://purl.org/dc/dcmitype/StillImage" />
        <dc:title></dc:title>
      </cc:Work>
    </rdf:RDF>
  </metadata>
  <defs
     id="defs6" />
  <text
     xml:space="preserve"
     style="font-style:normal;font-variant:normal;font-weight:normal;font-stretch:normal;font-size:69.33333588px;line-height:1.25;font-family:Rose;-inkscape-font-specification:Rose;letter-spacing:0px;word-spacing:0px;fill:#df3939;fill-opacity:1;stroke:none;"
     x="40.588543"
     y="109.57654"
     id="text4955"><tspan
       style="fill:#df3939;fill-opacity:1;"
       id="tspan4953"
       x="40.588543"
       y="109.57654">3</tspan></text>
  <text
     xml:space="preserve"
     style="font-style:normal;font-variant:normal;font-weight:normal;font-stretch:normal;font-size:69.33216858px;line-height:1.25;font-family:Rose;-inkscape-font-specification:Rose;letter-spacing:0px;word-spacing:0px;fill:#df3939;fill-opacity:1;stroke:none;stroke-width:0.99998319;"
     x="480.58868"
     y="109.57654"
     id="text4955-6"><tspan
       id="tspan4953-2"
       x="480.58868"
       y="109.57654"
       style="stroke-width:0.99998319;fill:#df3939;fill-opacity:1;">3</tspan></text>
  <text
     xml:space="preserve"
     style="font-style:normal;font-variant:normal;font-weight:normal;font-stretch:normal;font-size:69.33333588px;line-height:1.25;font-family:Rose;-inkscape-font-specification:Rose;letter-spacing:0px;word-spacing:0px;fill:#df3939;fill-opacity:1;stroke:none;"
     x="-85.106773"
     y="-968.99841"
     id="text4955-3"
     transform="scale(-1)"><tspan
       style="fill:#df3939;fill-opacity:1;"
       id="tspan4953-7"
       x="-85.106773"
       y="-968.99841">3</tspan></text>
  <text
     xml:space="preserve"
     style="font-style:normal;font-variant:normal;font-weight:normal;font-stretch:normal;font-size:69.33216858px;line-height:1.25;font-family:Rose;-inkscape-font-specification:Rose;letter-spacing:0px;word-spacing:0px;fill:#df3939;fill-opacity:1;stroke:none;stroke-width:0.99998319;"
     x="-525.10614"
     y="-968.99841"
     id="text4955-6-2"
     transform="scale(-1)"><tspan
       id="tspan4953-2-7"
       x="-525.10614"
       y="-968.99841"
       style="stroke-width:0.99998319;fill:#df3939;fill-opacity:1;">3</tspan></text>
  <path
     id="path4868"
     d="m 280.07312,379.57654 c -1.38928,-4.43697 -1.88897,-9.18788 -4.24207,-13.30775 -1.91146,-4.40988 -5.13328,-8.31829 -8.61294,-11.70769 -3.71157,-3.67283 -8.387,-5.97933 -12.69762,-8.83397 -5.28911,-3.85311 -10.34431,-8.08274 -14.51539,-13.26954 -3.28865,-3.61448 -5.2368,-8.17742 -7.29018,-12.57301 -1.37798,-4.37961 -2.30087,-8.93643 -2.63467,-13.56499 -0.46315,-4.54647 1.14678,-9.26208 3.0698,-13.41619 2.39743,-4.53064 6.48333,-8.29202 10.82608,-10.7 4.42352,-2.22618 9.51232,-2.83914 14.38523,-2.56626 6.49659,0.9868 12.54837,4.56578 16.56892,9.99973 2.53935,2.20191 4.36063,11.74862 7.36834,4.9189 2.07409,-4.5535 5.43397,-8.51902 9.7717,-10.86142 5.09616,-4.04394 11.99781,-4.06424 18.07975,-3.09963 5.62042,1.62596 11.01252,4.80745 14.47684,9.82262 3.68912,4.80056 5.45578,10.72029 5.3701,16.81111 -0.27175,4.87192 -1.22721,9.76517 -3.25361,14.20218 -2.09019,4.51071 -4.65286,8.88794 -7.87653,12.65741 -4.14868,5.11495 -9.51625,8.89572 -14.95665,12.44648 -3.98158,2.93782 -8.39161,5.29621 -11.8834,8.96167 -3.63939,3.01754 -5.39626,7.43361 -7.81055,11.41448 -2.04937,3.72204 -2.51414,9.93649 -4.14315,12.66587 z"
     style="fill:#df3939;fill-opacity:1;stroke-width:0.3129532" />
  <path
     id="path4868-9"
     d="m 280.07312,579.57654 c -1.38928,-4.43697 -1.88897,-9.18788 -4.24207,-13.30775 -1.91146,-4.40988 -5.13328,-8.31829 -8.61294,-11.70769 -3.71157,-3.67283 -8.387,-5.97933 -12.69762,-8.83397 -5.28911,-3.85311 -10.34431,-8.08274 -14.51539,-13.26954 -3.28865,-3.61448 -5.2368,-8.17742 -7.29018,-12.57301 -1.37798,-4.37961 -2.30087,-8.93643 -2.63467,-13.56499 -0.46315,-4.54647 1.14678,-9.26208 3.0698,-13.41619 2.39743,-4.53064 6.48333,-8.29202 10.82608,-10.7 4.42352,-2.22618 9.51232,-2.83914 14.38523,-2.56626 6.49659,0.9868 12.54837,4.56578 16.56892,9.99973 2.53935,2.20191 4.36063,11.74862 7.36834,4.9189 2.07409,-4.5535 5.43397,-8.51902 9.7717,-10.86142 5.09616,-4.04394 11.99781,-4.06424 18.07975,-3.09963 5.62042,1.62596 11.01252,4.80745 14.47684,9.82262 3.68912,4.80056 5.45578,10.72029 5.3701,16.81111 -0.27175,4.87192 -1.22721,9.76517 -3.25361,14.20218 -2.09019,4.51071 -4.65286,8.88794 -7.87653,12.65741 -4.14868,5.11495 -9.51625,8.89572 -14.95665,12.44648 -3.98158,2.93782 -8.39161,5.29621 -11.8834,8.96167 -3.63939,3.01754 -5.39626,7.43361 -7.81055,11.41448 -2.04937,3.72204 -2.51414,9.93649 -4.14315,12.66587 z"
     style="fill:#df3939;fill-opacity:1;stroke-width:0.3129532" />
  <path
     id="path4868-94"
     d="m 280.07312,679.57653 c -1.38927,4.43698 -1.88897,9.18788 -4.24206,13.30775 -1.91146,4.40988 -5.13328,8.31829 -8.61294,11.7077 -3.71157,3.67283 -8.387,5.97932 -12.69763,8.83396 -5.2891,3.85312 -10.3443,8.08275 -14.51538,13.26954 -3.28865,3.61448 -5.2368,8.17743 -7.29018,12.57302 -1.37798,4.3796 -2.30087,8.93643 -2.63468,13.56499 -0.46314,4.54647 1.14679,9.26207 3.06981,13.41619 2.39743,4.53063 6.48333,8.29202 10.82608,10.69999 4.42352,2.22618 9.51232,2.83914 14.38522,2.56626 6.4966,-0.98679 12.54838,-4.56578 16.56892,-9.99972 2.53935,-2.20192 4.36063,-11.74862 7.36834,-4.9189 2.0741,4.5535 5.43398,8.51901 9.77171,10.86141 5.09616,4.04395 11.99781,4.06424 18.07975,3.09963 5.62042,-1.62595 11.01252,-4.80744 14.47683,-9.82261 3.68913,-4.80057 5.45579,-10.72029 5.37011,-16.81111 -0.27175,-4.87193 -1.22721,-9.76517 -3.25361,-14.20218 -2.09019,-4.51072 -4.65286,-8.88794 -7.87653,-12.65742 -4.14868,-5.11494 -9.51625,-8.89572 -14.95665,-12.44647 -3.98158,-2.93783 -8.39161,-5.29622 -11.8834,-8.96168 -3.63939,-3.01753 -5.39626,-7.43361 -7.81055,-11.41447 -2.04937,-3.72204 -2.51414,-9.93649 -4.14316,-12.66588 z"
     style="fill:#df3939;fill-opacity:1;stroke-width:0.3129532" />
  <path
     id="path4868-8"
     d="m 62.022006,159.57652 c -0.41681,-1.33108 -0.5667,-2.75637 -1.27264,-3.99232 -0.57343,-1.32298 -1.53997,-2.49551 -2.58388,-3.51231 -1.11345,-1.10185 -2.51611,-1.7938 -3.80927,-2.65021 -1.58672,-1.15593 -3.1033,-2.42479 -4.35462,-3.98086 -0.98661,-1.08435 -1.57104,-2.45322 -2.18706,-3.77189 -0.41341,-1.31388 -0.69026,-2.68094 -0.79042,-4.0695 -0.13908,-1.36395 0.34394,-2.77863 0.92096,-4.02485 0.71925,-1.3592 1.94498,-2.48761 3.24783,-3.20999 1.32706,-0.66788 2.85369,-0.85176 4.31557,-0.76989 1.94895,0.29593 3.76449,1.36973 4.97069,2.99992 0.7618,0.66059 1.30817,3.52456 2.21049,1.47568 0.62223,-1.36607 1.63019,-2.55572 2.93152,-3.25844 1.52882,-1.2132 3.59932,-1.21928 5.42392,-0.92988 1.68612,0.48778 3.30372,1.44223 4.34306,2.94678 1.10672,1.44015 1.63672,3.21608 1.61102,5.04333 -0.0816,1.46158 -0.36813,2.92955 -0.9761,4.26066 -0.62706,1.35322 -1.39586,2.66638 -2.36296,3.79722 -1.2446,1.53448 -2.85487,2.66872 -4.48698,3.73394 -1.19448,0.88135 -2.51751,1.58888 -3.56504,2.68849 -1.09179,0.90528 -1.61889,2.23011 -2.34316,3.42437 -0.61481,1.11659 -0.75424,2.98095 -1.24293,3.79975 z"
     style="fill:#df3939;fill-opacity:1;stroke-width:0.09388596" />
  <path
     id="path4868-8-9"
     d="m 502.02199,159.57652 c -0.41677,-1.33108 -0.5667,-2.75637 -1.2726,-3.99232 -0.57347,-1.32298 -1.54001,-2.49551 -2.58388,-3.51231 -1.11348,-1.10185 -2.5161,-1.7938 -3.80931,-2.65021 -1.58672,-1.15593 -3.10329,-2.42479 -4.35462,-3.98086 -0.98657,-1.08435 -1.57103,-2.45322 -2.18706,-3.77189 -0.41337,-1.31388 -0.69026,-2.68094 -0.79037,-4.0695 -0.13909,-1.36395 0.34393,-2.77863 0.92091,-4.02485 0.71925,-1.3592 1.94503,-2.48761 3.24783,-3.20999 1.32707,-0.66788 2.85369,-0.85176 4.31558,-0.76989 1.94899,0.29593 3.76452,1.36973 4.97068,2.99992 0.7618,0.66059 1.30817,3.52456 2.21049,1.47568 0.62223,-1.36607 1.63019,-2.55572 2.93152,-3.25844 1.52886,-1.2132 3.59932,-1.21928 5.42392,-0.92988 1.68613,0.48778 3.30376,1.44223 4.34306,2.94678 1.10672,1.44015 1.63672,3.21608 1.61102,5.04333 -0.0816,1.46158 -0.36812,2.92955 -0.97606,4.26066 -0.62706,1.35322 -1.39586,2.66638 -2.36296,3.79722 -1.24464,1.53448 -2.8549,2.66872 -4.48702,3.73394 -1.19448,0.88135 -2.51747,1.58888 -3.565,2.68849 -1.09183,0.90528 -1.61888,2.23011 -2.34316,3.42437 -0.61481,1.11659 -0.75424,2.98095 -1.24297,3.79975 z"
     style="fill:#df3939;fill-opacity:1;stroke-width:0.09388596" />
  <path
     id="path4868-8-0"
     d="m 62.022006,923.57654 c -0.41681,1.33107 -0.5667,2.75633 -1.27264,3.99231 -0.57343,1.32295 -1.53997,2.49547 -2.58388,3.51232 -1.11345,1.10184 -2.51611,1.7938 -3.80927,2.65016 -1.58672,1.15597 -3.1033,2.42483 -4.35462,3.98087 -0.98661,1.08434 -1.57104,2.45325 -2.18706,3.77193 -0.41341,1.31387 -0.69026,2.68093 -0.79042,4.06949 -0.13908,1.36392 0.34394,2.7786 0.92096,4.02486 0.71925,1.35919 1.94498,2.48761 3.24783,3.20999 1.32706,0.66784 2.85369,0.85175 4.31557,0.76989 1.94895,-0.29594 3.76449,-1.36974 4.97069,-2.99993 0.7618,-0.66058 1.30817,-3.5246 2.21049,-1.47568 0.62223,1.36604 1.63019,2.55572 2.93152,3.25845 1.52882,1.21315 3.59932,1.21924 5.42392,0.92987 1.68612,-0.48778 3.30372,-1.44223 4.34306,-2.94678 1.10672,-1.44019 1.63672,-3.21608 1.61102,-5.04333 -0.0816,-1.46158 -0.36813,-2.92955 -0.9761,-4.26066 -0.62706,-1.35322 -1.39586,-2.66638 -2.36296,-3.79721 -1.2446,-1.53449 -2.85487,-2.66873 -4.48698,-3.73395 -1.19448,-0.88135 -2.51751,-1.58887 -3.56504,-2.68849 -1.09179,-0.90527 -1.61889,-2.23011 -2.34316,-3.42437 -0.61481,-1.11662 -0.75424,-2.98095 -1.24293,-3.79974 z"
     style="fill:#df3939;fill-opacity:1;stroke-width:0.09388596" />
  <path
     id="path4868-8-8"
     d="m 502.02199,923.57654 c -0.41677,1.33107 -0.5667,2.75633 -1.2726,3.99231 -0.57347,1.32295 -1.54001,2.49547 -2.58388,3.51232 -1.11348,1.10184 -2.5161,1.7938 -3.80931,2.65016 -1.58672,1.15597 -3.10329,2.42483 -4.35462,3.98087 -0.98657,1.08434 -1.57103,2.45325 -2.18706,3.77193 -0.41337,1.31387 -0.69026,2.68093 -0.79037,4.06949 -0.13909,1.36392 0.34393,2.7786 0.92091,4.02486 0.71925,1.35919 1.94503,2.48761 3.24783,3.20999 1.32707,0.66784 2.85369,0.85175 4.31558,0.76989 1.94899,-0.29594 3.76452,-1.36974 4.97068,-2.99993 0.7618,-0.66058 1.30817,-3.5246 2.21049,-1.47568 0.62223,1.36604 1.63019,2.55572 2.93152,3.25845 1.52886,1.21315 3.59932,1.21924 5.42392,0.92987 1.68613,-0.48778 3.30376,-1.44223 4.34306,-2.94678 1.10672,-1.44019 1.63672,-3.21608 1.61102,-5.04333 -0.0816,-1.46158 -0.36812,-2.92955 -0.97606,-4.26066 -0.62706,-1.35322 -1.39586,-2.66638 -2.36296,-3.79721 -1.24464,-1.53449 -2.8549,-2.66873 -4.48702,-3.73395 -1.19448,-0.88135 -2.51747,-1.58887 -3.565,-2.68849 -1.09183,-0.90527 -1.61888,-2.23011 -2.34316,-3.42437 -0.61481,-1.11662 -0.75424,-2.98095 -1.24297,-3.79974 z"
     style="fill:#df3939;fill-opacity:1;stroke-width:0.09388596" />
</svg>
