<?xml version="1.0" encoding="UTF-8" standalone="no"?>
<svg
   xmlns:dc="http://purl.org/dc/elements/1.1/"
   xmlns:cc="http://creativecommons.org/ns#"
   xmlns:rdf="http://www.w3.org/1999/02/22-rdf-syntax-ns#"
   xmlns:svg="http://www.w3.org/2000/svg"
   xmlns="http://www.w3.org/2000/svg"
   version="1.1"
   id="svg2"
   width="560"
   height="1059.5765"
   viewBox="0 0 560 1059.5765">
  <metadata
     id="metadata8">
    <rdf:RDF>
      <cc:Work
         rdf:about="">
        <dc:format>image/svg+xml</dc:format>
        <dc:type
           rdf:resource="http://purl.org/dc/dcmitype/StillImage" />
        <dc:title></dc:title>
      </cc:Work>
    </rdf:RDF>
  </metadata>
  <defs
     id="defs6" />
  <text
     id="text4955"
     y="109.57654"
     x="40.588543"
     style="font-style:normal;font-variant:normal;font-weight:normal;font-stretch:normal;font-size:69.33333588px;line-height:1.25;font-family:Rose;-inkscape-font-specification:Rose;letter-spacing:0px;word-spacing:0px;fill:#df3939;fill-opacity:1;stroke:none;"
     xml:space="preserve"><tspan
       style="fill:#df3939;fill-opacity:1;"
       y="109.57654"
       x="40.588543"
       id="tspan4953">9</tspan></text>
  <text
     id="text4955-6"
     y="109.57654"
     x="480.58868"
     style="font-style:normal;font-variant:normal;font-weight:normal;font-stretch:normal;font-size:69.33216858px;line-height:1.25;font-family:Rose;-inkscape-font-specification:Rose;letter-spacing:0px;word-spacing:0px;fill:#df3939;fill-opacity:1;stroke:none;stroke-width:0.99998319;"
     xml:space="preserve"><tspan
       style="stroke-width:0.99998319;fill:#df3939;fill-opacity:1;"
       y="109.57654"
       x="480.58868"
       id="tspan4953-2">9</tspan></text>
  <text
     transform="scale(-1)"
     id="text4955-3"
     y="-968.99841"
     x="-83.921875"
     style="font-style:normal;font-variant:normal;font-weight:normal;font-stretch:normal;font-size:69.33333588px;line-height:1.25;font-family:Rose;-inkscape-font-specification:Rose;letter-spacing:0px;word-spacing:0px;fill:#df3939;fill-opacity:1;stroke:none;"
     xml:space="preserve"><tspan
       style="fill:#df3939;fill-opacity:1;"
       y="-968.99841"
       x="-83.921875"
       id="tspan4953-7">9</tspan></text>
  <text
     transform="scale(-1)"
     id="text4955-6-2"
     y="-968.99841"
     x="-523.92126"
     style="font-style:normal;font-variant:normal;font-weight:normal;font-stretch:normal;font-size:69.33216858px;line-height:1.25;font-family:Rose;-inkscape-font-specification:Rose;letter-spacing:0px;word-spacing:0px;fill:#df3939;fill-opacity:1;stroke:none;stroke-width:0.99998319;"
     xml:space="preserve"><tspan
       style="stroke-width:0.99998319;fill:#df3939;fill-opacity:1;"
       y="-968.99841"
       x="-523.92126"
       id="tspan4953-2-7">9</tspan></text>
  <path
     id="path4868-8"
     d="m 62.021999,159.57652 c -0.41681,-1.33107 -0.5667,-2.75637 -1.27264,-3.99231 -0.57343,-1.32299 -1.53997,-2.49551 -2.58388,-3.51232 -1.11345,-1.10184 -2.5161,-1.7938 -3.80927,-2.6502 -1.58672,-1.15593 -3.10329,-2.42479 -4.35462,-3.98086 -0.98661,-1.08435 -1.57104,-2.45322 -2.18706,-3.7719 -0.41341,-1.31387 -0.69026,-2.68093 -0.79041,-4.06949 -0.13909,-1.36396 0.34393,-2.77863 0.92095,-4.02486 0.71925,-1.35919 1.94499,-2.48761 3.24783,-3.20999 1.32707,-0.66788 2.85369,-0.85175 4.31558,-0.76989 1.94895,0.29594 3.76448,1.36974 4.97068,2.99993 0.7618,0.66058 1.30817,3.52456 2.21049,1.47568 0.62223,-1.36608 1.63019,-2.55572 2.93152,-3.25845 1.52882,-1.21319 3.59932,-1.21927 5.42392,-0.92988 1.68613,0.48779 3.30373,1.44223 4.34306,2.94679 1.10672,1.44015 1.63672,3.21607 1.61102,5.04333 -0.0816,1.46158 -0.36812,2.92954 -0.9761,4.26066 -0.62706,1.35322 -1.39585,2.66638 -2.36296,3.79721 -1.2446,1.53449 -2.85487,2.66873 -4.48698,3.73395 -1.19448,0.88135 -2.5175,1.58887 -3.56504,2.68849 -1.09179,0.90527 -1.61888,2.23011 -2.34315,3.42437 -0.61482,1.11658 -0.75425,2.98095 -1.24294,3.79974 z"
     style="fill:#df3939;fill-opacity:1;stroke-width:0.09388596" />
  <path
     id="path4868-8-9"
     d="m 502.02198,159.57652 c -0.41677,-1.33107 -0.5667,-2.75637 -1.2726,-3.99231 -0.57347,-1.32299 -1.54001,-2.49551 -2.58388,-3.51232 -1.11348,-1.10184 -2.5161,-1.7938 -3.80931,-2.6502 -1.58672,-1.15593 -3.10329,-2.42479 -4.35462,-3.98086 -0.98657,-1.08435 -1.57103,-2.45322 -2.18706,-3.7719 -0.41337,-1.31387 -0.69026,-2.68093 -0.79037,-4.06949 -0.13909,-1.36396 0.34393,-2.77863 0.92091,-4.02486 0.71925,-1.35919 1.94503,-2.48761 3.24783,-3.20999 1.32707,-0.66788 2.85369,-0.85175 4.31558,-0.76989 1.94899,0.29594 3.76452,1.36974 4.97068,2.99993 0.7618,0.66058 1.30817,3.52456 2.21049,1.47568 0.62223,-1.36608 1.63019,-2.55572 2.93152,-3.25845 1.52886,-1.21319 3.59932,-1.21927 5.42392,-0.92988 1.68613,0.48779 3.30376,1.44223 4.34306,2.94679 1.10672,1.44015 1.63672,3.21607 1.61102,5.04333 -0.0816,1.46158 -0.36812,2.92954 -0.97606,4.26066 -0.62706,1.35322 -1.39586,2.66638 -2.36296,3.79721 -1.24464,1.53449 -2.8549,2.66873 -4.48702,3.73395 -1.19448,0.88135 -2.51747,1.58887 -3.565,2.68849 -1.09183,0.90527 -1.61888,2.23011 -2.34316,3.42437 -0.61481,1.11658 -0.75424,2.98095 -1.24297,3.79974 z"
     style="fill:#df3939;fill-opacity:1;stroke-width:0.09388596" />
  <path
     id="path4868-8-0"
     d="m 62.021999,923.57658 c -0.41681,1.331 -0.5667,2.7563 -1.27264,3.9923 -0.57343,1.3229 -1.53997,2.4954 -2.58388,3.5123 -1.11345,1.1018 -2.5161,1.7938 -3.80927,2.6502 -1.58672,1.1559 -3.10329,2.4248 -4.35462,3.9808 -0.98661,1.0844 -1.57104,2.4533 -2.18706,3.772 -0.41341,1.3138 -0.69026,2.6809 -0.79041,4.0694 -0.13909,1.364 0.34393,2.7786 0.92095,4.0249 0.71925,1.3592 1.94499,2.4876 3.24783,3.21 1.32707,0.6678 2.85369,0.8517 4.31558,0.7699 1.94895,-0.296 3.76448,-1.3698 4.97068,-2.9999 0.7618,-0.6606 1.30817,-3.5246 2.21049,-1.4757 0.62223,1.366 1.63019,2.5557 2.93152,3.2584 1.52882,1.2132 3.59932,1.2193 5.42392,0.9299 1.68613,-0.4878 3.30373,-1.4422 4.34306,-2.9468 1.10672,-1.4402 1.63672,-3.2161 1.61102,-5.0433 -0.0816,-1.4616 -0.36812,-2.9296 -0.9761,-4.2607 -0.62706,-1.3532 -1.39585,-2.6664 -2.36296,-3.7972 -1.2446,-1.5345 -2.85487,-2.6687 -4.48698,-3.7339 -1.19448,-0.8814 -2.5175,-1.5889 -3.56504,-2.6885 -1.09179,-0.9053 -1.61888,-2.2301 -2.34315,-3.4244 -0.61482,-1.1166 -0.75425,-2.9809 -1.24294,-3.7997 z"
     style="fill:#df3939;fill-opacity:1;stroke-width:0.09388596" />
  <path
     id="path4868-8-8"
     d="m 502.02198,923.57658 c -0.41677,1.331 -0.5667,2.7563 -1.2726,3.9923 -0.57347,1.3229 -1.54001,2.4954 -2.58388,3.5123 -1.11348,1.1018 -2.5161,1.7938 -3.80931,2.6502 -1.58672,1.1559 -3.10329,2.4248 -4.35462,3.9808 -0.98657,1.0844 -1.57103,2.4533 -2.18706,3.772 -0.41337,1.3138 -0.69026,2.6809 -0.79037,4.0694 -0.13909,1.364 0.34393,2.7786 0.92091,4.0249 0.71925,1.3592 1.94503,2.4876 3.24783,3.21 1.32707,0.6678 2.85369,0.8517 4.31558,0.7699 1.94899,-0.296 3.76452,-1.3698 4.97068,-2.9999 0.7618,-0.6606 1.30817,-3.5246 2.21049,-1.4757 0.62223,1.366 1.63019,2.5557 2.93152,3.2584 1.52886,1.2132 3.59932,1.2193 5.42392,0.9299 1.68613,-0.4878 3.30376,-1.4422 4.34306,-2.9468 1.10672,-1.4402 1.63672,-3.2161 1.61102,-5.0433 -0.0816,-1.4616 -0.36812,-2.9296 -0.97606,-4.2607 -0.62706,-1.3532 -1.39586,-2.6664 -2.36296,-3.7972 -1.24464,-1.5345 -2.8549,-2.6687 -4.48702,-3.7339 -1.19448,-0.8814 -2.51747,-1.5889 -3.565,-2.6885 -1.09183,-0.9053 -1.61888,-2.2301 -2.34316,-3.4244 -0.61481,-1.1166 -0.75424,-2.9809 -1.24297,-3.7997 z"
     style="fill:#df3939;fill-opacity:1;stroke-width:0.09388596" />
  <path
     id="path4868"
     d="m 180.07312,329.57654 c -1.38928,-4.43697 -1.88897,-9.18788 -4.24207,-13.30775 -1.91146,-4.40988 -5.13328,-8.31829 -8.61294,-11.70769 -3.71157,-3.67283 -8.38699,-5.97933 -12.69762,-8.83397 -5.28911,-3.85311 -10.3443,-8.08274 -14.51539,-13.26954 -3.28864,-3.61448 -5.2368,-8.17742 -7.29018,-12.57301 -1.37798,-4.37961 -2.30086,-8.93643 -2.63467,-13.56499 -0.46314,-4.54647 1.14678,-9.26208 3.06981,-13.41619 2.39743,-4.53064 6.48332,-8.29202 10.82608,-10.7 4.42352,-2.22618 9.51231,-2.83914 14.38522,-2.56626 6.49659,0.9868 12.54837,4.56579 16.56892,9.99973 2.53935,2.20191 4.36063,11.74862 7.36834,4.9189 2.07409,-4.5535 5.43398,-8.51902 9.7717,-10.86142 5.09617,-4.04394 11.99781,-4.06424 18.07975,-3.09963 5.62042,1.62596 11.01252,4.80745 14.47684,9.82262 3.68912,4.80056 5.45578,10.72029 5.3701,16.81111 -0.27175,4.87192 -1.22721,9.76517 -3.2536,14.20218 -2.0902,4.51071 -4.65287,8.88794 -7.87654,12.65741 -4.14867,5.11495 -9.51624,8.89572 -14.95665,12.44648 -3.98158,2.93782 -8.39161,5.29621 -11.8834,8.96167 -3.63938,3.01754 -5.39626,7.43361 -7.81054,11.41448 -2.04938,3.72204 -2.51415,9.93649 -4.14316,12.66587 z"
     style="fill:#df3939;fill-opacity:1;stroke-width:0.3129532" />
  <path
     id="path4868-6"
     d="m 380.07312,329.57654 c -1.38928,-4.43698 -1.88897,-9.18788 -4.24206,-13.30775 -1.91146,-4.40988 -5.13328,-8.31829 -8.61294,-11.70769 -3.71157,-3.67284 -8.387,-5.97933 -12.69763,-8.83397 -5.28911,-3.85312 -10.3443,-8.08275 -14.51539,-13.26954 -3.28864,-3.61448 -5.2368,-8.17743 -7.29018,-12.57302 -1.37797,-4.3796 -2.30086,-8.93643 -2.63467,-13.56499 -0.46314,-4.54647 1.14679,-9.26207 3.06981,-13.41619 2.39743,-4.53063 6.48333,-8.29202 10.82608,-10.69999 4.42352,-2.22618 9.51232,-2.83914 14.38522,-2.56626 6.49659,0.98679 12.54837,4.56578 16.56892,9.99972 2.53935,2.20192 4.36063,11.74862 7.36834,4.91891 2.07409,-4.5535 5.43398,-8.51902 9.77171,-10.86142 5.09616,-4.04395 11.9978,-4.06424 18.07974,-3.09963 5.62043,1.62595 11.01253,4.80744 14.47684,9.82261 3.68912,4.80057 5.45578,10.72029 5.37011,16.81112 -0.27175,4.87192 -1.22722,9.76516 -3.25361,14.20218 -2.09019,4.51071 -4.65286,8.88793 -7.87653,12.65741 -4.14868,5.11494 -9.51625,8.89572 -14.95665,12.44647 -3.98159,2.93783 -8.39161,5.29622 -11.88341,8.96168 -3.63938,3.01753 -5.39625,7.43361 -7.81054,11.41447 -2.04937,3.72204 -2.51414,9.9365 -4.14316,12.66588 z"
     style="fill:#df3939;fill-opacity:1;stroke-width:0.3129532" />
  <path
     id="path4868-1"
     d="m 180.07312,459.57654 c -1.38928,-4.43698 -1.88897,-9.18788 -4.24207,-13.30775 -1.91146,-4.40988 -5.13328,-8.31829 -8.61294,-11.7077 -3.71157,-3.67283 -8.38699,-5.97932 -12.69762,-8.83396 -5.28911,-3.85312 -10.3443,-8.08275 -14.51539,-13.26954 -3.28864,-3.61448 -5.2368,-8.17743 -7.29018,-12.57302 -1.37798,-4.3796 -2.30086,-8.93643 -2.63467,-13.56499 -0.46314,-4.54647 1.14678,-9.26207 3.06981,-13.41619 2.39743,-4.53063 6.48332,-8.29202 10.82608,-10.69999 4.42352,-2.22618 9.51231,-2.83914 14.38522,-2.56626 6.49659,0.98679 12.54837,4.56578 16.56892,9.99972 2.53935,2.20192 4.36063,11.74862 7.36834,4.9189 2.07409,-4.5535 5.43398,-8.51901 9.7717,-10.86141 5.09617,-4.04395 11.99781,-4.06424 18.07975,-3.09963 5.62042,1.62595 11.01252,4.80744 14.47684,9.82261 3.68912,4.80057 5.45578,10.72029 5.3701,16.81111 -0.27175,4.87193 -1.22721,9.76517 -3.2536,14.20218 -2.0902,4.51072 -4.65287,8.88794 -7.87654,12.65742 -4.14867,5.11494 -9.51624,8.89572 -14.95665,12.44647 -3.98158,2.93783 -8.39161,5.29622 -11.8834,8.96168 -3.63938,3.01753 -5.39626,7.43361 -7.81054,11.41447 -2.04938,3.72204 -2.51415,9.93649 -4.14316,12.66588 z"
     style="fill:#df3939;fill-opacity:1;stroke-width:0.3129532" />
  <path
     id="path4868-3"
     d="m 380.07312,459.57654 c -1.38928,-4.43698 -1.88897,-9.18788 -4.24207,-13.30775 -1.91146,-4.40988 -5.13328,-8.31829 -8.61294,-11.70769 -3.71157,-3.67284 -8.387,-5.97933 -12.69762,-8.83397 -5.28911,-3.85312 -10.34431,-8.08275 -14.51539,-13.26954 -3.28865,-3.61448 -5.2368,-8.17743 -7.29018,-12.57302 -1.37798,-4.3796 -2.30087,-8.93643 -2.63467,-13.56499 -0.46315,-4.54647 1.14678,-9.26207 3.0698,-13.41619 2.39743,-4.53063 6.48333,-8.29202 10.82608,-10.69999 4.42352,-2.22618 9.51232,-2.83914 14.38523,-2.56626 6.49659,0.9868 12.54837,4.56578 16.56892,9.99972 2.53935,2.20192 4.36063,11.74862 7.36834,4.91891 2.07409,-4.5535 5.43397,-8.51902 9.7717,-10.86142 5.09616,-4.04395 11.99781,-4.06424 18.07975,-3.09963 5.62042,1.62595 11.01252,4.80745 14.47684,9.82261 3.68912,4.80057 5.45578,10.72029 5.3701,16.81112 -0.27175,4.87192 -1.22721,9.76516 -3.25361,14.20218 -2.09019,4.51071 -4.65286,8.88793 -7.87653,12.65741 -4.14868,5.11494 -9.51625,8.89572 -14.95665,12.44647 -3.98158,2.93783 -8.39161,5.29622 -11.8834,8.96168 -3.63939,3.01753 -5.39626,7.43361 -7.81055,11.41447 -2.04937,3.72204 -2.51414,9.9365 -4.14315,12.66588 z"
     style="fill:#df3939;fill-opacity:1;stroke-width:0.3129532" />
  <path
     id="path4868-2"
     d="m 280.07312,579.57654 c -1.38928,-4.43697 -1.88897,-9.18788 -4.24206,-13.30775 -1.91146,-4.40988 -5.13328,-8.31829 -8.61294,-11.70769 -3.71157,-3.67283 -8.387,-5.97933 -12.69763,-8.83397 -5.28911,-3.85311 -10.3443,-8.08274 -14.51539,-13.26954 -3.28864,-3.61448 -5.2368,-8.17742 -7.29018,-12.57302 -1.37797,-4.3796 -2.30086,-8.93642 -2.63467,-13.56498 -0.46314,-4.54647 1.14679,-9.26208 3.06981,-13.41619 2.39743,-4.53064 6.48333,-8.29202 10.82608,-10.7 4.42352,-2.22618 9.51232,-2.83914 14.38522,-2.56626 6.49659,0.9868 12.54837,4.56578 16.56892,9.99972 2.53935,2.20192 4.36063,11.74863 7.36834,4.91891 2.07409,-4.5535 5.43398,-8.51902 9.77171,-10.86142 5.09616,-4.04394 11.9978,-4.06424 18.07974,-3.09963 5.62043,1.62596 11.01253,4.80745 14.47684,9.82262 3.68912,4.80056 5.45578,10.72029 5.37011,16.81111 -0.27175,4.87192 -1.22722,9.76516 -3.25361,14.20218 -2.09019,4.51071 -4.65286,8.88794 -7.87653,12.65741 -4.14868,5.11495 -9.51625,8.89572 -14.95665,12.44648 -3.98159,2.93782 -8.39161,5.29621 -11.88341,8.96167 -3.63938,3.01754 -5.39625,7.43361 -7.81054,11.41448 -2.04937,3.72204 -2.51414,9.93649 -4.14316,12.66587 z"
     style="fill:#df3939;fill-opacity:1;stroke-width:0.3129532" />
  <path
     id="path4868-0"
     d="m 180.07312,609.57653 c -1.38928,4.43698 -1.88897,9.18788 -4.24207,13.30775 -1.91146,4.40988 -5.13328,8.31829 -8.61294,11.7077 -3.71157,3.67283 -8.38699,5.97932 -12.69762,8.83396 -5.28911,3.85312 -10.3443,8.08275 -14.51539,13.26954 -3.28864,3.61448 -5.2368,8.17743 -7.29018,12.57302 -1.37798,4.3796 -2.30086,8.93643 -2.63467,13.56499 -0.46314,4.54647 1.14678,9.26207 3.06981,13.41619 2.39743,4.53063 6.48332,8.29202 10.82608,10.69999 4.42352,2.22618 9.51231,2.83914 14.38522,2.56626 6.49659,-0.98679 12.54837,-4.56578 16.56892,-9.99972 2.53935,-2.20192 4.36063,-11.74862 7.36834,-4.9189 2.07409,4.5535 5.43398,8.51901 9.7717,10.86141 5.09617,4.04395 11.99781,4.06424 18.07975,3.09963 5.62042,-1.62595 11.01252,-4.80744 14.47684,-9.82261 3.68912,-4.80057 5.45578,-10.72029 5.3701,-16.81111 -0.27175,-4.87193 -1.22721,-9.76517 -3.2536,-14.20218 -2.0902,-4.51072 -4.65287,-8.88794 -7.87654,-12.65742 -4.14867,-5.11494 -9.51625,-8.89572 -14.95665,-12.44647 -3.98158,-2.93783 -8.39161,-5.29622 -11.8834,-8.96168 -3.63938,-3.01753 -5.39626,-7.43361 -7.81054,-11.41447 -2.04938,-3.72204 -2.51415,-9.93649 -4.14316,-12.66588 z"
     style="fill:#df3939;fill-opacity:1;stroke-width:0.3129532" />
  <path
     id="path4868-0-8"
     d="m 380.07312,609.57653 c -1.38928,4.43698 -1.88897,9.18788 -4.24207,13.30775 -1.91146,4.40988 -5.13328,8.31829 -8.61294,11.7077 -3.71157,3.67283 -8.387,5.97932 -12.69762,8.83396 -5.28911,3.85312 -10.34431,8.08275 -14.51539,13.26954 -3.28865,3.61448 -5.2368,8.17743 -7.29018,12.57302 -1.37798,4.3796 -2.30087,8.93643 -2.63467,13.56499 -0.46315,4.54647 1.14678,9.26207 3.0698,13.41619 2.39743,4.53063 6.48333,8.29202 10.82608,10.69999 4.42352,2.22618 9.51232,2.83914 14.38522,2.56626 6.4966,-0.98679 12.54838,-4.56578 16.56892,-9.99972 2.53936,-2.20192 4.36063,-11.74862 7.36834,-4.9189 2.0741,4.5535 5.43398,8.51901 9.77171,10.86141 5.09616,4.04395 11.99781,4.06424 18.07975,3.09963 5.62042,-1.62595 11.01252,-4.80744 14.47683,-9.82261 3.68913,-4.80057 5.45579,-10.72029 5.37011,-16.81111 -0.27175,-4.87193 -1.22721,-9.76517 -3.25361,-14.20218 -2.09019,-4.51072 -4.65286,-8.88794 -7.87653,-12.65742 -4.14868,-5.11494 -9.51625,-8.89572 -14.95665,-12.44647 -3.98158,-2.93783 -8.39161,-5.29622 -11.8834,-8.96168 -3.63939,-3.01753 -5.39626,-7.43361 -7.81055,-11.41447 -2.04937,-3.72204 -2.51414,-9.93649 -4.14315,-12.66588 z"
     style="fill:#df3939;fill-opacity:1;stroke-width:0.3129532" />
  <path
     id="path4868-0-0"
     d="m 380.07312,749.57653 c -1.38928,4.43698 -1.88897,9.18788 -4.24207,13.30775 -1.91145,4.40988 -5.13327,8.31829 -8.61293,11.7077 -3.71158,3.67283 -8.387,5.97932 -12.69763,8.83396 -5.28911,3.85312 -10.3443,8.08275 -14.51539,13.26954 -3.28864,3.61448 -5.2368,8.17743 -7.29018,12.57302 -1.37798,4.3796 -2.30086,8.93643 -2.63467,13.56499 -0.46314,4.54647 1.14678,9.26207 3.06981,13.41619 2.39743,4.53063 6.48332,8.29202 10.82608,10.69999 4.42352,2.22618 9.51231,2.83914 14.38522,2.56626 6.49659,-0.98679 12.54837,-4.56578 16.56892,-9.99972 2.53935,-2.20192 4.36063,-11.74862 7.36834,-4.9189 2.07409,4.5535 5.43398,8.51901 9.7717,10.86141 5.09617,4.04395 11.99781,4.06424 18.07975,3.09963 5.62042,-1.62595 11.01252,-4.80744 14.47684,-9.82261 3.68912,-4.80057 5.45578,-10.72029 5.3701,-16.81111 -0.27174,-4.87193 -1.22721,-9.76517 -3.2536,-14.20218 -2.09019,-4.51072 -4.65287,-8.88794 -7.87654,-12.65742 -4.14867,-5.11494 -9.51624,-8.89572 -14.95665,-12.44647 -3.98158,-2.93783 -8.39161,-5.29622 -11.8834,-8.96168 -3.63938,-3.01753 -5.39626,-7.43361 -7.81054,-11.41447 -2.04938,-3.72204 -2.51415,-9.93649 -4.14316,-12.66588 z"
     style="fill:#df3939;fill-opacity:1;stroke-width:0.3129532" />
  <path
     id="path4868-0-5"
     d="m 180.07312,749.57653 c -1.38928,4.43698 -1.88897,9.18788 -4.24207,13.30775 -1.91146,4.40988 -5.13328,8.31829 -8.61294,11.7077 -3.71157,3.67283 -8.38699,5.97932 -12.69762,8.83396 -5.28911,3.85312 -10.3443,8.08275 -14.51539,13.26954 -3.28864,3.61448 -5.2368,8.17743 -7.29018,12.57302 -1.37798,4.3796 -2.30086,8.93643 -2.63467,13.56499 -0.46314,4.54647 1.14678,9.26207 3.06981,13.41619 2.39743,4.53063 6.48332,8.29202 10.82608,10.69999 4.42352,2.22618 9.51231,2.83914 14.38522,2.56626 6.49659,-0.98679 12.54837,-4.56578 16.56892,-9.99972 2.53935,-2.20192 4.36063,-11.74862 7.36834,-4.9189 2.07409,4.5535 5.43398,8.51901 9.7717,10.86141 5.09617,4.04395 11.99781,4.06424 18.07975,3.09963 5.62042,-1.62595 11.01252,-4.80744 14.47684,-9.82261 3.68912,-4.80057 5.45578,-10.72029 5.3701,-16.81111 -0.27175,-4.87193 -1.22721,-9.76517 -3.2536,-14.20218 -2.0902,-4.51072 -4.65287,-8.88794 -7.87654,-12.65742 -4.14867,-5.11494 -9.51624,-8.89572 -14.95665,-12.44647 -3.98158,-2.93783 -8.39161,-5.29622 -11.8834,-8.96168 -3.63938,-3.01753 -5.39626,-7.43361 -7.81054,-11.41447 -2.04938,-3.72204 -2.51415,-9.93649 -4.14316,-12.66588 z"
     style="fill:#df3939;fill-opacity:1;stroke-width:0.3129532" />
</svg>
