<?xml version="1.0" encoding="UTF-8" standalone="no"?>
<svg
   xmlns:dc="http://purl.org/dc/elements/1.1/"
   xmlns:cc="http://creativecommons.org/ns#"
   xmlns:rdf="http://www.w3.org/1999/02/22-rdf-syntax-ns#"
   xmlns:svg="http://www.w3.org/2000/svg"
   xmlns="http://www.w3.org/2000/svg"
   viewBox="0 0 560 1059.5765"
   height="1059.5765"
   width="560"
   id="svg2"
   version="1.1">
  <metadata
     id="metadata8">
    <rdf:RDF>
      <cc:Work
         rdf:about="">
        <dc:format>image/svg+xml</dc:format>
        <dc:type
           rdf:resource="http://purl.org/dc/dcmitype/StillImage" />
        <dc:title></dc:title>
      </cc:Work>
    </rdf:RDF>
  </metadata>
  <defs
     id="defs6" />
  <text
     xml:space="preserve"
     style="font-style:normal;font-variant:normal;font-weight:normal;font-stretch:normal;font-size:69.33333588px;line-height:1.25;font-family:Rose;-inkscape-font-specification:Rose;letter-spacing:0px;word-spacing:0px;fill:#df3939;fill-opacity:1;stroke:none;"
     x="40.588543"
     y="109.57654"
     id="text4955"><tspan
       style="fill:#df3939;fill-opacity:1;"
       id="tspan4953"
       x="40.588543"
       y="109.57654">7</tspan></text>
  <text
     xml:space="preserve"
     style="font-style:normal;font-variant:normal;font-weight:normal;font-stretch:normal;font-size:69.33216858px;line-height:1.25;font-family:Rose;-inkscape-font-specification:Rose;letter-spacing:0px;word-spacing:0px;fill:#df3939;fill-opacity:1;stroke:none;stroke-width:0.99998319;"
     x="480.58868"
     y="109.57654"
     id="text4955-6"><tspan
       id="tspan4953-2"
       x="480.58868"
       y="109.57654"
       style="stroke-width:0.99998319;fill:#df3939;fill-opacity:1;">7</tspan></text>
  <text
     xml:space="preserve"
     style="font-style:normal;font-variant:normal;font-weight:normal;font-stretch:normal;font-size:69.33333588px;line-height:1.25;font-family:Rose;-inkscape-font-specification:Rose;letter-spacing:0px;word-spacing:0px;fill:#df3939;fill-opacity:1;stroke:none;"
     x="-525.51251"
     y="-968.99841"
     id="text4955-3"
     transform="scale(-1)"><tspan
       style="fill:#df3939;fill-opacity:1;"
       id="tspan4953-7"
       x="-525.51251"
       y="-968.99841">7</tspan></text>
  <text
     xml:space="preserve"
     style="font-style:normal;font-variant:normal;font-weight:normal;font-stretch:normal;font-size:69.33216858px;line-height:1.25;font-family:Rose;-inkscape-font-specification:Rose;letter-spacing:0px;word-spacing:0px;fill:#df3939;fill-opacity:1;stroke:none;stroke-width:0.99998319;"
     x="-85.512352"
     y="-968.99841"
     id="text4955-6-2"
     transform="scale(-1)"><tspan
       id="tspan4953-2-7"
       x="-85.512352"
       y="-968.99841"
       style="stroke-width:0.99998319;fill:#df3939;fill-opacity:1;">7</tspan></text>
  <path
     id="path4868-8"
     d="m 62.021997,159.57654 c -0.4168,-1.33108 -0.5667,-2.75637 -1.272638,-3.99232 -0.57343,-1.32298 -1.539969,-2.49551 -2.583874,-3.51231 -1.113449,-1.10185 -2.516108,-1.7938 -3.809273,-2.65021 -1.586721,-1.15593 -3.103294,-2.42479 -4.35462,-3.98086 -0.986608,-1.08435 -1.571037,-2.45321 -2.187062,-3.77189 -0.413405,-1.31388 -0.690255,-2.68093 -0.790412,-4.0695 -0.139087,-1.36395 0.343937,-2.77863 0.920957,-4.02485 0.719244,-1.3592 1.944983,-2.48761 3.247824,-3.20999 1.327067,-0.66788 2.853694,-0.85176 4.315578,-0.76989 1.948951,0.29593 3.764485,1.36974 4.970683,2.99992 0.761797,0.66059 1.308167,3.52456 2.210497,1.47568 0.62222,-1.36607 1.63018,-2.55572 2.93151,-3.25844 1.52882,-1.21319 3.59932,-1.21928 5.42393,-0.92988 1.68612,0.48779 3.30372,1.44223 4.34305,2.94678 1.10672,1.44015 1.63673,3.21608 1.61103,5.04333 -0.0816,1.46158 -0.36813,2.92955 -0.97611,4.26066 -0.62706,1.35322 -1.39585,2.66638 -2.36296,3.79722 -1.24459,1.53449 -2.85486,2.66872 -4.48698,3.73394 -1.19448,0.88135 -2.5175,1.58888 -3.56503,2.6885 -1.0918,0.90527 -1.61889,2.23011 -2.34316,3.42436 -0.61482,1.11659 -0.75424,2.98095 -1.24294,3.79975 z"
     style="fill:#df3939;fill-opacity:1;stroke-width:0.09388596" />
  <path
     id="path4868-8-9"
     d="m 502.02198,159.57654 c -0.41677,-1.33108 -0.5667,-2.75637 -1.2726,-3.99232 -0.57347,-1.32298 -1.54001,-2.49551 -2.58388,-3.51231 -1.11348,-1.10185 -2.5161,-1.7938 -3.80931,-2.65021 -1.58672,-1.15593 -3.10329,-2.42479 -4.35462,-3.98086 -0.98657,-1.08435 -1.57103,-2.45321 -2.18706,-3.77189 -0.41337,-1.31388 -0.69026,-2.68093 -0.79037,-4.0695 -0.13909,-1.36395 0.34393,-2.77863 0.92091,-4.02485 0.71925,-1.3592 1.94503,-2.48761 3.24783,-3.20999 1.32707,-0.66788 2.85369,-0.85176 4.31558,-0.76989 1.94899,0.29593 3.76452,1.36974 4.97068,2.99992 0.7618,0.66059 1.30817,3.52456 2.21049,1.47568 0.62223,-1.36607 1.63019,-2.55572 2.93152,-3.25844 1.52886,-1.21319 3.59932,-1.21928 5.42392,-0.92988 1.68613,0.48779 3.30376,1.44223 4.34306,2.94678 1.10672,1.44015 1.63672,3.21608 1.61102,5.04333 -0.0816,1.46158 -0.36812,2.92955 -0.97606,4.26066 -0.62706,1.35322 -1.39586,2.66638 -2.36296,3.79722 -1.24464,1.53449 -2.8549,2.66872 -4.48702,3.73394 -1.19448,0.88135 -2.51747,1.58888 -3.565,2.6885 -1.09183,0.90527 -1.61888,2.23011 -2.34316,3.42436 -0.61481,1.11659 -0.75424,2.98095 -1.24297,3.79975 z"
     style="fill:#df3939;fill-opacity:1;stroke-width:0.09388596" />
  <path
     id="path4868-8-0"
     d="m 62.021997,923.57654 c -0.4168,1.3311 -0.5667,2.7564 -1.272638,3.9923 -0.57343,1.323 -1.539969,2.4955 -2.583874,3.5124 -1.113449,1.1018 -2.516108,1.7938 -3.809273,2.6501 -1.586721,1.156 -3.103294,2.4248 -4.35462,3.9809 -0.986608,1.0843 -1.571037,2.4532 -2.187062,3.7719 -0.413405,1.3139 -0.690255,2.6809 -0.790412,4.0695 -0.139087,1.3639 0.343937,2.7786 0.920957,4.0249 0.719244,1.3592 1.944983,2.4876 3.247824,3.21 1.327067,0.6678 2.853694,0.8517 4.315578,0.7698 1.948951,-0.2959 3.764485,-1.3697 4.970683,-2.9999 0.761797,-0.6606 1.308167,-3.5246 2.210497,-1.4757 0.62222,1.3661 1.63018,2.5558 2.93151,3.2585 1.52882,1.2131 3.59932,1.2192 5.42393,0.9299 1.68612,-0.4878 3.30372,-1.4423 4.34305,-2.9468 1.10672,-1.4402 1.63673,-3.2161 1.61103,-5.0434 -0.0816,-1.4615 -0.36813,-2.9295 -0.97611,-4.2606 -0.62706,-1.3532 -1.39585,-2.6664 -2.36296,-3.7972 -1.24459,-1.5345 -2.85486,-2.6688 -4.48698,-3.734 -1.19448,-0.8813 -2.5175,-1.5888 -3.56503,-2.6885 -1.0918,-0.9052 -1.61889,-2.2301 -2.34316,-3.4243 -0.61482,-1.1167 -0.75424,-2.981 -1.24294,-3.7998 z"
     style="fill:#df3939;fill-opacity:1;stroke-width:0.09388596" />
  <path
     id="path4868-8-8"
     d="m 502.02198,923.57654 c -0.41677,1.3311 -0.5667,2.7564 -1.2726,3.9923 -0.57347,1.323 -1.54001,2.4955 -2.58388,3.5124 -1.11348,1.1018 -2.5161,1.7938 -3.80931,2.6501 -1.58672,1.156 -3.10329,2.4248 -4.35462,3.9809 -0.98657,1.0843 -1.57103,2.4532 -2.18706,3.7719 -0.41337,1.3139 -0.69026,2.6809 -0.79037,4.0695 -0.13909,1.3639 0.34393,2.7786 0.92091,4.0249 0.71925,1.3592 1.94503,2.4876 3.24783,3.21 1.32707,0.6678 2.85369,0.8517 4.31558,0.7698 1.94899,-0.2959 3.76452,-1.3697 4.97068,-2.9999 0.7618,-0.6606 1.30817,-3.5246 2.21049,-1.4757 0.62223,1.3661 1.63019,2.5558 2.93152,3.2585 1.52886,1.2131 3.59932,1.2192 5.42392,0.9299 1.68613,-0.4878 3.30376,-1.4423 4.34306,-2.9468 1.10672,-1.4402 1.63672,-3.2161 1.61102,-5.0434 -0.0816,-1.4615 -0.36812,-2.9295 -0.97606,-4.2606 -0.62706,-1.3532 -1.39586,-2.6664 -2.36296,-3.7972 -1.24464,-1.5345 -2.8549,-2.6688 -4.48702,-3.734 -1.19448,-0.8813 -2.51747,-1.5888 -3.565,-2.6885 -1.09183,-0.9052 -1.61888,-2.2301 -2.34316,-3.4243 -0.61481,-1.1167 -0.75424,-2.981 -1.24297,-3.7998 z"
     style="fill:#df3939;fill-opacity:1;stroke-width:0.09388596" />
  <path
     id="path4868"
     d="m 180.07312,379.57654 c -1.38928,-4.43698 -1.88897,-9.18788 -4.24207,-13.30775 -1.91145,-4.40988 -5.13327,-8.31829 -8.61293,-11.7077 -3.71158,-3.67283 -8.387,-5.97932 -12.69763,-8.83396 -5.28911,-3.85312 -10.3443,-8.08275 -14.51539,-13.26954 -3.28864,-3.61448 -5.2368,-8.17743 -7.29018,-12.57302 -1.37798,-4.3796 -2.30086,-8.93643 -2.63467,-13.56499 -0.46314,-4.54647 1.14678,-9.26207 3.06981,-13.41619 2.39743,-4.53063 6.48332,-8.29202 10.82608,-10.69999 4.42352,-2.22618 9.51231,-2.83914 14.38522,-2.56626 6.49659,0.98679 12.54837,4.56578 16.56892,9.99972 2.53935,2.20192 4.36063,11.74862 7.36834,4.9189 2.07409,-4.5535 5.43398,-8.51901 9.7717,-10.86141 5.09617,-4.04395 11.99781,-4.06424 18.07975,-3.09963 5.62042,1.62595 11.01252,4.80744 14.47684,9.82261 3.68912,4.80057 5.45578,10.72029 5.3701,16.81111 -0.27174,4.87193 -1.22721,9.76517 -3.2536,14.20218 -2.09019,4.51072 -4.65287,8.88794 -7.87654,12.65742 -4.14867,5.11494 -9.51624,8.89572 -14.95665,12.44647 -3.98158,2.93783 -8.39161,5.29622 -11.8834,8.96168 -3.63938,3.01753 -5.39626,7.43361 -7.81054,11.41447 -2.04938,3.72204 -2.51415,9.93649 -4.14316,12.66588 z"
     style="fill:#df3939;fill-opacity:1;stroke-width:0.3129532" />
  <path
     id="path4868-0"
     d="m 380.07312,379.57654 c -1.38928,-4.43697 -1.88897,-9.18788 -4.24207,-13.30775 -1.91145,-4.40988 -5.13327,-8.31829 -8.61293,-11.70769 -3.71158,-3.67284 -8.387,-5.97933 -12.69763,-8.83397 -5.28911,-3.85311 -10.3443,-8.08275 -14.51539,-13.26954 -3.28864,-3.61448 -5.2368,-8.17743 -7.29018,-12.57302 -1.37798,-4.3796 -2.30086,-8.93643 -2.63467,-13.56499 -0.46314,-4.54647 1.14678,-9.26207 3.06981,-13.41619 2.39743,-4.53063 6.48332,-8.29201 10.82608,-10.69999 4.42352,-2.22618 9.51231,-2.83914 14.38522,-2.56626 6.49659,0.9868 12.54837,4.56578 16.56892,9.99972 2.53935,2.20192 4.36063,11.74863 7.36834,4.91891 2.07409,-4.5535 5.43398,-8.51902 9.7717,-10.86142 5.09617,-4.04394 11.99781,-4.06424 18.07975,-3.09963 5.62042,1.62595 11.01252,4.80745 14.47684,9.82261 3.68912,4.80057 5.45578,10.72029 5.3701,16.81112 -0.27174,4.87192 -1.22721,9.76516 -3.2536,14.20218 -2.09019,4.51071 -4.65287,8.88793 -7.87654,12.65741 -4.14867,5.11495 -9.51624,8.89572 -14.95665,12.44647 -3.98158,2.93783 -8.39161,5.29622 -11.8834,8.96168 -3.63938,3.01754 -5.39626,7.43361 -7.81054,11.41447 -2.04938,3.72205 -2.51415,9.9365 -4.14316,12.66588 z"
     style="fill:#df3939;fill-opacity:1;stroke-width:0.3129532" />
  <path
     id="path4868-08"
     d="m 280.07312,489.57654 c -1.38928,-4.43698 -1.88897,-9.18788 -4.24206,-13.30775 -1.91146,-4.40988 -5.13328,-8.31829 -8.61294,-11.70769 -3.71157,-3.67284 -8.387,-5.97933 -12.69763,-8.83397 -5.28911,-3.85312 -10.3443,-8.08275 -14.51539,-13.26954 -3.28864,-3.61448 -5.2368,-8.17743 -7.29018,-12.57302 -1.37797,-4.3796 -2.30086,-8.93643 -2.63467,-13.56499 -0.46314,-4.54647 1.14679,-9.26207 3.06981,-13.41619 2.39743,-4.53063 6.48333,-8.29202 10.82608,-10.69999 4.42352,-2.22618 9.51231,-2.83914 14.38522,-2.56626 6.49659,0.98679 12.54837,4.56578 16.56892,9.99972 2.53935,2.20192 4.36063,11.74862 7.36834,4.91891 2.07409,-4.5535 5.43398,-8.51902 9.77171,-10.86142 5.09616,-4.04395 11.9978,-4.06424 18.07974,-3.09963 5.62043,1.62595 11.01253,4.80744 14.47684,9.82261 3.68912,4.80057 5.45578,10.72029 5.37011,16.81112 -0.27175,4.87192 -1.22722,9.76516 -3.25361,14.20218 -2.09019,4.51071 -4.65286,8.88793 -7.87654,12.65741 -4.14867,5.11494 -9.51624,8.89572 -14.95664,12.44647 -3.98159,2.93783 -8.39161,5.29622 -11.88341,8.96168 -3.63938,3.01753 -5.39625,7.43361 -7.81054,11.41447 -2.04937,3.72204 -2.51414,9.9365 -4.14316,12.66588 z"
     style="fill:#df3939;fill-opacity:1;stroke-width:0.3129532" />
  <path
     id="path4868-1"
     d="m 180.07312,579.57654 c -1.38928,-4.43697 -1.88897,-9.18788 -4.24206,-13.30775 -1.91146,-4.40988 -5.13328,-8.31829 -8.61294,-11.70769 -3.71158,-3.67283 -8.387,-5.97933 -12.69763,-8.83397 -5.28911,-3.85311 -10.3443,-8.08274 -14.51539,-13.26954 -3.28864,-3.61448 -5.2368,-8.17743 -7.29018,-12.57302 -1.37798,-4.3796 -2.30086,-8.93642 -2.63467,-13.56499 -0.46314,-4.54646 1.14679,-9.26207 3.06981,-13.41618 2.39743,-4.53064 6.48333,-8.29202 10.82608,-10.7 4.42352,-2.22618 9.51231,-2.83914 14.38522,-2.56626 6.49659,0.9868 12.54837,4.56578 16.56892,9.99972 2.53935,2.20192 4.36063,11.74863 7.36834,4.91891 2.07409,-4.5535 5.43398,-8.51902 9.7717,-10.86142 5.09617,-4.04394 11.99781,-4.06424 18.07975,-3.09963 5.62043,1.62595 11.01253,4.80745 14.47684,9.82262 3.68912,4.80056 5.45578,10.72029 5.3701,16.81111 -0.27174,4.87192 -1.22721,9.76516 -3.2536,14.20218 -2.09019,4.51071 -4.65286,8.88793 -7.87654,12.65741 -4.14867,5.11495 -9.51624,8.89572 -14.95665,12.44647 -3.98158,2.93783 -8.39161,5.29622 -11.8834,8.96168 -3.63938,3.01754 -5.39626,7.43361 -7.81054,11.41448 -2.04938,3.72204 -2.51414,9.93649 -4.14316,12.66587 z"
     style="fill:#df3939;fill-opacity:1;stroke-width:0.3129532" />
  <path
     id="path4868-12"
     d="m 380.07312,579.57654 c -1.38928,-4.43697 -1.88897,-9.18787 -4.24206,-13.30775 -1.91146,-4.40987 -5.13328,-8.31828 -8.61294,-11.70769 -3.71157,-3.67283 -8.387,-5.97932 -12.69763,-8.83396 -5.28911,-3.85312 -10.3443,-8.08275 -14.51539,-13.26955 -3.28864,-3.61447 -5.2368,-8.17742 -7.29018,-12.57301 -1.37797,-4.3796 -2.30086,-8.93643 -2.63467,-13.56499 -0.46314,-4.54647 1.14679,-9.26207 3.06981,-13.41619 2.39743,-4.53063 6.48333,-8.29202 10.82608,-10.69999 4.42352,-2.22618 9.51232,-2.83915 14.38522,-2.56626 6.49659,0.98679 12.54837,4.56578 16.56892,9.99972 2.53935,2.20191 4.36063,11.74862 7.36834,4.9189 2.07409,-4.5535 5.43398,-8.51901 9.77171,-10.86141 5.09616,-4.04395 11.9978,-4.06424 18.07974,-3.09963 5.62043,1.62595 11.01253,4.80744 14.47684,9.82261 3.68912,4.80057 5.45578,10.72029 5.37011,16.81111 -0.27175,4.87193 -1.22722,9.76517 -3.25361,14.20218 -2.09019,4.51072 -4.65286,8.88794 -7.87653,12.65741 -4.14868,5.11495 -9.51625,8.89573 -14.95665,12.44648 -3.98159,2.93783 -8.39161,5.29621 -11.88341,8.96168 -3.63938,3.01753 -5.39625,7.43361 -7.81054,11.41447 -2.04937,3.72204 -2.51414,9.93649 -4.14316,12.66587 z"
     style="fill:#df3939;fill-opacity:1;stroke-width:0.3129532" />
  <path
     id="path4868-6"
     d="m 180.07312,679.57653 c -1.38928,4.43697 -1.88897,9.18788 -4.24207,13.30775 -1.91146,4.40988 -5.13328,8.31829 -8.61294,11.70769 -3.71157,3.67283 -8.387,5.97933 -12.69762,8.83397 -5.28911,3.85311 -10.34431,8.08274 -14.51539,13.26954 -3.28864,3.61448 -5.2368,8.17742 -7.29018,12.57301 -1.37798,4.37961 -2.30086,8.93643 -2.63467,13.56499 -0.46315,4.54647 1.14678,9.26208 3.06981,13.41619 2.39743,4.53064 6.48332,8.29202 10.82607,10.7 4.42353,2.22618 9.51232,2.83914 14.38523,2.56626 6.49659,-0.9868 12.54837,-4.56579 16.56892,-9.99973 2.53935,-2.20191 4.36063,-11.74862 7.36834,-4.9189 2.07409,4.5535 5.43397,8.51902 9.7717,10.86142 5.09616,4.04394 11.99781,4.06424 18.07975,3.09963 5.62042,-1.62596 11.01252,-4.80745 14.47684,-9.82262 3.68912,-4.80056 5.45578,-10.72029 5.3701,-16.81111 -0.27175,-4.87192 -1.22721,-9.76517 -3.25361,-14.20218 -2.09019,-4.51071 -4.65286,-8.88794 -7.87653,-12.65741 -4.14867,-5.11495 -9.51625,-8.89572 -14.95665,-12.44648 -3.98158,-2.93782 -8.39161,-5.29621 -11.8834,-8.96167 -3.63938,-3.01754 -5.39626,-7.43361 -7.81055,-11.41448 -2.04937,-3.72204 -2.51414,-9.93649 -4.14315,-12.66587 z"
     style="fill:#df3939;fill-opacity:1;stroke-width:0.3129532" />
  <path
     id="path4868-3"
     d="m 380.07312,679.57653 c -1.38927,4.43697 -1.88897,9.18788 -4.24206,13.30775 -1.91146,4.40988 -5.13328,8.31829 -8.61294,11.70769 -3.71157,3.67283 -8.387,5.97933 -12.69763,8.83397 -5.2891,3.85311 -10.3443,8.08274 -14.51538,13.26954 -3.28865,3.61448 -5.23681,8.17743 -7.29018,12.57302 -1.37798,4.3796 -2.30087,8.93642 -2.63468,13.56499 -0.46314,4.54646 1.14679,9.26207 3.06981,13.41618 2.39743,4.53064 6.48333,8.29202 10.82608,10.7 4.42352,2.22618 9.51232,2.83914 14.38522,2.56626 6.4966,-0.9868 12.54838,-4.56578 16.56892,-9.99972 2.53935,-2.20192 4.36063,-11.74863 7.36834,-4.91891 2.0741,4.5535 5.43398,8.51902 9.77171,10.86142 5.09616,4.04394 11.99781,4.06424 18.07975,3.09963 5.62042,-1.62595 11.01252,-4.80745 14.47683,-9.82262 3.68913,-4.80056 5.45579,-10.72029 5.37011,-16.81111 -0.27175,-4.87192 -1.22721,-9.76516 -3.25361,-14.20218 -2.09019,-4.51071 -4.65286,-8.88793 -7.87653,-12.65741 -4.14868,-5.11495 -9.51625,-8.89572 -14.95665,-12.44647 -3.98158,-2.93783 -8.39161,-5.29622 -11.8834,-8.96168 -3.63939,-3.01754 -5.39626,-7.43361 -7.81055,-11.41448 -2.04937,-3.72204 -2.51414,-9.93649 -4.14316,-12.66587 z"
     style="fill:#df3939;fill-opacity:1;stroke-width:0.3129532" />
</svg>
