<?xml version="1.0" encoding="UTF-8" standalone="no"?>
<svg
   xmlns:dc="http://purl.org/dc/elements/1.1/"
   xmlns:cc="http://creativecommons.org/ns#"
   xmlns:rdf="http://www.w3.org/1999/02/22-rdf-syntax-ns#"
   xmlns:svg="http://www.w3.org/2000/svg"
   xmlns="http://www.w3.org/2000/svg"
   version="1.1"
   id="svg2"
   width="560"
   height="1059.5765"
   viewBox="0 0 560 1059.5765">
  <metadata
     id="metadata8">
    <rdf:RDF>
      <cc:Work
         rdf:about="">
        <dc:format>image/svg+xml</dc:format>
        <dc:type
           rdf:resource="http://purl.org/dc/dcmitype/StillImage" />
        <dc:title></dc:title>
      </cc:Work>
    </rdf:RDF>
  </metadata>
  <defs
     id="defs6" />
  <text
     id="text4955"
     y="109.57654"
     x="40.588543"
     style="font-style:normal;font-variant:normal;font-weight:normal;font-stretch:normal;font-size:69.33333588px;line-height:1.25;font-family:Rose;-inkscape-font-specification:Rose;letter-spacing:0px;word-spacing:0px;fill:#df3939;fill-opacity:1;stroke:none;"
     xml:space="preserve"><tspan
       y="109.57654"
       x="40.588543"
       id="tspan4953"
       style="fill:#df3939;fill-opacity:1;">1</tspan></text>
  <text
     id="text4955-6"
     y="109.57654"
     x="480.58868"
     style="font-style:normal;font-variant:normal;font-weight:normal;font-stretch:normal;font-size:69.33216858px;line-height:1.25;font-family:Rose;-inkscape-font-specification:Rose;letter-spacing:0px;word-spacing:0px;fill:#df3939;fill-opacity:1;stroke:none;stroke-width:0.99998319;"
     xml:space="preserve"><tspan
       style="stroke-width:0.99998319;fill:#df3939;fill-opacity:1;"
       y="109.57654"
       x="480.58868"
       id="tspan4953-2">1</tspan></text>
  <text
     transform="scale(-1)"
     id="text4955-3"
     y="-968.99841"
     x="-86.697922"
     style="font-style:normal;font-variant:normal;font-weight:normal;font-stretch:normal;font-size:69.33333588px;line-height:1.25;font-family:Rose;-inkscape-font-specification:Rose;letter-spacing:0px;word-spacing:0px;fill:#df3939;fill-opacity:1;stroke:none"
     xml:space="preserve"><tspan
       y="-968.99841"
       x="-86.697922"
       id="tspan4953-7"
       style="fill:#df3939;fill-opacity:1">1</tspan></text>
  <text
     transform="scale(-1)"
     id="text4955-6-2"
     y="-968.99841"
     x="-526.69727"
     style="font-style:normal;font-variant:normal;font-weight:normal;font-stretch:normal;font-size:69.33216858px;line-height:1.25;font-family:Rose;-inkscape-font-specification:Rose;letter-spacing:0px;word-spacing:0px;fill:#df3939;fill-opacity:1;stroke:none;stroke-width:0.99998319"
     xml:space="preserve"><tspan
       style="fill:#df3939;fill-opacity:1;stroke-width:0.99998319"
       y="-968.99841"
       x="-526.69727"
       id="tspan4953-2-7">1</tspan></text>
  <path
     id="path4823-3"
     d="m 61.820326,159.51305 c -0.6923,-1.66016 -1.73518,-3.21255 -2.82788,-4.66092 -0.69071,-1.25135 -1.83519,-2.27669 -2.79844,-3.35634 -1.31981,-1.42841 -2.7775,-2.68947 -4.31448,-3.86373 -0.99296,-0.8474 -2.17584,-1.46296 -3.30648,-2.13267 -0.87942,-0.21921 -2.49857,-0.97946 -0.88815,-1.67096 1.47496,-0.49801 2.48024,-1.48846 3.81003,-2.3852 1.14406,-0.42854 1.98425,-1.66086 3.02717,-2.36743 0.97478,-0.77689 1.7246,-1.77868 2.60595,-2.52064 0.73553,-1.15039 1.83772,-2.03578 2.45752,-3.27074 0.87171,-1.07222 1.55392,-2.34231 2.18718,-3.58982 0.6537,-0.65178 0.90493,1.58742 1.5386,2.01337 0.73535,1.25352 1.58302,2.42171 2.45541,3.57634 1.02191,1.0889 1.9335,2.31706 3.04978,3.25766 0.73281,1.04785 1.88455,1.56084 2.85041,2.49655 1.12168,0.80569 2.32516,1.55729 3.4817,2.30115 0.50124,0.40266 2.8433,1.07193 1.37306,1.50729 -2.21393,1.35925 -4.51385,2.63945 -6.42142,4.43892 -1.14701,0.79438 -2.01645,2.01942 -3.07925,2.97203 -1.01976,0.94792 -1.68461,2.11957 -2.55417,3.17924 -0.7866,1.0595 -1.53226,2.07747 -2.02167,3.31231 -0.21657,0.084 -0.46938,1.08521 -0.62487,0.76359 z"
     style="fill:#df3939;fill-opacity:1;stroke-width:0.09084798" />
  <path
     id="path4823-3-6"
     d="m 501.82035,159.51305 c -0.6923,-1.66016 -1.73518,-3.21255 -2.82788,-4.66092 -0.69071,-1.25135 -1.83519,-2.27669 -2.79844,-3.35634 -1.31981,-1.42841 -2.7775,-2.68947 -4.31448,-3.86373 -0.99296,-0.8474 -2.17584,-1.46296 -3.30648,-2.13267 -0.87942,-0.21921 -2.49857,-0.97946 -0.88815,-1.67096 1.47496,-0.49801 2.48024,-1.48846 3.81002,-2.3852 1.14407,-0.42854 1.98426,-1.66086 3.02718,-2.36743 0.97478,-0.77689 1.7246,-1.77868 2.60595,-2.52064 0.73553,-1.15039 1.83772,-2.03578 2.45752,-3.27074 0.87171,-1.07222 1.55392,-2.34231 2.18718,-3.58982 0.6537,-0.65178 0.90493,1.58742 1.5386,2.01337 0.73535,1.25352 1.58302,2.42171 2.45541,3.57634 1.02191,1.0889 1.93349,2.31706 3.04978,3.25766 0.73281,1.04785 1.88455,1.56084 2.8504,2.49655 1.12169,0.80569 2.32517,1.55729 3.4817,2.30115 0.50125,0.40266 2.84331,1.07193 1.37307,1.50729 -2.21393,1.35925 -4.51385,2.63945 -6.42142,4.43892 -1.14701,0.79438 -2.01645,2.01942 -3.07925,2.97203 -1.01976,0.94792 -1.68462,2.11957 -2.55417,3.17924 -0.7866,1.0595 -1.53226,2.07747 -2.02167,3.31231 -0.21657,0.084 -0.46938,1.08521 -0.62487,0.76359 z"
     style="fill:#df3939;fill-opacity:1;stroke-width:0.09084798" />
  <path
     id="path4823-3-68"
     d="m 501.82035,953.51307 c -0.6923,-1.66016 -1.73518,-3.21252 -2.82788,-4.66091 -0.69071,-1.25137 -1.83519,-2.27668 -2.79844,-3.35634 -1.31981,-1.42839 -2.7775,-2.68947 -4.31448,-3.86373 -0.99296,-0.84741 -2.17584,-1.46294 -3.30648,-2.13268 -0.87942,-0.21921 -2.49857,-0.97946 -0.88815,-1.67096 1.47496,-0.49799 2.48024,-1.48846 3.81002,-2.38519 1.14407,-0.42852 1.98426,-1.66087 3.02718,-2.36742 0.97478,-0.77688 1.7246,-1.77868 2.60595,-2.52064 0.73553,-1.15041 1.83772,-2.03581 2.45752,-3.27077 0.87171,-1.07221 1.55392,-2.34228 2.18718,-3.58979 0.6537,-0.65178 0.90493,1.5874 1.5386,2.01335 0.73535,1.25352 1.58302,2.42174 2.45541,3.57634 1.02191,1.08892 1.93349,2.31708 3.04978,3.25765 0.73281,1.04788 1.88455,1.56087 2.8504,2.49657 1.12169,0.80568 2.32517,1.55728 3.4817,2.30113 0.50125,0.40267 2.84331,1.07195 1.37307,1.50731 -2.21393,1.35927 -4.51385,2.63944 -6.42142,4.43891 -1.14701,0.79438 -2.01645,2.01944 -3.07925,2.97203 -1.01976,0.94794 -1.68462,2.11959 -2.55417,3.17926 -0.7866,1.05948 -1.53226,2.07746 -2.02167,3.3123 -0.21657,0.0839 -0.46938,1.08522 -0.62487,0.76358 z"
     style="fill:#df3939;fill-opacity:1;stroke-width:0.09084798" />
  <path
     id="path4823-3-7"
     d="m 61.820326,953.51307 c -0.6923,-1.66016 -1.73518,-3.21256 -2.82788,-4.66091 -0.69071,-1.25137 -1.83519,-2.27671 -2.79844,-3.35637 -1.31981,-1.4284 -2.7775,-2.68944 -4.31448,-3.8637 -0.99296,-0.84741 -2.17584,-1.46298 -3.30648,-2.13268 -0.87942,-0.21921 -2.49857,-0.97946 -0.88815,-1.67096 1.47496,-0.49799 2.48024,-1.48846 3.81003,-2.38519 1.14406,-0.42856 1.98425,-1.66087 3.02717,-2.36746 0.97478,-0.77688 1.7246,-1.77868 2.60595,-2.52064 0.73553,-1.15037 1.83772,-2.03577 2.45752,-3.27073 0.87171,-1.07221 1.55392,-2.34232 2.18718,-3.58983 0.6537,-0.65178 0.90493,1.58744 1.5386,2.01339 0.73535,1.25352 1.58302,2.4217 2.45541,3.57634 1.02191,1.08889 1.9335,2.31704 3.04978,3.25765 0.73281,1.04784 1.88455,1.56084 2.85041,2.49657 1.12168,0.80568 2.32516,1.55728 3.4817,2.30113 0.50124,0.40267 2.8433,1.07195 1.37306,1.50727 -2.21393,1.35927 -4.51385,2.63948 -6.42142,4.43895 -1.14701,0.79438 -2.01645,2.0194 -3.07925,2.97203 -1.01976,0.9479 -1.68461,2.11956 -2.55417,3.17922 -0.7866,1.05952 -1.53226,2.0775 -2.02167,3.31234 -0.21657,0.0839 -0.46938,1.08518 -0.62487,0.76358 z"
     style="fill:#df3939;fill-opacity:1;stroke-width:0.09084798" />
  <path
     id="path4823"
     d="m 279.40111,579.36501 c -2.30771,-5.53388 -5.78393,-10.7085 -9.42637,-15.53639 -2.30226,-4.17119 -6.11724,-7.589 -9.32806,-11.18782 -4.39937,-4.76137 -9.25834,-8.96488 -14.38164,-12.8791 -3.30984,-2.82464 -7.25276,-4.87652 -11.02159,-7.10888 -2.93136,-0.73078 -8.32853,-3.26487 -2.96047,-5.56989 4.91645,-1.66001 8.26749,-4.96151 12.70009,-7.95064 3.81346,-1.42847 6.61417,-5.53621 10.0905,-7.89145 3.2493,-2.58961 5.74878,-5.92891 8.68649,-8.40212 2.45186,-3.83463 6.12578,-6.78593 8.19175,-10.90248 2.90578,-3.57407 5.17977,-7.8077 7.29067,-11.96606 2.17905,-2.1726 3.01637,5.2914 5.12871,6.71124 2.45106,4.17841 5.27663,8.07236 8.18464,11.92112 3.40637,3.62968 6.445,7.72353 10.16598,10.85887 2.44264,3.49285 6.2818,5.20279 9.50128,8.32185 3.73898,2.68562 7.75057,5.19093 11.60572,7.67047 1.67082,1.34221 9.47758,3.57312 4.57682,5.0243 -7.37979,4.53086 -15.04619,8.79819 -21.40475,14.79639 -3.82337,2.64796 -6.72144,6.73141 -10.26418,9.90679 -3.39915,3.15974 -5.61528,7.06524 -8.5138,10.59745 -2.62208,3.53169 -5.10754,6.9249 -6.73897,11.04105 -0.72197,0.27995 -1.56461,3.61734 -2.08282,2.5453 z"
     style="fill:#df3939;fill-opacity:1;stroke-width:0.30282655" />
</svg>
