<?xml version="1.0" encoding="UTF-8" standalone="no"?>
<svg
   xmlns:dc="http://purl.org/dc/elements/1.1/"
   xmlns:cc="http://creativecommons.org/ns#"
   xmlns:rdf="http://www.w3.org/1999/02/22-rdf-syntax-ns#"
   xmlns:svg="http://www.w3.org/2000/svg"
   xmlns="http://www.w3.org/2000/svg"
   version="1.1"
   id="svg2"
   width="560"
   height="1059.5765"
   viewBox="0 0 560 1059.5765">
  <metadata
     id="metadata8">
    <rdf:RDF>
      <cc:Work
         rdf:about="">
        <dc:format>image/svg+xml</dc:format>
        <dc:type
           rdf:resource="http://purl.org/dc/dcmitype/StillImage" />
        <dc:title></dc:title>
      </cc:Work>
    </rdf:RDF>
  </metadata>
  <defs
     id="defs6" />
  <text
     id="text4955"
     y="109.57654"
     x="40.588543"
     style="font-style:normal;font-variant:normal;font-weight:normal;font-stretch:normal;font-size:69.33333588px;line-height:1.25;font-family:Rose;-inkscape-font-specification:Rose;letter-spacing:0px;word-spacing:0px;fill:#df3939;fill-opacity:1;stroke:none;"
     xml:space="preserve"><tspan
       y="109.57654"
       x="40.588543"
       id="tspan4953"
       style="fill:#df3939;fill-opacity:1;">2</tspan></text>
  <text
     id="text4955-6"
     y="109.57654"
     x="480.58868"
     style="font-style:normal;font-variant:normal;font-weight:normal;font-stretch:normal;font-size:69.33216858px;line-height:1.25;font-family:Rose;-inkscape-font-specification:Rose;letter-spacing:0px;word-spacing:0px;fill:#df3939;fill-opacity:1;stroke:none;stroke-width:0.99998319;"
     xml:space="preserve"><tspan
       style="stroke-width:0.99998319;fill:#df3939;fill-opacity:1;"
       y="109.57654"
       x="480.58868"
       id="tspan4953-2">2</tspan></text>
  <text
     transform="scale(-1)"
     id="text4955-3"
     y="-968.99841"
     x="-85.614586"
     style="font-style:normal;font-variant:normal;font-weight:normal;font-stretch:normal;font-size:69.33333588px;line-height:1.25;font-family:Rose;-inkscape-font-specification:Rose;letter-spacing:0px;word-spacing:0px;fill:#df3939;fill-opacity:1;stroke:none"
     xml:space="preserve"><tspan
       y="-968.99841"
       x="-85.614586"
       id="tspan4953-7"
       style="fill:#df3939;fill-opacity:1">2</tspan></text>
  <text
     transform="scale(-1)"
     id="text4955-6-2"
     y="-968.99841"
     x="-525.61395"
     style="font-style:normal;font-variant:normal;font-weight:normal;font-stretch:normal;font-size:69.33216858px;line-height:1.25;font-family:Rose;-inkscape-font-specification:Rose;letter-spacing:0px;word-spacing:0px;fill:#df3939;fill-opacity:1;stroke:none;stroke-width:0.99998319"
     xml:space="preserve"><tspan
       style="fill:#df3939;fill-opacity:1;stroke-width:0.99998319"
       y="-968.99841"
       x="-525.61395"
       id="tspan4953-2-7">2</tspan></text>
  <path
     id="path4823"
     d="m 279.4011,379.36501 c -2.3077,-5.53388 -5.78392,-10.7085 -9.42636,-15.5364 -2.30227,-4.17118 -6.11725,-7.58899 -9.32807,-11.18782 -4.39937,-4.76136 -9.25833,-8.96487 -14.38163,-12.8791 -3.30984,-2.82464 -7.25276,-4.87652 -11.02159,-7.10887 -2.93137,-0.73078 -8.32853,-3.26488 -2.96047,-5.5699 4.91645,-1.66001 8.26749,-4.96151 12.70008,-7.95064 3.81347,-1.42847 6.61418,-5.53621 10.09051,-7.89145 3.2493,-2.58961 5.74878,-5.92891 8.68649,-8.40211 2.45185,-3.83464 6.12578,-6.78593 8.19175,-10.90249 2.90577,-3.57406 5.17976,-7.80769 7.29067,-11.96605 2.17905,-2.17261 3.01636,5.2914 5.1287,6.71124 2.45106,4.17841 5.27664,8.07236 8.18465,11.92112 3.40637,3.62967 6.445,7.72353 10.16598,10.85886 2.44263,3.49285 6.2818,5.20279 9.50128,8.32185 3.73897,2.68562 7.75056,5.19093 11.60572,7.67047 1.67081,1.34221 9.47758,3.57313 4.57682,5.0243 -7.37979,4.53086 -15.04619,8.79819 -21.40475,14.79639 -3.82337,2.64797 -6.72144,6.73141 -10.26418,9.90679 -3.39915,3.15975 -5.61528,7.06524 -8.5138,10.59746 -2.62209,3.53168 -5.10754,6.9249 -6.73897,11.04104 -0.72197,0.27995 -1.56461,3.61734 -2.08283,2.54531 z"
     style="fill:#df3939;fill-opacity:1;stroke-width:0.30282655" />
  <path
     id="path4823-6"
     d="m 279.4011,779.36501 c -2.3077,-5.53388 -5.78392,-10.7085 -9.42637,-15.53639 -2.30226,-4.17119 -6.11724,-7.589 -9.32806,-11.18783 -4.39937,-4.76136 -9.25833,-8.96487 -14.38163,-12.87909 -3.30985,-2.82465 -7.25276,-4.87653 -11.0216,-7.10888 -2.93136,-0.73078 -8.32852,-3.26487 -2.96046,-5.56989 4.91645,-1.66001 8.26749,-4.96151 12.70008,-7.95064 3.81347,-1.42847 6.61417,-5.53622 10.09051,-7.89145 3.24929,-2.58962 5.74877,-5.92892 8.68649,-8.40212 2.45185,-3.83463 6.12578,-6.78593 8.19174,-10.90248 2.90578,-3.57407 5.17977,-7.8077 7.29067,-11.96606 2.17905,-2.1726 3.01637,5.2914 5.12871,6.71124 2.45106,4.17841 5.27664,8.07236 8.18464,11.92112 3.40638,3.62967 6.445,7.72353 10.16599,10.85886 2.44263,3.49285 6.2818,5.2028 9.50128,8.32185 3.73897,2.68563 7.75056,5.19094 11.60572,7.67048 1.67081,1.3422 9.47757,3.57312 4.57681,5.0243 -7.37979,4.53086 -15.04618,8.79818 -21.40475,14.79639 -3.82337,2.64796 -6.72143,6.73141 -10.26417,9.90678 -3.39916,3.15975 -5.61528,7.06524 -8.5138,10.59746 -2.62209,3.53168 -5.10754,6.9249 -6.73898,11.04105 -0.72196,0.27995 -1.56461,3.61734 -2.08282,2.5453 z"
     style="fill:#df3939;fill-opacity:1;stroke-width:0.30282655" />
  <path
     id="path4823-3"
     d="m 61.820326,159.51306 c -0.69229,-1.66017 -1.73518,-3.21256 -2.82788,-4.66093 -0.6907,-1.25135 -1.83518,-2.27669 -2.79843,-3.35634 -1.31982,-1.42841 -2.7775,-2.68946 -4.31449,-3.86373 -0.99295,-0.84739 -2.17583,-1.46296 -3.30648,-2.13266 -0.87942,-0.21922 -2.49857,-0.97947 -0.88815,-1.67097 1.47496,-0.498 2.48024,-1.48846 3.81003,-2.38519 1.14406,-0.42855 1.98425,-1.66087 3.02717,-2.36744 0.97478,-0.77688 1.7246,-1.77868 2.60595,-2.52063 0.73553,-1.15039 1.83772,-2.03579 2.45752,-3.27075 0.87172,-1.07222 1.55392,-2.34231 2.18718,-3.58982 0.65371,-0.65178 0.90493,1.58742 1.53861,2.01337 0.73534,1.25353 1.58302,2.42171 2.45541,3.57634 1.0219,1.0889 1.93349,2.31706 3.04977,3.25766 0.73281,1.04785 1.88455,1.56084 2.85041,2.49655 1.12169,0.80569 2.32516,1.55729 3.4817,2.30115 0.50124,0.40266 2.8433,1.07194 1.37306,1.50729 -2.21393,1.35926 -4.51385,2.63945 -6.42141,4.43892 -1.14701,0.79439 -2.01646,2.01942 -3.07926,2.97203 -1.01975,0.94793 -1.68461,2.11958 -2.55417,3.17924 -0.78659,1.05951 -1.53226,2.07747 -2.02167,3.31231 -0.21656,0.084 -0.46938,1.08521 -0.62487,0.7636 z"
     style="fill:#df3939;fill-opacity:1;stroke-width:0.09084798" />
  <path
     id="path4823-3-6"
     d="m 501.82036,159.51306 c -0.6923,-1.66017 -1.73518,-3.21256 -2.82788,-4.66093 -0.69071,-1.25135 -1.83519,-2.27669 -2.79844,-3.35634 -1.31981,-1.42841 -2.7775,-2.68946 -4.31448,-3.86373 -0.99296,-0.84739 -2.17584,-1.46296 -3.30648,-2.13266 -0.87942,-0.21922 -2.49857,-0.97947 -0.88815,-1.67097 1.47496,-0.498 2.48024,-1.48846 3.81002,-2.38519 1.14407,-0.42855 1.98426,-1.66087 3.02718,-2.36744 0.97478,-0.77688 1.7246,-1.77868 2.60595,-2.52063 0.73553,-1.15039 1.83772,-2.03579 2.45752,-3.27075 0.87171,-1.07222 1.55392,-2.34231 2.18718,-3.58982 0.6537,-0.65178 0.90493,1.58742 1.5386,2.01337 0.73535,1.25353 1.58302,2.42171 2.45541,3.57634 1.02191,1.0889 1.93349,2.31706 3.04978,3.25766 0.73281,1.04785 1.88455,1.56084 2.8504,2.49655 1.12169,0.80569 2.32517,1.55729 3.4817,2.30115 0.50125,0.40266 2.84331,1.07194 1.37307,1.50729 -2.21393,1.35926 -4.51385,2.63945 -6.42142,4.43892 -1.14701,0.79439 -2.01645,2.01942 -3.07925,2.97203 -1.01976,0.94793 -1.68462,2.11958 -2.55417,3.17924 -0.7866,1.05951 -1.53226,2.07747 -2.02167,3.31231 -0.21657,0.084 -0.46938,1.08521 -0.62487,0.7636 z"
     style="fill:#df3939;fill-opacity:1;stroke-width:0.09084798" />
  <path
     id="path4823-3-68"
     d="m 501.82036,953.51308 c -0.6923,-1.6602 -1.73518,-3.2125 -2.82788,-4.6609 -0.69071,-1.2514 -1.83519,-2.2767 -2.79844,-3.3564 -1.31981,-1.4284 -2.7775,-2.6894 -4.31448,-3.8637 -0.99296,-0.8474 -2.17584,-1.4629 -3.30648,-2.1327 -0.87942,-0.2192 -2.49857,-0.9794 -0.88815,-1.6709 1.47496,-0.498 2.48024,-1.4885 3.81002,-2.3852 1.14407,-0.4285 1.98426,-1.6609 3.02718,-2.3674 0.97478,-0.7769 1.7246,-1.7787 2.60595,-2.5207 0.73553,-1.1504 1.83772,-2.0358 2.45752,-3.2708 0.87171,-1.0722 1.55392,-2.3422 2.18718,-3.5897 0.6537,-0.6518 0.90493,1.5874 1.5386,2.0133 0.73535,1.2535 1.58302,2.4217 2.45541,3.5763 1.02191,1.089 1.93349,2.3171 3.04978,3.2577 0.73281,1.0479 1.88455,1.5609 2.8504,2.4966 1.12169,0.8056 2.32517,1.5572 3.4817,2.3011 0.50125,0.4027 2.84331,1.0719 1.37307,1.5073 -2.21393,1.3593 -4.51385,2.6394 -6.42142,4.4389 -1.14701,0.7944 -2.01645,2.0195 -3.07925,2.972 -1.01976,0.948 -1.68462,2.1196 -2.55417,3.1793 -0.7866,1.0595 -1.53226,2.0775 -2.02167,3.3123 -0.21657,0.084 -0.46938,1.0852 -0.62487,0.7636 z"
     style="fill:#df3939;fill-opacity:1;stroke-width:0.09084798" />
  <path
     id="path4823-3-7"
     d="m 61.820326,953.51308 c -0.69229,-1.6602 -1.73518,-3.2126 -2.82788,-4.6609 -0.6907,-1.2514 -1.83518,-2.2767 -2.79843,-3.3564 -1.31982,-1.4284 -2.7775,-2.6894 -4.31449,-3.8637 -0.99295,-0.8474 -2.17583,-1.463 -3.30648,-2.1327 -0.87942,-0.2192 -2.49857,-0.9794 -0.88815,-1.6709 1.47496,-0.498 2.48024,-1.4885 3.81003,-2.3852 1.14406,-0.4286 1.98425,-1.6609 3.02717,-2.3675 0.97478,-0.7769 1.7246,-1.7787 2.60595,-2.5206 0.73553,-1.1504 1.83772,-2.0358 2.45752,-3.2708 0.87172,-1.0722 1.55392,-2.3423 2.18718,-3.5898 0.65371,-0.6518 0.90493,1.5875 1.53861,2.0134 0.73534,1.2535 1.58302,2.4217 2.45541,3.5763 1.0219,1.0889 1.93349,2.3171 3.04977,3.2577 0.73281,1.0478 1.88455,1.5608 2.85041,2.4966 1.12169,0.8056 2.32516,1.5572 3.4817,2.3011 0.50124,0.4027 2.8433,1.0719 1.37306,1.5073 -2.21393,1.3592 -4.51385,2.6394 -6.42141,4.4389 -1.14701,0.7944 -2.01646,2.0194 -3.07926,2.972 -1.01975,0.9479 -1.68461,2.1196 -2.55417,3.1793 -0.78659,1.0595 -1.53226,2.0775 -2.02167,3.3123 -0.21656,0.084 -0.46938,1.0852 -0.62487,0.7636 z"
     style="fill:#df3939;fill-opacity:1;stroke-width:0.09084798" />
</svg>
