<?xml version="1.0" encoding="UTF-8" standalone="no"?>
<svg
   xmlns:dc="http://purl.org/dc/elements/1.1/"
   xmlns:cc="http://creativecommons.org/ns#"
   xmlns:rdf="http://www.w3.org/1999/02/22-rdf-syntax-ns#"
   xmlns:svg="http://www.w3.org/2000/svg"
   xmlns="http://www.w3.org/2000/svg"
   version="1.1"
   id="svg2"
   width="560"
   height="1059.5765"
   viewBox="0 0 560 1059.5765">
  <metadata
     id="metadata8">
    <rdf:RDF>
      <cc:Work
         rdf:about="">
        <dc:format>image/svg+xml</dc:format>
        <dc:type
           rdf:resource="http://purl.org/dc/dcmitype/StillImage" />
        <dc:title></dc:title>
      </cc:Work>
    </rdf:RDF>
  </metadata>
  <defs
     id="defs6" />
  <text
     id="text4955"
     y="109.57654"
     x="40.588543"
     style="font-style:normal;font-variant:normal;font-weight:normal;font-stretch:normal;font-size:69.33333588px;line-height:1.25;font-family:Rose;-inkscape-font-specification:Rose;letter-spacing:0px;word-spacing:0px;fill:#df3939;fill-opacity:1;stroke:none;"
     xml:space="preserve"><tspan
       y="109.57654"
       x="40.588543"
       id="tspan4953"
       style="fill:#df3939;fill-opacity:1;">5</tspan></text>
  <text
     id="text4955-6"
     y="109.57654"
     x="480.58868"
     style="font-style:normal;font-variant:normal;font-weight:normal;font-stretch:normal;font-size:69.33216858px;line-height:1.25;font-family:Rose;-inkscape-font-specification:Rose;letter-spacing:0px;word-spacing:0px;fill:#df3939;fill-opacity:1;stroke:none;stroke-width:0.99998319;"
     xml:space="preserve"><tspan
       style="stroke-width:0.99998319;fill:#df3939;fill-opacity:1;"
       y="109.57654"
       x="480.58868"
       id="tspan4953-2">5</tspan></text>
  <text
     transform="scale(-1)"
     id="text4955-3"
     y="-968.99841"
     x="-86.088547"
     style="font-style:normal;font-variant:normal;font-weight:normal;font-stretch:normal;font-size:69.33333588px;line-height:1.25;font-family:Rose;-inkscape-font-specification:Rose;letter-spacing:0px;word-spacing:0px;fill:#df3939;fill-opacity:1;stroke:none;"
     xml:space="preserve"><tspan
       y="-968.99841"
       x="-86.088547"
       id="tspan4953-7"
       style="fill:#df3939;fill-opacity:1;">5</tspan></text>
  <text
     transform="scale(-1)"
     id="text4955-6-2"
     y="-968.99841"
     x="-526.08789"
     style="font-style:normal;font-variant:normal;font-weight:normal;font-stretch:normal;font-size:69.33216858px;line-height:1.25;font-family:Rose;-inkscape-font-specification:Rose;letter-spacing:0px;word-spacing:0px;fill:#df3939;fill-opacity:1;stroke:none;stroke-width:0.99998319;"
     xml:space="preserve"><tspan
       style="stroke-width:0.99998319;fill:#df3939;fill-opacity:1;"
       y="-968.99841"
       x="-526.08789"
       id="tspan4953-2-7">5</tspan></text>
  <path
     id="path4823-3"
     d="m 61.820329,159.51305 c -0.692297,-1.66016 -1.735182,-3.21255 -2.827881,-4.66092 -0.690708,-1.25135 -1.835187,-2.2767 -2.798438,-3.35634 -1.319811,-1.42841 -2.777499,-2.68947 -4.314482,-3.86374 -0.992957,-0.84739 -2.175836,-1.46295 -3.306482,-2.13266 -0.87942,-0.21921 -2.49857,-0.97946 -0.888151,-1.67096 1.474961,-0.49801 2.48024,-1.48846 3.810029,-2.3852 1.144063,-0.42854 1.984252,-1.66086 3.027174,-2.36743 0.974778,-0.77689 1.724599,-1.77868 2.605947,-2.52064 0.735534,-1.15039 1.83772,-2.03578 2.457524,-3.27074 0.871711,-1.07223 1.553915,-2.34231 2.187175,-3.58982 0.653707,-0.65178 0.904933,1.58742 1.538608,2.01337 0.735345,1.25352 1.583018,2.42171 2.455408,3.57634 1.021909,1.0889 1.933493,2.31706 3.049777,3.25766 0.732812,1.04785 1.884548,1.56083 2.850406,2.49655 1.121688,0.80569 2.325165,1.55728 3.481701,2.30114 0.501241,0.40267 2.8433,1.07194 1.373064,1.50729 -2.213934,1.35926 -4.513852,2.63946 -6.421417,4.43892 -1.147011,0.79439 -2.016454,2.01942 -3.079257,2.97204 -1.019754,0.94792 -1.684611,2.11957 -2.554167,3.17924 -0.786595,1.0595 -1.532258,2.07747 -2.021669,3.31231 -0.216567,0.084 -0.46938,1.0852 -0.624869,0.76359 z"
     style="fill:#df3939;fill-opacity:1;stroke-width:0.09084798" />
  <path
     id="path4823-3-6"
     d="m 501.82035,159.51305 c -0.6923,-1.66016 -1.73518,-3.21255 -2.82788,-4.66092 -0.69071,-1.25135 -1.83519,-2.2767 -2.79844,-3.35634 -1.31981,-1.42841 -2.7775,-2.68947 -4.31448,-3.86374 -0.99296,-0.84739 -2.17584,-1.46295 -3.30648,-2.13266 -0.87942,-0.21921 -2.49857,-0.97946 -0.88815,-1.67096 1.47496,-0.49801 2.48024,-1.48846 3.81002,-2.3852 1.14407,-0.42854 1.98426,-1.66086 3.02718,-2.36743 0.97478,-0.77689 1.7246,-1.77868 2.60595,-2.52064 0.73553,-1.15039 1.83772,-2.03578 2.45752,-3.27074 0.87171,-1.07223 1.55392,-2.34231 2.18718,-3.58982 0.6537,-0.65178 0.90493,1.58742 1.5386,2.01337 0.73535,1.25352 1.58302,2.42171 2.45541,3.57634 1.02191,1.0889 1.93349,2.31706 3.04978,3.25766 0.73281,1.04785 1.88455,1.56083 2.8504,2.49655 1.12169,0.80569 2.32517,1.55728 3.4817,2.30114 0.50125,0.40267 2.84331,1.07194 1.37307,1.50729 -2.21393,1.35926 -4.51385,2.63946 -6.42142,4.43892 -1.14701,0.79439 -2.01645,2.01942 -3.07925,2.97204 -1.01976,0.94792 -1.68462,2.11957 -2.55417,3.17924 -0.7866,1.0595 -1.53226,2.07747 -2.02167,3.31231 -0.21657,0.084 -0.46938,1.0852 -0.62487,0.76359 z"
     style="fill:#df3939;fill-opacity:1;stroke-width:0.09084798" />
  <path
     id="path4823-3-68"
     d="m 501.82035,953.51307 c -0.6923,-1.66016 -1.73518,-3.21252 -2.82788,-4.66091 -0.69071,-1.25137 -1.83519,-2.27668 -2.79844,-3.35634 -1.31981,-1.42839 -2.7775,-2.68947 -4.31448,-3.86373 -0.99296,-0.84741 -2.17584,-1.46294 -3.30648,-2.13268 -0.87942,-0.21921 -2.49857,-0.97946 -0.88815,-1.67096 1.47496,-0.49799 2.48024,-1.48846 3.81002,-2.38519 1.14407,-0.42852 1.98426,-1.66087 3.02718,-2.36742 0.97478,-0.77688 1.7246,-1.77868 2.60595,-2.52064 0.73553,-1.15041 1.83772,-2.03581 2.45752,-3.27077 0.87171,-1.07221 1.55392,-2.34228 2.18718,-3.58979 0.6537,-0.65178 0.90493,1.5874 1.5386,2.01335 0.73535,1.25352 1.58302,2.42174 2.45541,3.57634 1.02191,1.08892 1.93349,2.31708 3.04978,3.25765 0.73281,1.04788 1.88455,1.56087 2.8504,2.49657 1.12169,0.80568 2.32517,1.55728 3.4817,2.30113 0.50125,0.40267 2.84331,1.07195 1.37307,1.50731 -2.21393,1.35927 -4.51385,2.63944 -6.42142,4.43891 -1.14701,0.79438 -2.01645,2.01944 -3.07925,2.97203 -1.01976,0.94794 -1.68462,2.11959 -2.55417,3.17926 -0.7866,1.05948 -1.53226,2.07746 -2.02167,3.3123 -0.21657,0.0839 -0.46938,1.08522 -0.62487,0.76358 z"
     style="fill:#df3939;fill-opacity:1;stroke-width:0.09084798" />
  <path
     id="path4823-3-7"
     d="m 61.820329,953.51307 c -0.692297,-1.66016 -1.735182,-3.21256 -2.827881,-4.66091 -0.690708,-1.25137 -1.835187,-2.27671 -2.798438,-3.35637 -1.319811,-1.4284 -2.777499,-2.68944 -4.314482,-3.8637 -0.992957,-0.84741 -2.175836,-1.46298 -3.306482,-2.13268 -0.87942,-0.21921 -2.49857,-0.97946 -0.888151,-1.67096 1.474961,-0.49799 2.48024,-1.48846 3.810029,-2.38519 1.144063,-0.42856 1.984252,-1.66087 3.027174,-2.36746 0.974778,-0.77688 1.724599,-1.77868 2.605947,-2.52064 0.735534,-1.15037 1.83772,-2.03577 2.457524,-3.27073 0.871711,-1.07221 1.553915,-2.34232 2.187175,-3.58983 0.653707,-0.65178 0.904933,1.58744 1.538608,2.01339 0.735345,1.25352 1.583018,2.4217 2.455408,3.57634 1.021909,1.08889 1.933493,2.31704 3.049777,3.25765 0.732812,1.04784 1.884548,1.56084 2.850406,2.49657 1.121688,0.80568 2.325165,1.55728 3.481701,2.30113 0.501241,0.40267 2.8433,1.07195 1.373064,1.50727 -2.213934,1.35927 -4.513852,2.63948 -6.421417,4.43895 -1.147011,0.79438 -2.016454,2.0194 -3.079257,2.97203 -1.019754,0.9479 -1.684611,2.11956 -2.554167,3.17922 -0.786595,1.05952 -1.532258,2.0775 -2.021669,3.31234 -0.216567,0.0839 -0.46938,1.08518 -0.624869,0.76358 z"
     style="fill:#df3939;fill-opacity:1;stroke-width:0.09084798" />
  <path
     id="path4823"
     d="m 379.40111,379.36501 c -2.3077,-5.53388 -5.78393,-10.7085 -9.42637,-15.53639 -2.30226,-4.17119 -6.11724,-7.589 -9.32806,-11.18782 -4.39937,-4.76137 -9.25833,-8.96488 -14.38163,-12.8791 -3.30985,-2.82464 -7.25277,-4.87652 -11.0216,-7.10888 -2.93136,-0.73078 -8.32853,-3.26487 -2.96046,-5.56989 4.91644,-1.66001 8.26749,-4.96151 12.70008,-7.95064 3.81347,-1.42847 6.61417,-5.53621 10.09051,-7.89145 3.24929,-2.58961 5.74877,-5.92891 8.68648,-8.40212 2.45186,-3.83463 6.12579,-6.78593 8.19175,-10.90248 2.90578,-3.57407 5.17977,-7.8077 7.29067,-11.96606 2.17905,-2.1726 3.01637,5.2914 5.12871,6.71124 2.45106,4.17841 5.27663,8.07236 8.18464,11.92112 3.40638,3.62968 6.445,7.72353 10.16599,10.85887 2.44263,3.49285 6.2818,5.20279 9.50127,8.32185 3.73898,2.68562 7.75057,5.19093 11.60572,7.67047 1.67082,1.34221 9.47758,3.57312 4.57682,5.0243 -7.37979,4.53086 -15.04618,8.79819 -21.40475,14.79639 -3.82337,2.64796 -6.72143,6.73141 -10.26417,9.90679 -3.39916,3.15974 -5.61529,7.06524 -8.51381,10.59745 -2.62208,3.53169 -5.10754,6.9249 -6.73897,11.04105 -0.72196,0.27995 -1.56461,3.61734 -2.08282,2.5453 z"
     style="fill:#df3939;fill-opacity:1;stroke-width:0.30282655" />
  <path
     id="path4823-5"
     d="m 179.40111,379.36501 c -2.30771,-5.53388 -5.78393,-10.7085 -9.42637,-15.5364 -2.30226,-4.17118 -6.11724,-7.58899 -9.32806,-11.18782 -4.39937,-4.76136 -9.25833,-8.96487 -14.38163,-12.8791 -3.30985,-2.82464 -7.25277,-4.87652 -11.0216,-7.10887 -2.93136,-0.73078 -8.32853,-3.26487 -2.96046,-5.5699 4.91644,-1.66001 8.26748,-4.96151 12.70008,-7.95064 3.81346,-1.42846 6.61417,-5.53621 10.0905,-7.89145 3.2493,-2.58961 5.74878,-5.92891 8.68649,-8.40211 2.45186,-3.83464 6.12579,-6.78593 8.19175,-10.90248 2.90578,-3.57407 5.17977,-7.8077 7.29067,-11.96606 2.17905,-2.17261 3.01637,5.2914 5.12871,6.71124 2.45106,4.17841 5.27663,8.07236 8.18464,11.92112 3.40637,3.62967 6.445,7.72353 10.16598,10.85886 2.44264,3.49285 6.28181,5.20279 9.50128,8.32185 3.73898,2.68563 7.75057,5.19094 11.60572,7.67048 1.67082,1.3422 9.47758,3.57312 4.57682,5.0243 -7.37979,4.53086 -15.04618,8.79818 -21.40475,14.79638 -3.82337,2.64797 -6.72143,6.73142 -10.26417,9.90679 -3.39916,3.15975 -5.61529,7.06524 -8.51381,10.59746 -2.62208,3.53168 -5.10754,6.9249 -6.73897,11.04105 -0.72196,0.27994 -1.56461,3.61734 -2.08282,2.5453 z"
     style="fill:#df3939;fill-opacity:1;stroke-width:0.30282655" />
  <path
     id="path4823-58"
     d="m 279.40111,579.36501 c -2.30771,-5.53388 -5.78393,-10.7085 -9.42637,-15.53639 -2.30226,-4.17119 -6.11724,-7.589 -9.32806,-11.18783 -4.39937,-4.76136 -9.25833,-8.96487 -14.38163,-12.87909 -3.30985,-2.82465 -7.25277,-4.87653 -11.0216,-7.10888 -2.93136,-0.73078 -8.32853,-3.26487 -2.96046,-5.56989 4.91644,-1.66001 8.26748,-4.96151 12.70008,-7.95064 3.81346,-1.42847 6.61417,-5.53622 10.0905,-7.89145 3.2493,-2.58962 5.74878,-5.92892 8.68649,-8.40212 2.45186,-3.83463 6.12579,-6.78593 8.19175,-10.90248 2.90578,-3.57407 5.17977,-7.8077 7.29067,-11.96606 2.17905,-2.1726 3.01637,5.2914 5.12871,6.71124 2.45106,4.17841 5.27663,8.07236 8.18464,11.92112 3.40637,3.62967 6.445,7.72353 10.16598,10.85886 2.44264,3.49285 6.28181,5.2028 9.50128,8.32185 3.73898,2.68563 7.75057,5.19094 11.60572,7.67048 1.67082,1.3422 9.47758,3.57312 4.57682,5.0243 -7.37979,4.53086 -15.04618,8.79818 -21.40475,14.79639 -3.82337,2.64796 -6.72143,6.73141 -10.26417,9.90678 -3.39916,3.15975 -5.61529,7.06524 -8.51381,10.59746 -2.62208,3.53168 -5.10754,6.9249 -6.73897,11.04105 -0.72196,0.27995 -1.56461,3.61734 -2.08282,2.5453 z"
     style="fill:#df3939;fill-opacity:1;stroke-width:0.30282655" />
  <path
     id="path4823-6"
     d="m 179.40111,779.36501 c -2.3077,-5.53388 -5.78393,-10.7085 -9.42637,-15.5364 -2.30226,-4.17118 -6.11724,-7.58899 -9.32806,-11.18782 -4.39937,-4.76136 -9.25833,-8.96487 -14.38163,-12.8791 -3.30985,-2.82464 -7.25277,-4.87652 -11.0216,-7.10887 -2.93136,-0.73078 -8.32853,-3.26487 -2.96046,-5.5699 4.91644,-1.66001 8.26748,-4.96151 12.70008,-7.95064 3.81347,-1.42846 6.61417,-5.53621 10.09051,-7.89145 3.24929,-2.58961 5.74877,-5.92891 8.68648,-8.40211 2.45186,-3.83464 6.12579,-6.78593 8.19175,-10.90248 2.90578,-3.57407 5.17977,-7.8077 7.29067,-11.96606 2.17905,-2.1726 3.01637,5.2914 5.12871,6.71124 2.45106,4.17841 5.27663,8.07236 8.18464,11.92112 3.40638,3.62967 6.445,7.72353 10.16599,10.85886 2.44263,3.49285 6.2818,5.20279 9.50127,8.32185 3.73898,2.68563 7.75057,5.19094 11.60572,7.67048 1.67082,1.3422 9.47758,3.57312 4.57682,5.0243 -7.37979,4.53086 -15.04618,8.79818 -21.40475,14.79638 -3.82337,2.64797 -6.72143,6.73142 -10.26417,9.90679 -3.39916,3.15975 -5.61529,7.06524 -8.51381,10.59746 -2.62208,3.53168 -5.10754,6.9249 -6.73897,11.04105 -0.72196,0.27994 -1.56461,3.61734 -2.08282,2.5453 z"
     style="fill:#df3939;fill-opacity:1;stroke-width:0.30282655" />
  <path
     id="path4823-7"
     d="m 379.40111,779.36501 c -2.30771,-5.53387 -5.78393,-10.7085 -9.42637,-15.53639 -2.30226,-4.17119 -6.11724,-7.58899 -9.32807,-11.18782 -4.39937,-4.76136 -9.25833,-8.96487 -14.38163,-12.8791 -3.30984,-2.82464 -7.25276,-4.87652 -11.02159,-7.10888 -2.93136,-0.73078 -8.32853,-3.26487 -2.96047,-5.56989 4.91645,-1.66001 8.26749,-4.96151 12.70009,-7.95064 3.81346,-1.42847 6.61417,-5.53621 10.0905,-7.89145 3.2493,-2.58961 5.74878,-5.92891 8.68649,-8.40211 2.45186,-3.83464 6.12578,-6.78594 8.19175,-10.90249 2.90578,-3.57407 5.17977,-7.80769 7.29067,-11.96606 2.17905,-2.1726 3.01637,5.2914 5.12871,6.71124 2.45106,4.17842 5.27663,8.07236 8.18464,11.92113 3.40637,3.62967 6.445,7.72352 10.16598,10.85886 2.44264,3.49285 6.2818,5.20279 9.50128,8.32185 3.73897,2.68562 7.75056,5.19093 11.60572,7.67047 1.67082,1.34221 9.47758,3.57312 4.57682,5.0243 -7.37979,4.53086 -15.04619,8.79819 -21.40475,14.79639 -3.82337,2.64796 -6.72144,6.73141 -10.26418,9.90679 -3.39915,3.15974 -5.61528,7.06524 -8.5138,10.59746 -2.62208,3.53168 -5.10754,6.9249 -6.73897,11.04104 -0.72197,0.27995 -1.56461,3.61734 -2.08282,2.5453 z"
     style="fill:#df3939;fill-opacity:1;stroke-width:0.30282655" />
</svg>
