<?xml version="1.0" encoding="UTF-8" standalone="no"?>
<svg
   xmlns:dc="http://purl.org/dc/elements/1.1/"
   xmlns:cc="http://creativecommons.org/ns#"
   xmlns:rdf="http://www.w3.org/1999/02/22-rdf-syntax-ns#"
   xmlns:svg="http://www.w3.org/2000/svg"
   xmlns="http://www.w3.org/2000/svg"
   viewBox="0 0 560 1059.5765"
   height="1059.5765"
   width="560"
   id="svg2"
   version="1.1">
  <metadata
     id="metadata8">
    <rdf:RDF>
      <cc:Work
         rdf:about="">
        <dc:format>image/svg+xml</dc:format>
        <dc:type
           rdf:resource="http://purl.org/dc/dcmitype/StillImage" />
        <dc:title></dc:title>
      </cc:Work>
    </rdf:RDF>
  </metadata>
  <defs
     id="defs6" />
  <path
     style="fill:#000000;fill-opacity:1;stroke-width:0.29551065"
     d="m 165.74726,379.44872 c 2.37524,-3.68201 5.39161,-6.98397 7.06552,-11.17264 2.10561,-3.19033 3.67673,-8.15902 4.03586,-11.22433 -3.74461,2.94851 -7.01001,6.68712 -11.71873,8.15626 -4.32748,2.27281 -9.24011,2.28868 -13.98437,1.74237 -4.76768,-0.80618 -9.43079,-2.61049 -13.14519,-5.80286 -4.02433,-4.08023 -7.76081,-9.19172 -7.8296,-15.1999 -1.0792,-8.54908 3.11123,-16.85448 8.22463,-23.39187 6.50809,-7.5788 14.50507,-13.71374 23.37007,-18.23149 5.99701,-3.54654 11.86341,-7.82676 15.22295,-14.15378 0.50159,-2.94224 4.19604,-6.41981 3.94526,-8.22319 -0.85538,-3.3272 2.50201,-3.09566 1.33187,0.33865 1.86444,5.37715 4.5967,10.55993 8.78317,14.54323 5.49158,5.21928 12.4704,8.51488 18.08606,13.61601 5.46471,4.30661 10.6026,9.11845 14.23132,15.13762 3.00378,3.89189 4.56941,8.64354 6.17299,13.20385 1.72558,8.52906 -1.45304,17.88906 -8.53852,23.04651 -4.14909,3.81731 -9.86404,5.29045 -15.34673,5.50061 -5.74122,0.0208 -11.70494,-1.15672 -16.14059,-5.07511 -2.82497,-0.41796 -5.66536,-7.83746 -7.41041,-5.46722 0.78645,5.73084 3.54123,11.03086 6.58126,15.88603 0.40429,2.03216 8.09223,8.38844 2.50488,6.57863 -4.38777,-2.34579 -9.43128,-2.80917 -14.29939,-2.17586 -3.89299,-0.57486 -7.99597,2.24161 -11.14231,2.36847 z"
     id="path4806" />
  <text
     xml:space="preserve"
     style="font-style:normal;font-variant:normal;font-weight:normal;font-stretch:normal;font-size:69.33333588px;line-height:1.25;font-family:Rose;-inkscape-font-specification:Rose;letter-spacing:0px;word-spacing:0px;fill:#000000;fill-opacity:1;stroke:none"
     x="40.588543"
     y="109.57654"
     id="text4955"><tspan
       id="tspan4953"
       x="40.588543"
       y="109.57654">6</tspan></text>
  <text
     xml:space="preserve"
     style="font-style:normal;font-variant:normal;font-weight:normal;font-stretch:normal;font-size:69.33216858px;line-height:1.25;font-family:Rose;-inkscape-font-specification:Rose;letter-spacing:0px;word-spacing:0px;fill:#000000;fill-opacity:1;stroke:none;stroke-width:0.99998319"
     x="480.58868"
     y="109.57654"
     id="text4955-6"><tspan
       id="tspan4953-2"
       x="480.58868"
       y="109.57654"
       style="stroke-width:0.99998319">6</tspan></text>
  <text
     xml:space="preserve"
     style="font-style:normal;font-variant:normal;font-weight:normal;font-stretch:normal;font-size:69.33333588px;line-height:1.25;font-family:Rose;-inkscape-font-specification:Rose;letter-spacing:0px;word-spacing:0px;fill:#000000;fill-opacity:1;stroke:none"
     x="-85.546875"
     y="-968.99841"
     id="text4955-3"
     transform="scale(-1)"><tspan
       id="tspan4953-7"
       x="-85.546875"
       y="-968.99841">6</tspan></text>
  <text
     xml:space="preserve"
     style="font-style:normal;font-variant:normal;font-weight:normal;font-stretch:normal;font-size:69.33216858px;line-height:1.25;font-family:Rose;-inkscape-font-specification:Rose;letter-spacing:0px;word-spacing:0px;fill:#000000;fill-opacity:1;stroke:none;stroke-width:0.99998319"
     x="-525.54626"
     y="-968.99841"
     id="text4955-6-2"
     transform="scale(-1)"><tspan
       id="tspan4953-2-7"
       x="-525.54626"
       y="-968.99841"
       style="stroke-width:0.99998319">6</tspan></text>
  <path
     style="fill:#000000;fill-opacity:1;stroke-width:0.08865318"
     d="m 58.070135,159.53819 c 0.712572,-1.10461 1.617483,-2.09519 2.119656,-3.3518 0.631683,-0.95709 1.103019,-2.4477 1.210758,-3.36729 -1.123383,0.88455 -2.103003,2.00613 -3.515619,2.44687 -1.298243,0.68185 -2.772032,0.68661 -4.19531,0.52271 -1.430304,-0.24185 -2.829236,-0.78314 -3.943556,-1.74085 -1.207299,-1.22407 -2.328243,-2.75752 -2.34888,-4.55997 -0.32376,-2.56473 0.933369,-5.05635 2.467389,-7.01756 1.952427,-2.27364 4.35152,-4.11412 7.01102,-5.46945 1.799102,-1.06396 3.559022,-2.34803 4.566884,-4.24613 0.150477,-0.88267 1.258812,-1.92594 1.183578,-2.46696 -0.256614,-0.99816 0.750602,-0.9287 0.399561,0.1016 0.559331,1.61314 1.379009,3.16798 2.63495,4.36297 1.647474,1.56578 3.741119,2.55446 5.425817,4.0848 1.639412,1.29198 3.180779,2.73553 4.269395,4.54128 0.901134,1.16757 1.370823,2.59306 1.851897,3.96116 0.517671,2.55871 -0.435912,5.36671 -2.561556,6.91395 -1.244727,1.14519 -2.959211,1.58713 -4.604018,1.65018 -1.722365,0.006 -3.511481,-0.34701 -4.842176,-1.52253 -0.847491,-0.12539 -1.699608,-2.35124 -2.223122,-1.64017 0.235934,1.71925 1.062368,3.30926 1.974377,4.76581 0.121287,0.60965 2.427669,2.51654 0.751464,1.97359 -1.316331,-0.70374 -2.829383,-0.84275 -4.289816,-0.65276 -1.167897,-0.17246 -2.398791,0.67248 -3.342693,0.71054 z"
     id="path4806-9" />
  <path
     style="fill:#000000;fill-opacity:1;stroke-width:0.08865318"
     d="m 497.89518,159.53819 c 0.71258,-1.10461 1.61749,-2.09519 2.11966,-3.3518 0.63168,-0.95709 1.10302,-2.4477 1.21076,-3.36729 -1.12339,0.88455 -2.10301,2.00613 -3.51562,2.44687 -1.29824,0.68185 -2.77203,0.68661 -4.19531,0.52271 -1.43031,-0.24185 -2.82924,-0.78314 -3.94356,-1.74085 -1.2073,-1.22407 -2.32824,-2.75752 -2.34888,-4.55997 -0.32376,-2.56473 0.93337,-5.05635 2.46739,-7.01756 1.95243,-2.27364 4.35152,-4.11413 7.01102,-5.46946 1.7991,-1.06396 3.55902,-2.34803 4.56689,-4.24613 0.15047,-0.88267 1.25881,-1.92594 1.18357,-2.46696 -0.25661,-0.99816 0.75061,-0.9287 0.39956,0.1016 0.55934,1.61314 1.37901,3.16798 2.63495,4.36297 1.64748,1.56578 3.74112,2.55446 5.42582,4.0848 1.63941,1.29199 3.18078,2.73554 4.2694,4.54129 0.90113,1.16757 1.37082,2.59306 1.85189,3.96116 0.51767,2.55871 -0.43591,5.36671 -2.56155,6.91395 -1.24473,1.14519 -2.95921,1.58713 -4.60402,1.65018 -1.72237,0.006 -3.51148,-0.34701 -4.84218,-1.52253 -0.84749,-0.12539 -1.6996,-2.35124 -2.22312,-1.64017 0.23594,1.71925 1.06237,3.30926 1.97438,4.76581 0.12129,0.60965 2.42767,2.51654 0.75146,1.97359 -1.31633,-0.70374 -2.82938,-0.84275 -4.28981,-0.65276 -1.1679,-0.17246 -2.39879,0.67248 -3.3427,0.71054 z"
     id="path4806-9-9" />
  <path
     style="fill:#000000;fill-opacity:1;stroke-width:0.08865318"
     d="m 60.724176,929.61487 c 0.71257,1.10461 1.61748,2.09519 2.11966,3.3518 0.63168,0.95709 1.10302,2.4477 1.21076,3.36729 -1.12339,-0.88455 -2.10301,-2.00613 -3.51562,-2.44687 -1.29825,-0.68185 -2.77204,-0.68661 -4.19531,-0.52271 -1.43031,0.24185 -2.82924,0.78314 -3.94356,1.74085 -1.2073,1.22407 -2.32824,2.75752 -2.34888,4.55997 -0.32376,2.56473 0.93337,5.05635 2.46739,7.01756 1.95243,2.27364 4.35152,4.11414 7.01102,5.46944 1.7991,1.064 3.55902,2.348 4.56688,4.2461 0.15048,0.8827 1.25882,1.926 1.18358,2.467 -0.25661,0.9982 0.7506,0.9287 0.39956,-0.1016 0.55933,-1.6131 1.37901,-3.168 2.63495,-4.363 1.64748,-1.5657 3.74112,-2.5544 5.42582,-4.0848 1.63941,-1.29195 3.18078,-2.7355 4.26939,-4.54125 0.90114,-1.16757 1.37083,-2.59306 1.8519,-3.96116 0.51767,-2.55871 -0.43591,-5.36671 -2.56155,-6.91395 -1.24473,-1.14519 -2.95922,-1.58713 -4.60402,-1.65018 -1.72237,-0.006 -3.51148,0.34701 -4.84218,1.52253 -0.84749,0.12539 -1.69961,2.35124 -2.22312,1.64017 0.23593,-1.71925 1.06237,-3.30926 1.97438,-4.76581 0.12128,-0.60965 2.42767,-2.51654 0.75146,-1.97359 -1.31633,0.70374 -2.82938,0.84275 -4.28982,0.65276 -1.16789,0.17246 -2.39879,-0.67248 -3.34269,-0.71054 z"
     id="path4806-9-2" />
  <path
     style="fill:#000000;fill-opacity:1;stroke-width:0.08865318"
     d="m 500.54922,929.61487 c 0.71258,1.10461 1.61749,2.09519 2.11966,3.3518 0.63168,0.95709 1.10302,2.4477 1.21076,3.36729 -1.12339,-0.88455 -2.10301,-2.00613 -3.51562,-2.44687 -1.29824,-0.68185 -2.77203,-0.68661 -4.19531,-0.52271 -1.43031,0.24185 -2.82924,0.78314 -3.94356,1.74085 -1.2073,1.22407 -2.32824,2.75752 -2.34888,4.55997 -0.32376,2.56473 0.93337,5.05635 2.46739,7.01756 1.95243,2.27364 4.35152,4.11414 7.01102,5.46944 1.7991,1.064 3.55902,2.3481 4.56689,4.2462 0.15047,0.8826 1.25881,1.9259 1.18357,2.4669 -0.25661,0.9982 0.75061,0.9287 0.39956,-0.1016 0.55934,-1.6131 1.37901,-3.168 2.63495,-4.363 1.64748,-1.5657 3.74112,-2.5544 5.42582,-4.0848 1.63941,-1.29195 3.18078,-2.7355 4.2694,-4.54125 0.90113,-1.16757 1.37082,-2.59306 1.85189,-3.96116 0.51767,-2.55871 -0.43591,-5.36671 -2.56155,-6.91395 -1.24473,-1.14519 -2.95921,-1.58713 -4.60402,-1.65018 -1.72237,-0.006 -3.51148,0.34701 -4.84218,1.52253 -0.84749,0.12539 -1.6996,2.35124 -2.22312,1.64017 0.23594,-1.71925 1.06237,-3.30926 1.97438,-4.76581 0.12129,-0.60965 2.42767,-2.51654 0.75146,-1.97359 -1.31633,0.70374 -2.82938,0.84275 -4.28981,0.65276 -1.1679,0.17246 -2.39879,-0.67248 -3.3427,-0.71054 z"
     id="path4806-9-9-7" />
  <path
     style="fill:#000000;fill-opacity:1;stroke-width:0.29551065"
     d="m 165.74726,679.70436 c 2.37524,3.68201 5.39161,6.98397 7.06552,11.17264 2.10561,3.19033 3.67673,8.15902 4.03586,11.22433 -3.74461,-2.94851 -7.01001,-6.68712 -11.71873,-8.15626 -4.32748,-2.27281 -9.24011,-2.28868 -13.98437,-1.74237 -4.76768,0.80618 -9.43079,2.61049 -13.14519,5.80286 -4.02433,4.08023 -7.76081,9.19172 -7.8296,15.1999 -1.0792,8.54908 3.11123,16.85448 8.22463,23.39187 6.50809,7.5788 14.50507,13.71374 23.37007,18.23149 5.99701,3.54654 11.86341,7.82676 15.22295,14.15378 0.50159,2.94224 4.19604,6.41981 3.94526,8.22319 -0.85538,3.3272 2.50201,3.09566 1.33187,-0.33865 1.86444,-5.37715 4.5967,-10.55993 8.78317,-14.54323 5.49158,-5.21928 12.4704,-8.51488 18.08606,-13.61601 5.46471,-4.30661 10.6026,-9.11845 14.23132,-15.13762 3.00378,-3.89189 4.56941,-8.64354 6.17299,-13.20385 1.72558,-8.52906 -1.45304,-17.88906 -8.53852,-23.04651 -4.14909,-3.81731 -9.86404,-5.29045 -15.34673,-5.50061 -5.74122,-0.0208 -11.70494,1.15672 -16.14059,5.07511 -2.82497,0.41796 -5.66536,7.83746 -7.41041,5.46722 0.78645,-5.73084 3.54123,-11.03086 6.58126,-15.88603 0.40429,-2.03216 8.09223,-8.38845 2.50488,-6.57863 -4.38777,2.34579 -9.43128,2.80917 -14.29939,2.17586 -3.89299,0.57486 -7.99597,-2.24161 -11.14231,-2.36847 z"
     id="path4806-91" />
  <path
     style="fill:#000000;fill-opacity:1;stroke-width:0.29551065"
     d="m 365.74726,379.44872 c 2.37524,-3.68201 5.39161,-6.98397 7.06552,-11.17264 2.10561,-3.19033 3.67673,-8.15902 4.03586,-11.22433 -3.74461,2.94851 -7.01001,6.68712 -11.71873,8.15626 -4.32748,2.27281 -9.24011,2.28868 -13.98437,1.74237 -4.76768,-0.80618 -9.43079,-2.61049 -13.14519,-5.80286 -4.02433,-4.08023 -7.76081,-9.19172 -7.8296,-15.1999 -1.0792,-8.54908 3.11123,-16.85448 8.22463,-23.39187 6.50809,-7.5788 14.50507,-13.71374 23.37007,-18.23149 5.99701,-3.54654 11.86341,-7.82676 15.22295,-14.15378 0.50159,-2.94224 4.19604,-6.41981 3.94526,-8.22319 -0.85538,-3.3272 2.50201,-3.09566 1.33187,0.33865 1.86444,5.37715 4.5967,10.55993 8.78317,14.54323 5.49158,5.21928 12.4704,8.51488 18.08606,13.61601 5.46471,4.30661 10.6026,9.11845 14.23132,15.13762 3.00378,3.89189 4.56941,8.64354 6.17299,13.20385 1.72557,8.52906 -1.45304,17.88906 -8.53852,23.04651 -4.14909,3.81731 -9.86404,5.29045 -15.34673,5.50061 -5.74122,0.0208 -11.70494,-1.15672 -16.14059,-5.07511 -2.82497,-0.41796 -5.66536,-7.83746 -7.41041,-5.46722 0.78645,5.73084 3.54123,11.03086 6.58126,15.88603 0.40429,2.03216 8.09223,8.38845 2.50488,6.57863 -4.38777,-2.34579 -9.43128,-2.80917 -14.29939,-2.17586 -3.89299,-0.57486 -7.99597,2.24161 -11.14231,2.36847 z"
     id="path4806-7" />
  <path
     style="fill:#000000;fill-opacity:1;stroke-width:0.29551065"
     d="m 365.74726,679.70437 c 2.37524,3.68201 5.39161,6.98397 7.06552,11.17264 2.10561,3.19033 3.67673,8.15902 4.03586,11.22433 -3.74461,-2.94851 -7.01001,-6.68712 -11.71873,-8.15626 -4.32748,-2.27281 -9.24011,-2.28868 -13.98437,-1.74237 -4.76768,0.80618 -9.43079,2.61049 -13.14519,5.80286 -4.02433,4.08023 -7.76081,9.19172 -7.8296,15.1999 -1.0792,8.54908 3.11123,16.85448 8.22463,23.39187 6.50809,7.5788 14.50507,13.71374 23.37007,18.23149 5.99701,3.54654 11.86341,7.82676 15.22295,14.15378 0.50159,2.94224 4.19604,6.41981 3.94526,8.22319 -0.85538,3.32719 2.50201,3.09565 1.33187,-0.33865 1.86444,-5.37715 4.5967,-10.55993 8.78317,-14.54323 5.49158,-5.21928 12.4704,-8.51488 18.08606,-13.61601 5.46471,-4.30661 10.6026,-9.11845 14.23132,-15.13762 3.00378,-3.89189 4.56941,-8.64354 6.17299,-13.20385 1.72558,-8.52906 -1.45304,-17.88906 -8.53852,-23.04651 -4.14909,-3.81731 -9.86404,-5.29045 -15.34673,-5.50061 -5.74122,-0.0208 -11.70494,1.15672 -16.14059,5.07511 -2.82497,0.41796 -5.66536,7.83746 -7.41041,5.46722 0.78645,-5.73084 3.54123,-11.03086 6.58126,-15.88603 0.40429,-2.03216 8.09223,-8.38845 2.50488,-6.57863 -4.38777,2.34579 -9.43128,2.80917 -14.29939,2.17586 -3.89299,0.57486 -7.99597,-2.24161 -11.14231,-2.36847 z"
     id="path4806-91-4" />
  <path
     style="fill:#000000;fill-opacity:1;stroke-width:0.29551065"
     d="m 165.74726,579.44872 c 2.37524,-3.68201 5.39161,-6.98397 7.06552,-11.17264 2.10561,-3.19033 3.67673,-8.15902 4.03586,-11.22433 -3.74461,2.94851 -7.01001,6.68712 -11.71873,8.15626 -4.32748,2.27281 -9.24011,2.28868 -13.98437,1.74237 -4.76768,-0.80618 -9.43079,-2.61049 -13.14519,-5.80286 -4.02433,-4.08023 -7.76081,-9.19172 -7.8296,-15.1999 -1.0792,-8.54908 3.11123,-16.85448 8.22463,-23.39187 6.50809,-7.5788 14.50507,-13.71374 23.37007,-18.23149 5.99701,-3.54654 11.86341,-7.82676 15.22295,-14.15378 0.50159,-2.94224 4.19604,-6.41981 3.94526,-8.22319 -0.85538,-3.3272 2.50201,-3.09566 1.33187,0.33865 1.86444,5.37715 4.5967,10.55993 8.78317,14.54323 5.49158,5.21928 12.4704,8.51488 18.08606,13.61601 5.46471,4.30661 10.6026,9.11845 14.23132,15.13762 3.00378,3.89189 4.56941,8.64354 6.17299,13.20385 1.72558,8.52906 -1.45304,17.88906 -8.53852,23.04651 -4.14909,3.81731 -9.86404,5.29045 -15.34673,5.50061 -5.74122,0.0208 -11.70494,-1.15672 -16.14059,-5.07511 -2.82497,-0.41796 -5.66536,-7.83746 -7.41041,-5.46722 0.78645,5.73084 3.54123,11.03086 6.58126,15.88603 0.40429,2.03216 8.09223,8.38845 2.50488,6.57863 -4.38777,-2.34579 -9.43128,-2.80917 -14.29939,-2.17586 -3.89299,-0.57486 -7.99597,2.24161 -11.14231,2.36847 z"
     id="path4806-2" />
  <path
     style="fill:#000000;fill-opacity:1;stroke-width:0.29551065"
     d="m 365.74726,579.44872 c 2.37524,-3.68201 5.39161,-6.98397 7.06552,-11.17264 2.10561,-3.19033 3.67673,-8.15902 4.03586,-11.22433 -3.74461,2.94851 -7.01001,6.68712 -11.71873,8.15626 -4.32748,2.27281 -9.24011,2.28868 -13.98437,1.74237 -4.76768,-0.80618 -9.43079,-2.61049 -13.14519,-5.80286 -4.02433,-4.08023 -7.76081,-9.19172 -7.8296,-15.1999 -1.0792,-8.54908 3.11123,-16.85448 8.22463,-23.39187 6.50809,-7.5788 14.50507,-13.71374 23.37007,-18.23149 5.99701,-3.54654 11.86341,-7.82676 15.22295,-14.15378 0.50159,-2.94224 4.19604,-6.41981 3.94526,-8.22319 -0.85538,-3.3272 2.50201,-3.09566 1.33187,0.33865 1.86444,5.37715 4.5967,10.55993 8.78317,14.54323 5.49158,5.21928 12.4704,8.51488 18.08606,13.61601 5.46471,4.30661 10.6026,9.11845 14.23132,15.13762 3.00378,3.89189 4.56941,8.64354 6.17299,13.20385 1.72557,8.52906 -1.45304,17.88906 -8.53852,23.04651 -4.14909,3.81731 -9.86404,5.29045 -15.34673,5.50061 -5.74122,0.0208 -11.70494,-1.15672 -16.14059,-5.07511 -2.82497,-0.41796 -5.66536,-7.83746 -7.41041,-5.46722 0.78645,5.73084 3.54123,11.03086 6.58126,15.88603 0.40429,2.03216 8.09223,8.38845 2.50488,6.57863 -4.38777,-2.34579 -9.43128,-2.80917 -14.29939,-2.17586 -3.89299,-0.57486 -7.99597,2.24161 -11.14231,2.36847 z"
     id="path4806-2-5" />
</svg>
