<?xml version="1.0" encoding="UTF-8" standalone="no"?>
<svg
   xmlns:dc="http://purl.org/dc/elements/1.1/"
   xmlns:cc="http://creativecommons.org/ns#"
   xmlns:rdf="http://www.w3.org/1999/02/22-rdf-syntax-ns#"
   xmlns:svg="http://www.w3.org/2000/svg"
   xmlns="http://www.w3.org/2000/svg"
   version="1.1"
   id="svg2"
   width="560"
   height="1059.5765"
   viewBox="0 0 560 1059.5765">
  <metadata
     id="metadata8">
    <rdf:RDF>
      <cc:Work
         rdf:about="">
        <dc:format>image/svg+xml</dc:format>
        <dc:type
           rdf:resource="http://purl.org/dc/dcmitype/StillImage" />
        <dc:title></dc:title>
      </cc:Work>
    </rdf:RDF>
  </metadata>
  <defs
     id="defs6" />
  <text
     id="text4955"
     y="109.57654"
     x="40.588543"
     style="font-style:normal;font-variant:normal;font-weight:normal;font-stretch:normal;font-size:69.33333588px;line-height:1.25;font-family:Rose;-inkscape-font-specification:Rose;letter-spacing:0px;word-spacing:0px;fill:#000000;fill-opacity:1;stroke:none"
     xml:space="preserve"><tspan
       y="109.57654"
       x="40.588543"
       id="tspan4953">1</tspan></text>
  <text
     id="text4955-6"
     y="109.57654"
     x="480.58868"
     style="font-style:normal;font-variant:normal;font-weight:normal;font-stretch:normal;font-size:69.33216858px;line-height:1.25;font-family:Rose;-inkscape-font-specification:Rose;letter-spacing:0px;word-spacing:0px;fill:#000000;fill-opacity:1;stroke:none;stroke-width:0.99998319"
     xml:space="preserve"><tspan
       style="stroke-width:0.99998319"
       y="109.57654"
       x="480.58868"
       id="tspan4953-2">1</tspan></text>
  <text
     transform="scale(-1)"
     id="text4955-3"
     y="-968.99841"
     x="-86.697922"
     style="font-style:normal;font-variant:normal;font-weight:normal;font-stretch:normal;font-size:69.33333588px;line-height:1.25;font-family:Rose;-inkscape-font-specification:Rose;letter-spacing:0px;word-spacing:0px;fill:#000000;fill-opacity:1;stroke:none"
     xml:space="preserve"><tspan
       y="-968.99841"
       x="-86.697922"
       id="tspan4953-7">1</tspan></text>
  <text
     transform="scale(-1)"
     id="text4955-6-2"
     y="-968.99841"
     x="-526.69727"
     style="font-style:normal;font-variant:normal;font-weight:normal;font-stretch:normal;font-size:69.33216858px;line-height:1.25;font-family:Rose;-inkscape-font-specification:Rose;letter-spacing:0px;word-spacing:0px;fill:#000000;fill-opacity:1;stroke:none;stroke-width:0.99998319"
     xml:space="preserve"><tspan
       style="stroke-width:0.99998319"
       y="-968.99841"
       x="-526.69727"
       id="tspan4953-2-7">1</tspan></text>
  <path
     style="fill:#000000;fill-opacity:1;stroke-width:0.27083036"
     d="m 270.99735,579.57654 c 0.36926,-4.53025 2.98393,-8.86703 3.6212,-13.51177 1.9852,-9.86105 4.18662,-19.79157 3.91245,-29.96409 -6.70148,0.17461 -12.96177,3.97126 -17.37875,9.2273 -3.67934,3.42958 -8.03592,6.75654 -13.16179,6.46031 -7.15699,0.91532 -14.19194,-4.00664 -16.77891,-11.15131 -1.67192,-4.78492 -1.80685,-10.68132 0.82832,-15.13523 4.04334,-8.15445 14.1366,-11.93424 21.90924,-7.86323 4.9005,2.02023 7.13919,7.89063 11.69257,10.47885 2.75101,1.98501 10.19471,6.53541 11.90801,2.3427 1.78703,-3.45747 -1.41921,-9.16626 -3.76177,-12.77261 -4.11027,-4.96554 -9.2575,-9.45472 -10.85238,-16.20884 -1.62285,-9.14495 3.98226,-19.24159 12.60956,-21.22388 4.5481,-1.66046 9.57623,-0.0601 13.50554,2.51036 5.23075,3.92392 8.01052,11.47285 6.88543,18.16926 -0.7609,5.11669 -4.10238,8.87271 -7.33123,12.32519 -3.92054,4.90753 -7.03196,11.39849 -5.7775,18.01834 3.68455,0.3428 8.20234,-1.58075 11.0789,-4.3163 5.48677,-3.96329 9.24756,-11.12927 16.33678,-12.09252 8.50042,-1.83028 17.58482,4.62395 19.29328,13.79021 1.16251,5.13532 0.13341,10.66019 -3.02355,14.73498 -3.56912,5.12844 -9.58254,7.79663 -15.48185,7.0032 -6.30119,-0.74952 -10.70975,-6.12023 -15.50105,-9.94428 -3.38298,-1.92934 -9.84836,-6.41254 -12.65757,-3.33872 0.47637,11.82089 2.7631,23.52801 6.20973,34.75415 0.97659,2.4231 2.0219,1.49828 1.52334,4.02089 2.03811,5.37589 -6.51957,-1.3056 -9.06267,1.55271 -3.49349,-1.32235 -7.23118,1.36373 -10.54533,2.13433 z"
     id="path4847" />
  <path
     style="fill:#000000;fill-opacity:1;stroke-width:0.08124913"
     d="m 59.299208,159.57654 c 0.11078,-1.35908 0.89518,-2.66011 1.08636,-4.05353 0.59556,-2.95832 1.25599,-5.93747 1.17374,-8.98923 -2.01045,0.0524 -3.88853,1.19138 -5.21363,2.76819 -1.1038,1.02887 -2.41078,2.02696 -3.94854,1.93809 -2.14709,0.2746 -4.25758,-1.20199 -5.03367,-3.34539 -0.50158,-1.43548 -0.54206,-3.2044 0.24849,-4.54057 1.21301,-2.44634 4.24099,-3.58027 6.57278,-2.35897 1.47015,0.60607 2.14176,2.36719 3.50777,3.14366 0.8253,0.5955 3.05841,1.96062 3.5724,0.70281 0.53611,-1.03724 -0.42576,-2.74988 -1.12853,-3.83179 -1.23308,-1.48966 -2.77725,-2.83641 -3.25571,-4.86265 -0.48686,-2.74349 1.19468,-5.77248 3.78287,-6.36716 1.36443,-0.49814 2.87287,-0.018 4.05166,0.7531 1.56923,1.17718 2.40316,3.44186 2.06563,5.45078 -0.22827,1.53501 -1.23071,2.66182 -2.19937,3.69756 -1.17616,1.47226 -2.10959,3.41955 -1.73325,5.4055 1.10537,0.10284 2.4607,-0.47422 3.32367,-1.29489 1.64603,-1.18898 2.77427,-3.33878 4.90104,-3.62775 2.55012,-0.54909 5.27544,1.38718 5.78798,4.13706 0.34876,1.5406 0.04,3.19806 -0.90706,4.42049 -1.07074,1.53854 -2.87477,2.33899 -4.64456,2.10096 -1.89036,-0.22485 -3.21293,-1.83606 -4.65032,-2.98328 -1.01489,-0.5788 -2.9545,-1.92376 -3.79727,-1.00162 0.14291,3.54627 0.82893,7.05841 1.86292,10.42625 0.29298,0.72693 0.60657,0.44948 0.457,1.20627 0.61144,1.61276 -1.95587,-0.39168 -2.7188,0.46581 -1.04805,-0.3967 -2.16935,0.40912 -3.1636,0.6403 z"
     id="path4847-5" />
  <path
     style="fill:#000000;fill-opacity:1;stroke-width:0.08124913"
     d="m 499.29921,159.57654 c 0.11078,-1.35908 0.89518,-2.66011 1.08636,-4.05353 0.59556,-2.95832 1.25599,-5.93747 1.17374,-8.98923 -2.01045,0.0524 -3.88853,1.19138 -5.21363,2.76819 -1.1038,1.02887 -2.41078,2.02696 -3.94854,1.93809 -2.14709,0.2746 -4.25758,-1.20199 -5.03367,-3.34539 -0.50158,-1.43548 -0.54206,-3.2044 0.24849,-4.54057 1.21301,-2.44634 4.24099,-3.58027 6.57278,-2.35897 1.47015,0.60607 2.14176,2.36719 3.50777,3.14366 0.8253,0.5955 3.05841,1.96062 3.5724,0.70281 0.53611,-1.03724 -0.42576,-2.74988 -1.12853,-3.83179 -1.23308,-1.48966 -2.77725,-2.83641 -3.25571,-4.86265 -0.48686,-2.74349 1.19468,-5.77248 3.78287,-6.36716 1.36443,-0.49814 2.87287,-0.018 4.05166,0.7531 1.56923,1.17718 2.40316,3.44186 2.06563,5.45078 -0.22827,1.53501 -1.23071,2.66182 -2.19937,3.69756 -1.17616,1.47226 -2.10959,3.41955 -1.73325,5.4055 1.10537,0.10284 2.4607,-0.47422 3.32367,-1.29489 1.64603,-1.18898 2.77427,-3.33878 4.90104,-3.62775 2.55012,-0.54909 5.27544,1.38718 5.78798,4.13706 0.34876,1.5406 0.04,3.19806 -0.90706,4.42049 -1.07074,1.53854 -2.87477,2.33899 -4.64456,2.10096 -1.89036,-0.22485 -3.21293,-1.83606 -4.65032,-2.98328 -1.01489,-0.5788 -2.9545,-1.92376 -3.79727,-1.00162 0.14291,3.54627 0.82893,7.05841 1.86292,10.42625 0.29298,0.72693 0.60657,0.44948 0.457,1.20627 0.61144,1.61276 -1.95587,-0.39168 -2.7188,0.46581 -1.04805,-0.3967 -2.16935,0.40912 -3.1636,0.6403 z"
     id="path4847-5-4" />
  <path
     style="fill:#000000;fill-opacity:1;stroke-width:0.08124913"
     d="m 62.299208,929.57655 c 0.11078,1.35908 0.89518,2.66011 1.08636,4.05353 0.59556,2.95832 1.25599,5.93747 1.17374,8.98923 -2.01045,-0.0524 -3.88853,-1.19138 -5.21363,-2.76819 -1.1038,-1.02887 -2.41078,-2.02696 -3.94854,-1.93809 -2.14709,-0.2746 -4.25758,1.20199 -5.03367,3.34539 -0.50158,1.43548 -0.54206,3.2044 0.24849,4.54057 1.21301,2.44634 4.24099,3.58027 6.57278,2.35897 1.47015,-0.60607 2.14176,-2.36719 3.50777,-3.14366 0.8253,-0.5955 3.05841,-1.96062 3.5724,-0.70281 0.53611,1.03724 -0.42576,2.74988 -1.12853,3.83179 -1.23308,1.48966 -2.77725,2.83641 -3.25571,4.86265 -0.48686,2.74349 1.19468,5.77248 3.78287,6.36716 1.36443,0.49814 2.87287,0.018 4.05166,-0.7531 1.56923,-1.17718 2.40316,-3.44186 2.06563,-5.45078 -0.22827,-1.53501 -1.23071,-2.66182 -2.19937,-3.69756 -1.17616,-1.47226 -2.10959,-3.41955 -1.73325,-5.4055 1.10537,-0.10284 2.4607,0.47422 3.32367,1.29489 1.64603,1.18898 2.77427,3.33878 4.90104,3.62775 2.55012,0.54909 5.27544,-1.38718 5.78798,-4.13706 0.34876,-1.5406 0.04,-3.19806 -0.90706,-4.42049 -1.07074,-1.53854 -2.87477,-2.33899 -4.64456,-2.10096 -1.89036,0.22485 -3.21293,1.83606 -4.65032,2.98328 -1.01489,0.5788 -2.9545,1.92376 -3.79727,1.00162 0.14291,-3.54627 0.82893,-7.05841 1.86292,-10.42625 0.29298,-0.72693 0.60657,-0.44948 0.457,-1.20627 0.61144,-1.61276 -1.95587,0.39168 -2.7188,-0.46581 -1.04805,0.3967 -2.16935,-0.40912 -3.1636,-0.6403 z"
     id="path4847-5-7" />
  <path
     style="fill:#000000;fill-opacity:1;stroke-width:0.08124913"
     d="m 502.09922,929.57655 c 0.11078,1.35908 0.89518,2.66011 1.08636,4.05353 0.59556,2.95832 1.25599,5.93747 1.17374,8.98923 -2.01045,-0.0524 -3.88853,-1.19138 -5.21364,-2.76819 -1.1038,-1.02887 -2.41078,-2.02696 -3.94854,-1.93809 -2.14709,-0.2746 -4.25758,1.20199 -5.03367,3.34539 -0.50158,1.43548 -0.54206,3.2044 0.24849,4.54057 1.21301,2.44634 4.24099,3.58027 6.57278,2.35897 1.47015,-0.60607 2.14176,-2.36719 3.50778,-3.14366 0.8253,-0.5955 3.05841,-1.96062 3.5724,-0.70281 0.53611,1.03724 -0.42576,2.74988 -1.12853,3.83179 -1.23308,1.48966 -2.77725,2.83641 -3.25572,4.86265 -0.48686,2.74349 1.19469,5.77248 3.78288,6.36716 1.36443,0.49814 2.87287,0.018 4.05166,-0.7531 1.56923,-1.17718 2.40316,-3.44186 2.06563,-5.45078 -0.22827,-1.53501 -1.23071,-2.66182 -2.19937,-3.69756 -1.17616,-1.47226 -2.10959,-3.41955 -1.73325,-5.4055 1.10537,-0.10284 2.4607,0.47422 3.32367,1.29489 1.64603,1.18898 2.77427,3.33878 4.90104,3.62775 2.55012,0.54909 5.27544,-1.38718 5.78798,-4.13706 0.34876,-1.5406 0.04,-3.19806 -0.90706,-4.42049 -1.07074,-1.53854 -2.87477,-2.33899 -4.64456,-2.10096 -1.89036,0.22485 -3.21293,1.83606 -4.65032,2.98328 -1.01489,0.5788 -2.9545,1.92376 -3.79727,1.00162 0.14291,-3.54627 0.82893,-7.05841 1.86292,-10.42625 0.29298,-0.72693 0.60657,-0.44948 0.457,-1.20627 0.61144,-1.61276 -1.95587,0.39168 -2.7188,-0.46581 -1.04805,0.3967 -2.16935,-0.40912 -3.1636,-0.6403 z"
     id="path4847-5-3" />
</svg>
