<?xml version="1.0" encoding="UTF-8" standalone="no"?>
<svg
   xmlns:dc="http://purl.org/dc/elements/1.1/"
   xmlns:cc="http://creativecommons.org/ns#"
   xmlns:rdf="http://www.w3.org/1999/02/22-rdf-syntax-ns#"
   xmlns:svg="http://www.w3.org/2000/svg"
   xmlns="http://www.w3.org/2000/svg"
   viewBox="0 0 560 1059.5765"
   height="1059.5765"
   width="560"
   id="svg2"
   version="1.1">
  <metadata
     id="metadata8">
    <rdf:RDF>
      <cc:Work
         rdf:about="">
        <dc:format>image/svg+xml</dc:format>
        <dc:type
           rdf:resource="http://purl.org/dc/dcmitype/StillImage" />
        <dc:title></dc:title>
      </cc:Work>
    </rdf:RDF>
  </metadata>
  <defs
     id="defs6" />
  <text
     xml:space="preserve"
     style="font-style:normal;font-variant:normal;font-weight:normal;font-stretch:normal;font-size:69.33333588px;line-height:1.25;font-family:Rose;-inkscape-font-specification:Rose;letter-spacing:0px;word-spacing:0px;fill:#000000;fill-opacity:1;stroke:none"
     x="40.588543"
     y="109.57654"
     id="text4955"><tspan
       id="tspan4953"
       x="40.588543"
       y="109.57654">9</tspan></text>
  <text
     xml:space="preserve"
     style="font-style:normal;font-variant:normal;font-weight:normal;font-stretch:normal;font-size:69.33216858px;line-height:1.25;font-family:Rose;-inkscape-font-specification:Rose;letter-spacing:0px;word-spacing:0px;fill:#000000;fill-opacity:1;stroke:none;stroke-width:0.99998319"
     x="480.58868"
     y="109.57654"
     id="text4955-6"><tspan
       id="tspan4953-2"
       x="480.58868"
       y="109.57654"
       style="stroke-width:0.99998319">9</tspan></text>
  <text
     xml:space="preserve"
     style="font-style:normal;font-variant:normal;font-weight:normal;font-stretch:normal;font-size:69.33333588px;line-height:1.25;font-family:Rose;-inkscape-font-specification:Rose;letter-spacing:0px;word-spacing:0px;fill:#000000;fill-opacity:1;stroke:none"
     x="-83.921875"
     y="-968.99841"
     id="text4955-3"
     transform="scale(-1)"><tspan
       id="tspan4953-7"
       x="-83.921875"
       y="-968.99841">9</tspan></text>
  <text
     xml:space="preserve"
     style="font-style:normal;font-variant:normal;font-weight:normal;font-stretch:normal;font-size:69.33216858px;line-height:1.25;font-family:Rose;-inkscape-font-specification:Rose;letter-spacing:0px;word-spacing:0px;fill:#000000;fill-opacity:1;stroke:none;stroke-width:0.99998319"
     x="-523.92126"
     y="-968.99841"
     id="text4955-6-2"
     transform="scale(-1)"><tspan
       id="tspan4953-2-7"
       x="-523.92126"
       y="-968.99841"
       style="stroke-width:0.99998319">9</tspan></text>
  <path
     id="path4847"
     d="m 370.99734,329.57654 c 0.36926,-4.53026 2.98394,-8.86704 3.6212,-13.51178 1.9852,-9.86105 4.18663,-19.79157 3.91246,-29.96409 -6.70148,0.17461 -12.96178,3.97126 -17.37876,9.2273 -3.67933,3.42958 -8.03592,6.75655 -13.16179,6.46031 -7.15699,0.91532 -14.19194,-4.00664 -16.77891,-11.15131 -1.67191,-4.78492 -1.80684,-10.68132 0.82832,-15.13523 4.04334,-8.15445 14.13661,-11.93424 21.90924,-7.86323 4.9005,2.02023 7.13919,7.89063 11.69258,10.47885 2.751,1.98501 10.1947,6.53541 11.908,2.3427 1.78704,-3.45747 -1.41921,-9.16626 -3.76176,-12.77261 -4.11028,-4.96554 -9.2575,-9.45471 -10.85239,-16.20884 -1.62285,-9.14495 3.98227,-19.24159 12.60957,-21.22388 4.54809,-1.66046 9.57622,-0.0601 13.50553,2.51036 5.23076,3.92392 8.01052,11.47285 6.88543,18.16926 -0.76089,5.11669 -4.10237,8.87271 -7.33122,12.3252 -3.92054,4.90752 -7.03196,11.39848 -5.7775,18.01833 3.68455,0.3428 8.20233,-1.58075 11.07889,-4.3163 5.48678,-3.96329 9.24756,-11.12927 16.33678,-12.09252 8.50042,-1.83028 17.58482,4.62395 19.29328,13.79021 1.16251,5.13532 0.13342,10.66019 -3.02355,14.73498 -3.56912,5.12844 -9.58253,7.79663 -15.48185,7.0032 -6.30119,-0.74952 -10.70974,-6.12023 -15.50105,-9.94428 -3.38298,-1.92933 -9.84835,-6.41253 -12.65756,-3.33872 0.47637,11.82089 2.7631,23.52801 6.20972,34.75415 0.9766,2.4231 2.0219,1.49828 1.52334,4.02089 2.03811,5.37589 -6.51957,-1.3056 -9.06266,1.55271 -3.4935,-1.32235 -7.23118,1.36373 -10.54534,2.13434 z"
     style="fill:#000000;fill-opacity:1;stroke-width:0.27083036" />
  <path
     id="path4847-0"
     d="m 170.99734,329.57654 c 0.36926,-4.53026 2.98394,-8.86704 3.6212,-13.51177 1.9852,-9.86106 4.18663,-19.79158 3.91246,-29.9641 -6.70148,0.17462 -12.96178,3.97126 -17.37876,9.2273 -3.67933,3.42958 -8.03592,6.75655 -13.16179,6.46031 -7.15699,0.91533 -14.19194,-4.00664 -16.77891,-11.15131 -1.67191,-4.78492 -1.80684,-10.68132 0.82832,-15.13523 4.04334,-8.15444 14.13661,-11.93423 21.90924,-7.86323 4.9005,2.02023 7.13919,7.89063 11.69258,10.47885 2.751,1.98501 10.1947,6.53541 11.908,2.34271 1.78704,-3.45748 -1.41921,-9.16627 -3.76176,-12.77261 -4.11028,-4.96555 -9.2575,-9.45472 -10.85239,-16.20885 -1.62285,-9.14494 3.98227,-19.24159 12.60957,-21.22388 4.54809,-1.66046 9.57622,-0.0601 13.50553,2.51037 5.23076,3.92392 8.01052,11.47284 6.88543,18.16926 -0.76089,5.11669 -4.10237,8.8727 -7.33122,12.32519 -3.92054,4.90753 -7.03196,11.39849 -5.7775,18.01833 3.68455,0.3428 8.20233,-1.58075 11.07889,-4.3163 5.48678,-3.96328 9.24756,-11.12927 16.33678,-12.09252 8.50042,-1.83027 17.58482,4.62395 19.29328,13.79021 1.16251,5.13532 0.13342,10.6602 -3.02355,14.73498 -3.56912,5.12844 -9.58253,7.79664 -15.48185,7.0032 -6.30119,-0.74952 -10.70974,-6.12022 -15.50105,-9.94428 -3.38298,-1.92933 -9.84835,-6.41253 -12.65756,-3.33872 0.47637,11.82089 2.7631,23.52802 6.20972,34.75416 0.9766,2.42309 2.0219,1.49828 1.52334,4.02089 2.03811,5.37588 -6.51957,-1.3056 -9.06266,1.5527 -3.4935,-1.32234 -7.23118,1.36373 -10.54534,2.13434 z"
     style="fill:#000000;fill-opacity:1;stroke-width:0.27083036" />
  <path
     id="path4847-01"
     d="m 170.99734,459.57654 c 0.36926,-4.53026 2.98394,-8.86704 3.6212,-13.51178 1.9852,-9.86105 4.18662,-19.79157 3.91246,-29.96409 -6.70148,0.17461 -12.96178,3.97126 -17.37876,9.2273 -3.67933,3.42958 -8.03592,6.75655 -13.16179,6.46031 -7.15699,0.91532 -14.19194,-4.00664 -16.77891,-11.15131 -1.67191,-4.78492 -1.80684,-10.68132 0.82832,-15.13523 4.04334,-8.15444 14.1366,-11.93424 21.90924,-7.86323 4.9005,2.02023 7.13919,7.89063 11.69257,10.47885 2.75101,1.98501 10.19471,6.53541 11.90801,2.3427 1.78704,-3.45747 -1.41921,-9.16626 -3.76176,-12.77261 -4.11028,-4.96554 -9.2575,-9.45471 -10.85239,-16.20884 -1.62285,-9.14495 3.98226,-19.24159 12.60957,-21.22388 4.54809,-1.66046 9.57622,-0.0601 13.50553,2.51036 5.23075,3.92393 8.01052,11.47285 6.88543,18.16927 -0.76089,5.11668 -4.10237,8.8727 -7.33122,12.32519 -3.92054,4.90753 -7.03197,11.39849 -5.7775,18.01833 3.68455,0.3428 8.20233,-1.58075 11.07889,-4.3163 5.48678,-3.96329 9.24756,-11.12927 16.33678,-12.09252 8.50042,-1.83027 17.58482,4.62395 19.29328,13.79021 1.16251,5.13532 0.13342,10.6602 -3.02355,14.73498 -3.56912,5.12844 -9.58254,7.79664 -15.48185,7.0032 -6.30119,-0.74952 -10.70974,-6.12023 -15.50105,-9.94428 -3.38298,-1.92933 -9.84835,-6.41253 -12.65756,-3.33872 0.47637,11.82089 2.7631,23.52801 6.20972,34.75416 0.97659,2.42309 2.0219,1.49828 1.52334,4.02088 2.03811,5.37589 -6.51957,-1.3056 -9.06266,1.55271 -3.4935,-1.32234 -7.23118,1.36373 -10.54534,2.13434 z"
     style="fill:#000000;fill-opacity:1;stroke-width:0.27083036" />
  <path
     id="path4847-3"
     d="m 370.99735,459.57654 c 0.36926,-4.53025 2.98393,-8.86703 3.6212,-13.51177 1.9852,-9.86105 4.18662,-19.79157 3.91245,-29.9641 -6.70148,0.17462 -12.96177,3.97127 -17.37875,9.2273 -3.67934,3.42959 -8.03592,6.75655 -13.16179,6.46031 -7.15699,0.91533 -14.19194,-4.00664 -16.77891,-11.1513 -1.67192,-4.78492 -1.80685,-10.68133 0.82832,-15.13524 4.04334,-8.15444 14.1366,-11.93423 21.90924,-7.86323 4.9005,2.02024 7.13919,7.89064 11.69257,10.47886 2.75101,1.985 10.19471,6.5354 11.90801,2.3427 1.78703,-3.45747 -1.41921,-9.16626 -3.76177,-12.77261 -4.11027,-4.96555 -9.2575,-9.45472 -10.85238,-16.20885 -1.62285,-9.14494 3.98226,-19.24159 12.60956,-21.22387 4.5481,-1.66046 9.57623,-0.0601 13.50554,2.51036 5.23075,3.92392 8.01052,11.47285 6.88543,18.16926 -0.7609,5.11669 -4.10238,8.87271 -7.33123,12.32519 -3.92054,4.90753 -7.03196,11.39849 -5.7775,18.01833 3.68455,0.34281 8.20234,-1.58075 11.0789,-4.31629 5.48677,-3.96329 9.24756,-11.12928 16.33678,-12.09253 8.50042,-1.83027 17.58482,4.62395 19.29328,13.79022 1.16251,5.13532 0.13341,10.66019 -3.02355,14.73498 -3.56912,5.12844 -9.58254,7.79663 -15.48185,7.0032 -6.30119,-0.74952 -10.70975,-6.12023 -15.50105,-9.94428 -3.38298,-1.92934 -9.84836,-6.41254 -12.65757,-3.33872 0.47637,11.82088 2.7631,23.52801 6.20973,34.75415 0.97659,2.42309 2.0219,1.49828 1.52334,4.02089 2.03811,5.37588 -6.51957,-1.3056 -9.06267,1.55271 -3.49349,-1.32235 -7.23118,1.36372 -10.54533,2.13433 z"
     style="fill:#000000;fill-opacity:1;stroke-width:0.27083036" />
  <path
     id="path4847-02"
     d="m 270.99734,579.57654 c 0.36926,-4.53026 2.98394,-8.86704 3.6212,-13.51178 1.9852,-9.86105 4.18662,-19.79157 3.91246,-29.96409 -6.70148,0.17461 -12.96178,3.97126 -17.37876,9.2273 -3.67934,3.42958 -8.03592,6.75655 -13.16179,6.46031 -7.15699,0.91532 -14.19194,-4.00664 -16.77891,-11.15131 -1.67192,-4.78492 -1.80684,-10.68132 0.82832,-15.13523 4.04334,-8.15445 14.1366,-11.93424 21.90924,-7.86323 4.9005,2.02023 7.13919,7.89063 11.69257,10.47885 2.75101,1.98501 10.19471,6.53541 11.90801,2.3427 1.78704,-3.45747 -1.41921,-9.16626 -3.76176,-12.77261 -4.11028,-4.96554 -9.2575,-9.45471 -10.85239,-16.20884 -1.62285,-9.14495 3.98226,-19.24159 12.60956,-21.22388 4.5481,-1.66046 9.57623,-0.0601 13.50554,2.51036 5.23075,3.92392 8.01052,11.47285 6.88543,18.16927 -0.76089,5.11668 -4.10237,8.8727 -7.33123,12.32519 -3.92054,4.90752 -7.03196,11.39848 -5.77749,18.01833 3.68454,0.3428 8.20233,-1.58075 11.07889,-4.3163 5.48678,-3.96329 9.24756,-11.12927 16.33678,-12.09252 8.50042,-1.83028 17.58482,4.62395 19.29328,13.79021 1.16251,5.13532 0.13341,10.66019 -3.02355,14.73498 -3.56912,5.12844 -9.58254,7.79664 -15.48185,7.0032 -6.30119,-0.74952 -10.70975,-6.12023 -15.50105,-9.94428 -3.38298,-1.92933 -9.84836,-6.41253 -12.65757,-3.33872 0.47638,11.82089 2.7631,23.52801 6.20973,34.75416 0.97659,2.42309 2.0219,1.49828 1.52334,4.02088 2.03811,5.37589 -6.51957,-1.3056 -9.06267,1.55271 -3.49349,-1.32234 -7.23118,1.36373 -10.54533,2.13434 z"
     style="fill:#000000;fill-opacity:1;stroke-width:0.27083036" />
  <path
     id="path4847-9"
     d="m 170.99735,609.57656 c 0.36926,4.53025 2.98393,8.86703 3.6212,13.51177 1.9852,9.86105 4.18662,19.79157 3.91245,29.96409 -6.70148,-0.17461 -12.96177,-3.97126 -17.37876,-9.2273 -3.67933,-3.42958 -8.03592,-6.75654 -13.16179,-6.46031 -7.15699,-0.91532 -14.19193,4.00664 -16.77891,11.15131 -1.67191,4.78492 -1.80684,10.68132 0.82832,15.13523 4.04334,8.15445 14.13661,11.93424 21.90925,7.86323 4.90049,-2.02023 7.13918,-7.89063 11.69257,-10.47885 2.751,-1.98501 10.19471,-6.53541 11.90801,-2.3427 1.78703,3.45747 -1.41922,9.16626 -3.76177,12.77261 -4.11027,4.96554 -9.2575,9.45472 -10.85238,16.20884 -1.62286,9.14495 3.98226,19.24159 12.60956,21.22388 4.54809,1.66046 9.57623,0.0601 13.50554,-2.51036 5.23075,-3.92392 8.01052,-11.47285 6.88543,-18.16926 -0.7609,-5.11669 -4.10238,-8.87271 -7.33123,-12.32519 -3.92054,-4.90753 -7.03196,-11.39849 -5.7775,-18.01834 3.68455,-0.3428 8.20233,1.58075 11.07889,4.3163 5.48678,3.96329 9.24756,11.12927 16.33679,12.09252 8.50042,1.83028 17.58481,-4.62395 19.29327,-13.79021 1.16251,-5.13532 0.13342,-10.66019 -3.02354,-14.73498 -3.56912,-5.12844 -9.58254,-7.79663 -15.48185,-7.0032 -6.30119,0.74952 -10.70975,6.12023 -15.50106,9.94428 -3.38298,1.92934 -9.84835,6.41254 -12.65756,3.33872 0.47637,-11.82089 2.7631,-23.52801 6.20973,-34.75415 0.97659,-2.4231 2.02189,-1.49828 1.52334,-4.02089 2.03811,-5.37589 -6.51958,1.3056 -9.06267,-1.55271 -3.49349,1.32235 -7.23118,-1.36373 -10.54533,-2.13433 z"
     style="fill:#000000;fill-opacity:1;stroke-width:0.27083036" />
  <path
     id="path4847-09"
     d="m 370.99735,609.57655 c 0.36926,4.53026 2.98393,8.86704 3.6212,13.51177 1.9852,9.86106 4.18662,19.79158 3.91245,29.9641 -6.70148,-0.17462 -12.96177,-3.97126 -17.37876,-9.2273 -3.67933,-3.42958 -8.03591,-6.75655 -13.16178,-6.46031 -7.15699,-0.91533 -14.19194,4.00664 -16.77892,11.15131 -1.67191,4.78492 -1.80684,10.68132 0.82833,15.13523 4.04333,8.15444 14.1366,11.93423 21.90924,7.86323 4.90049,-2.02023 7.13918,-7.89063 11.69257,-10.47885 2.75101,-1.98501 10.19471,-6.53541 11.90801,-2.34271 1.78703,3.45748 -1.41922,9.16627 -3.76177,12.77261 -4.11027,4.96555 -9.2575,9.45472 -10.85238,16.20885 -1.62285,9.14494 3.98226,19.24159 12.60956,21.22388 4.5481,1.66046 9.57623,0.0601 13.50554,-2.51037 5.23075,-3.92392 8.01052,-11.47284 6.88543,-18.16926 -0.7609,-5.11669 -4.10238,-8.8727 -7.33123,-12.32519 -3.92054,-4.90753 -7.03196,-11.39849 -5.7775,-18.01833 3.68455,-0.3428 8.20233,1.58075 11.0789,4.3163 5.48677,3.96328 9.24755,11.12927 16.33678,12.09252 8.50042,1.83027 17.58482,-4.62395 19.29328,-13.79021 1.16251,-5.13532 0.13341,-10.6602 -3.02355,-14.73498 -3.56912,-5.12844 -9.58254,-7.79664 -15.48185,-7.0032 -6.30119,0.74952 -10.70975,6.12022 -15.50106,9.94428 -3.38298,1.92933 -9.84835,6.41253 -12.65756,3.33872 0.47637,-11.82089 2.7631,-23.52802 6.20973,-34.75416 0.97659,-2.42309 2.02189,-1.49828 1.52334,-4.02089 2.03811,-5.37588 -6.51957,1.3056 -9.06267,-1.5527 -3.49349,1.32234 -7.23118,-1.36373 -10.54533,-2.13434 z"
     style="fill:#000000;fill-opacity:1;stroke-width:0.27083036" />
  <path
     id="path4847-97"
     d="m 170.99734,749.57656 c 0.36926,4.53025 2.98394,8.86704 3.6212,13.51177 1.9852,9.86105 4.18663,19.79157 3.91246,29.9641 -6.70148,-0.17462 -12.96178,-3.97127 -17.37876,-9.2273 -3.67933,-3.42958 -8.03592,-6.75655 -13.16179,-6.46031 -7.15699,-0.91533 -14.19194,4.00664 -16.77891,11.1513 -1.67191,4.78492 -1.80684,10.68133 0.82832,15.13524 4.04334,8.15444 14.13661,11.93423 21.90924,7.86323 4.9005,-2.02024 7.13919,-7.89064 11.69258,-10.47886 2.751,-1.985 10.1947,-6.5354 11.908,-2.3427 1.78704,3.45748 -1.41921,9.16626 -3.76176,12.77261 -4.11028,4.96555 -9.2575,9.45472 -10.85239,16.20885 -1.62285,9.14494 3.98227,19.24159 12.60957,21.22387 4.54809,1.66046 9.57622,0.0601 13.50553,-2.51036 5.23076,-3.92392 8.01052,-11.47284 6.88543,-18.16926 -0.76089,-5.11669 -4.10237,-8.87271 -7.33122,-12.32519 -3.92054,-4.90753 -7.03196,-11.39849 -5.7775,-18.01833 3.68455,-0.34281 8.20233,1.58075 11.07889,4.31629 5.48678,3.96329 9.24756,11.12928 16.33678,12.09253 8.50042,1.83027 17.58482,-4.62395 19.29328,-13.79021 1.16251,-5.13532 0.13342,-10.6602 -3.02355,-14.73498 -3.56912,-5.12845 -9.58253,-7.79664 -15.48185,-7.0032 -6.30119,0.74951 -10.70974,6.12022 -15.50105,9.94427 -3.38298,1.92934 -9.84835,6.41254 -12.65756,3.33872 0.47637,-11.82088 2.7631,-23.52801 6.20972,-34.75415 0.9766,-2.42309 2.0219,-1.49828 1.52334,-4.02089 2.03811,-5.37588 -6.51957,1.3056 -9.06266,-1.5527 -3.4935,1.32234 -7.23118,-1.36373 -10.54534,-2.13434 z"
     style="fill:#000000;fill-opacity:1;stroke-width:0.27083036" />
  <path
     id="path4847-5"
     d="m 370.99734,749.57655 c 0.36926,4.53026 2.98394,8.86704 3.62121,13.51178 1.98519,9.86105 4.18662,19.79157 3.91245,29.96409 -6.70148,-0.17461 -12.96178,-3.97126 -17.37876,-9.2273 -3.67933,-3.42958 -8.03592,-6.75655 -13.16179,-6.46031 -7.15699,-0.91532 -14.19194,4.00664 -16.77891,11.15131 -1.67191,4.78492 -1.80684,10.68132 0.82832,15.13523 4.04334,8.15444 14.13661,11.93424 21.90924,7.86323 4.9005,-2.02023 7.13919,-7.89063 11.69258,-10.47885 2.751,-1.98501 10.19471,-6.53541 11.908,-2.3427 1.78704,3.45747 -1.41921,9.16626 -3.76176,12.77261 -4.11027,4.96554 -9.2575,9.45471 -10.85238,16.20884 -1.62286,9.14495 3.98226,19.24159 12.60956,21.22388 4.54809,1.66046 9.57622,0.0601 13.50554,-2.51036 5.23075,-3.92392 8.01051,-11.47285 6.88543,-18.16927 -0.7609,-5.11668 -4.10238,-8.8727 -7.33123,-12.32519 -3.92054,-4.90753 -7.03196,-11.39849 -5.7775,-18.01833 3.68455,-0.3428 8.20233,1.58075 11.07889,4.3163 5.48678,3.96329 9.24756,11.12927 16.33678,12.09252 8.50043,1.83027 17.58482,-4.62395 19.29328,-13.79021 1.16251,-5.13532 0.13342,-10.6602 -3.02354,-14.73498 -3.56913,-5.12844 -9.58254,-7.79664 -15.48186,-7.0032 -6.30119,0.74952 -10.70974,6.12023 -15.50105,9.94428 -3.38298,1.92933 -9.84835,6.41253 -12.65756,3.33872 0.47637,-11.82089 2.7631,-23.52801 6.20973,-34.75416 0.97659,-2.42309 2.02189,-1.49828 1.52333,-4.02088 2.03811,-5.37589 -6.51957,1.3056 -9.06266,-1.55271 -3.49349,1.32234 -7.23118,-1.36373 -10.54534,-2.13434 z"
     style="fill:#000000;fill-opacity:1;stroke-width:0.27083036" />
  <path
     id="path4847-5-9"
     d="m 59.299188,153.57636 c 0.11075,-1.35908 0.89519,-2.66011 1.08635,-4.05351 0.59558,-2.95831 1.25602,-5.93748 1.17374,-8.98923 -2.01045,0.0525 -3.88853,1.19139 -5.21363,2.76817 -1.10378,1.0289 -2.41078,2.02696 -3.94852,1.9381 -2.14711,0.27477 -4.2576,-1.202 -5.03368,-3.34537 -0.50158,-1.4355 -0.54206,-3.2044 0.24869,-4.54057 1.213,-2.44634 4.24097,-3.58028 6.57279,-2.359 1.47012,0.60609 2.14174,2.3672 3.50774,3.14366 0.8253,0.59551 3.05843,1.96063 3.57241,0.70281 0.53612,-1.03722 -0.42577,-2.74987 -1.12853,-3.83176 -1.23307,-1.48967 -2.77724,-2.83643 -3.25572,-4.86267 -0.48684,-2.74348 1.19471,-5.77247 3.78289,-6.36714 1.36441,-0.49814 2.87285,-0.0189 4.05165,0.75307 1.56922,1.17721 2.40318,3.44186 2.06563,5.4508 -0.22829,1.53501 -1.23069,2.6618 -2.19939,3.69754 -1.17615,1.47228 -2.10958,3.41957 -1.73321,5.40552 1.10536,0.10281 2.4607,-0.47421 3.32364,-1.2949 1.64606,-1.18896 2.77429,-3.33876 4.90106,-3.62774 2.55013,-0.54909 5.27543,1.38716 5.78797,4.13707 0.34885,1.54057 0.0401,3.19805 -0.90705,4.42046 -1.07074,1.53857 -2.87478,2.339 -4.64458,2.10096 -1.89033,-0.22488 -3.2129,-1.83605 -4.6503,-2.98325 -1.01491,-0.5788 -2.95453,-1.92378 -3.79729,-1.00162 0.14287,3.54626 0.82893,7.05838 1.86293,10.42625 0.29292,0.72691 0.60658,0.44946 0.45699,1.20627 0.61145,1.61276 -1.95587,-0.39171 -2.71881,0.46579 -1.04802,-0.3967 -2.16933,0.40913 -3.16358,0.64029 z"
     style="fill:#000000;fill-opacity:1;stroke-width:0.08124915" />
  <path
     id="path4847-5-4"
     d="m 499.29921,153.57636 c 0.1107,-1.35908 0.8952,-2.66011 1.0864,-4.05351 0.5955,-2.95831 1.2559,-5.93748 1.1737,-8.98923 -2.0104,0.0525 -3.88853,1.19139 -5.21363,2.76817 -1.10381,1.0289 -2.41077,2.02696 -3.94855,1.9381 -2.14707,0.27477 -4.25756,-1.202 -5.03369,-3.34537 -0.50156,-1.4355 -0.54207,-3.2044 0.2487,-4.54057 1.213,-2.44634 4.241,-3.58028 6.57278,-2.359 1.47016,0.60609 2.14175,2.3672 3.50778,3.14366 0.82531,0.59551 3.05841,1.96063 3.57241,0.70281 0.5361,-1.03722 -0.4258,-2.74987 -1.1286,-3.83176 -1.233,-1.48967 -2.7772,-2.83643 -3.25565,-4.86267 -0.48688,-2.74348 1.19465,-5.77247 3.78285,-6.36714 1.3644,-0.49814 2.8729,-0.0189 4.0517,0.75307 1.5692,1.17721 2.4031,3.44186 2.0656,5.4508 -0.2283,1.53501 -1.2307,2.6618 -2.1994,3.69754 -1.1761,1.47228 -2.1095,3.41957 -1.7332,5.40552 1.1053,0.10281 2.4607,-0.47421 3.3237,-1.2949 1.646,-1.18896 2.7742,-3.33876 4.901,-3.62774 2.5501,-0.54909 5.2754,1.38716 5.788,4.13707 0.3488,1.54057 0.04,3.19805 -0.9071,4.42046 -1.0707,1.53857 -2.8748,2.339 -4.6445,2.10096 -1.8904,-0.22488 -3.213,-1.83605 -4.6504,-2.98325 -1.0149,-0.5788 -2.9545,-1.92378 -3.7972,-1.00162 0.1428,3.54626 0.8289,7.05838 1.8629,10.42625 0.2929,0.72691 0.6065,0.44946 0.457,1.20627 0.6114,1.61276 -1.9559,-0.39171 -2.7188,0.46579 -1.0481,-0.3967 -2.1694,0.40913 -3.1636,0.64029 z"
     style="fill:#000000;fill-opacity:1;stroke-width:0.08124915" />
  <path
     id="path4847-5-7"
     d="m 62.299198,923.57642 c 0.11074,1.35908 0.89518,2.6601 1.08634,4.0535 0.59558,2.95835 1.25602,5.93749 1.17374,8.98923 -2.01045,-0.0525 -3.88853,-1.19138 -5.21363,-2.76816 -1.10378,-1.0289 -2.41078,-2.02696 -3.94852,-1.93811 -2.14711,-0.27439 -4.2576,1.20201 -5.03368,3.34538 -0.50158,1.4355 -0.54206,3.20443 0.24831,4.54057 1.213,2.44634 4.24097,3.58027 6.57279,2.35899 1.47012,-0.60608 2.14174,-2.36719 3.50774,-3.14366 0.8253,-0.5955 3.05843,-1.96063 3.57241,-0.7028 0.53613,1.03721 -0.42576,2.74987 -1.12853,3.83176 -1.23307,1.48966 -2.77723,2.83642 -3.25572,4.86266 -0.48684,2.74349 1.19471,5.77248 3.78289,6.36715 1.36441,0.49814 2.87286,0.0189 4.05165,-0.75307 1.56923,-1.17721 2.40318,-3.44187 2.06563,-5.4508 -0.22828,-1.53502 -1.23069,-2.66181 -2.19938,-3.69755 -1.17616,-1.47228 -2.10959,-3.41957 -1.73322,-5.40552 1.10536,-0.1028 2.4607,0.47422 3.32364,1.29491 1.64606,1.18896 2.77429,3.33879 4.90107,3.62774 2.55012,0.54909 5.27542,-1.38717 5.78796,-4.13707 0.34885,-1.54058 0.0401,-3.19805 -0.90704,-4.42046 -1.07074,-1.53857 -2.87479,-2.339 -4.64459,-2.10097 -1.89033,0.22488 -3.2129,1.83606 -4.65029,2.98326 -1.01492,0.5788 -2.95454,1.92378 -3.79729,1.00165 0.14286,-3.54629 0.82892,-7.05842 1.86292,-10.42628 0.29292,-0.72692 0.60658,-0.44946 0.45699,-1.20628 0.61145,-1.61272 -1.95587,0.39172 -2.71881,-0.46578 -1.04802,0.3967 -2.16933,-0.40914 -3.16357,-0.64029 z"
     style="fill:#000000;fill-opacity:1;stroke-width:0.08124915" />
  <path
     id="path4847-5-3"
     d="m 502.09921,923.57642 c 0.1107,1.35908 0.8952,2.6601 1.0864,4.0535 0.5955,2.95835 1.256,5.93749 1.1737,8.98923 -2.0105,-0.0525 -3.8885,-1.19138 -5.2136,-2.76816 -1.1039,-1.0289 -2.41081,-2.02696 -3.94859,-1.93811 -2.14708,-0.27439 -4.25756,1.20201 -5.03365,3.34538 -0.50158,1.4355 -0.54206,3.20443 0.24831,4.54057 1.21304,2.44634 4.24101,3.58027 6.57279,2.35899 1.47014,-0.60608 2.14174,-2.36719 3.50774,-3.14366 0.8253,-0.5955 3.0585,-1.96063 3.5724,-0.7028 0.5362,1.03721 -0.4257,2.74987 -1.1285,3.83176 -1.2331,1.48966 -2.7772,2.83642 -3.2557,4.86266 -0.4868,2.74349 1.1947,5.77248 3.7829,6.36715 1.3644,0.49814 2.8728,0.0189 4.0516,-0.75307 1.5693,-1.17721 2.4032,-3.44187 2.0657,-5.4508 -0.2283,-1.53502 -1.2307,-2.66181 -2.1994,-3.69755 -1.1762,-1.47228 -2.1096,-3.41957 -1.7333,-5.40552 1.1054,-0.1028 2.4608,0.47422 3.3237,1.29491 1.646,1.18896 2.7743,3.33879 4.9011,3.62774 2.5501,0.54909 5.2754,-1.38717 5.7879,-4.13707 0.3489,-1.54058 0.04,-3.19805 -0.907,-4.42046 -1.0708,-1.53857 -2.8748,-2.339 -4.6446,-2.10097 -1.8903,0.22488 -3.2129,1.83606 -4.6503,2.98326 -1.0149,0.5788 -2.9545,1.92378 -3.7973,1.00165 0.1429,-3.54629 0.8289,-7.05842 1.8629,-10.42628 0.293,-0.72692 0.6066,-0.44946 0.457,-1.20628 0.6115,-1.61272 -1.9558,0.39172 -2.7188,-0.46578 -1.048,0.3967 -2.1693,-0.40914 -3.1635,-0.64029 z"
     style="fill:#000000;fill-opacity:1;stroke-width:0.08124915" />
</svg>
