<?xml version="1.0" encoding="UTF-8" standalone="no"?>
<svg
   xmlns:dc="http://purl.org/dc/elements/1.1/"
   xmlns:cc="http://creativecommons.org/ns#"
   xmlns:rdf="http://www.w3.org/1999/02/22-rdf-syntax-ns#"
   xmlns:svg="http://www.w3.org/2000/svg"
   xmlns="http://www.w3.org/2000/svg"
   version="1.1"
   id="svg2"
   width="560"
   height="1059.5765"
   viewBox="0 0 560 1059.5765">
  <metadata
     id="metadata8">
    <rdf:RDF>
      <cc:Work
         rdf:about="">
        <dc:format>image/svg+xml</dc:format>
        <dc:type
           rdf:resource="http://purl.org/dc/dcmitype/StillImage" />
        <dc:title></dc:title>
      </cc:Work>
    </rdf:RDF>
  </metadata>
  <defs
     id="defs6" />
  <text
     id="text4955"
     y="109.57654"
     x="40.588543"
     style="font-style:normal;font-variant:normal;font-weight:normal;font-stretch:normal;font-size:69.33333588px;line-height:1.25;font-family:Rose;-inkscape-font-specification:Rose;letter-spacing:0px;word-spacing:0px;fill:#000000;fill-opacity:1;stroke:none"
     xml:space="preserve"><tspan
       y="109.57654"
       x="40.588543"
       id="tspan4953">4</tspan></text>
  <text
     id="text4955-6"
     y="109.57654"
     x="480.58868"
     style="font-style:normal;font-variant:normal;font-weight:normal;font-stretch:normal;font-size:69.33216858px;line-height:1.25;font-family:Rose;-inkscape-font-specification:Rose;letter-spacing:0px;word-spacing:0px;fill:#000000;fill-opacity:1;stroke:none;stroke-width:0.99998319"
     xml:space="preserve"><tspan
       style="stroke-width:0.99998319"
       y="109.57654"
       x="480.58868"
       id="tspan4953-2">4</tspan></text>
  <text
     transform="scale(-1)"
     id="text4955-3"
     y="-968.99841"
     x="-83.921875"
     style="font-style:normal;font-variant:normal;font-weight:normal;font-stretch:normal;font-size:69.33333588px;line-height:1.25;font-family:Rose;-inkscape-font-specification:Rose;letter-spacing:0px;word-spacing:0px;fill:#000000;fill-opacity:1;stroke:none"
     xml:space="preserve"><tspan
       y="-968.99841"
       x="-83.921875"
       id="tspan4953-7">4</tspan></text>
  <text
     transform="scale(-1)"
     id="text4955-6-2"
     y="-968.99841"
     x="-523.92126"
     style="font-style:normal;font-variant:normal;font-weight:normal;font-stretch:normal;font-size:69.33216858px;line-height:1.25;font-family:Rose;-inkscape-font-specification:Rose;letter-spacing:0px;word-spacing:0px;fill:#000000;fill-opacity:1;stroke:none;stroke-width:0.99998319"
     xml:space="preserve"><tspan
       style="stroke-width:0.99998319"
       y="-968.99841"
       x="-523.92126"
       id="tspan4953-2-7">4</tspan></text>
  <path
     style="fill:#000000;fill-opacity:1;stroke-width:0.08124915"
     d="m 59.699192,154.57636 c 0.11074,-1.35908 0.89519,-2.66011 1.08635,-4.05351 0.59558,-2.95831 1.25602,-5.93748 1.17374,-8.98922 -2.01045,0.0525 -3.88853,1.19138 -5.21364,2.76816 -1.10377,1.0289 -2.41077,2.02696 -3.94851,1.9381 -2.14711,0.27478 -4.2576,-1.202 -5.03368,-3.34537 -0.50159,-1.4355 -0.54206,-3.20439 0.24869,-4.54057 1.213,-2.44634 4.24097,-3.58027 6.57279,-2.35899 1.47012,0.60608 2.14174,2.36719 3.50774,3.14366 0.8253,0.5955 3.05843,1.96063 3.57241,0.7028 0.53612,-1.03722 -0.42577,-2.74987 -1.12853,-3.83176 -1.23307,-1.48966 -2.77724,-2.83642 -3.25572,-4.86267 -0.48685,-2.74348 1.1947,-5.77247 3.78289,-6.36714 1.36441,-0.49814 2.87285,-0.0189 4.05165,0.75307 1.56922,1.17721 2.40318,3.44187 2.06563,5.4508 -0.22829,1.53502 -1.23069,2.66181 -2.19939,3.69755 -1.17615,1.47228 -2.10958,3.41956 -1.73321,5.40552 1.10536,0.1028 2.4607,-0.47422 3.32364,-1.29491 1.64606,-1.18896 2.77428,-3.33876 4.90106,-3.62774 2.55013,-0.54909 5.27543,1.38716 5.78797,4.13707 0.34885,1.54058 0.0401,3.19805 -0.90705,4.42046 -1.07074,1.53857 -2.87478,2.339 -4.64458,2.10096 -1.89033,-0.22488 -3.2129,-1.83605 -4.6503,-2.98325 -1.01491,-0.5788 -2.95453,-1.92378 -3.79729,-1.00161 0.14287,3.54625 0.82893,7.05838 1.86293,10.42624 0.29291,0.72691 0.60658,0.44946 0.45698,1.20627 0.61146,1.61276 -1.95586,-0.39171 -2.7188,0.46579 -1.04802,-0.3967 -2.16933,0.40913 -3.16358,0.64029 z"
     id="path4847-5" />
  <path
     style="fill:#000000;fill-opacity:1;stroke-width:0.08124915"
     d="m 499.69919,154.57636 c 0.11074,-1.35908 0.89518,-2.66011 1.08639,-4.05351 0.59554,-2.95831 1.25597,-5.93748 1.17373,-8.98922 -2.01044,0.0525 -3.88853,1.19138 -5.21363,2.76816 -1.10381,1.0289 -2.41077,2.02696 -3.94855,1.9381 -2.14707,0.27478 -4.25756,-1.202 -5.03369,-3.34537 -0.50156,-1.4355 -0.54207,-3.20439 0.2487,-4.54057 1.213,-2.44634 4.241,-3.58027 6.57278,-2.35899 1.47016,0.60608 2.14175,2.36719 3.50778,3.14366 0.8253,0.5955 3.0584,1.96063 3.57237,0.7028 0.53613,-1.03722 -0.42572,-2.74987 -1.12852,-3.83176 -1.23308,-1.48966 -2.77724,-2.83642 -3.25569,-4.86267 -0.48688,-2.74348 1.19467,-5.77247 3.78285,-6.36714 1.36445,-0.49814 2.8729,-0.0189 4.05166,0.75307 1.56926,1.17721 2.40317,3.44187 2.06562,5.4508 -0.22828,1.53502 -1.23069,2.66181 -2.19934,3.69755 -1.17615,1.47228 -2.10958,3.41956 -1.73326,5.40552 1.10537,0.1028 2.4607,-0.47422 3.32368,-1.29491 1.64603,-1.18896 2.77425,-3.33876 4.90103,-3.62774 2.55012,-0.54909 5.27543,1.38716 5.78797,4.13707 0.34885,1.54058 0.0401,3.19805 -0.90705,4.42046 -1.07074,1.53857 -2.87478,2.339 -4.64455,2.10096 -1.89037,-0.22488 -3.21294,-1.83605 -4.65033,-2.98325 -1.01488,-0.5788 -2.95449,-1.92378 -3.79725,-1.00161 0.14286,3.54625 0.82892,7.05838 1.86289,10.42624 0.29291,0.72691 0.60658,0.44946 0.45702,1.20627 0.61141,1.61276 -1.95587,-0.39171 -2.7188,0.46579 -1.04807,-0.3967 -2.16938,0.40913 -3.16362,0.64029 z"
     id="path4847-5-4" />
  <path
     style="fill:#000000;fill-opacity:1;stroke-width:0.08124915"
     d="m 62.699192,924.57642 c 0.11074,1.35908 0.89519,2.6601 1.08635,4.0535 0.59558,2.95835 1.25602,5.93749 1.17374,8.98923 -2.01045,-0.0525 -3.88853,-1.19138 -5.21364,-2.76816 -1.10377,-1.0289 -2.41077,-2.02696 -3.94851,-1.93811 -2.14711,-0.27439 -4.2576,1.20201 -5.03368,3.34538 -0.50159,1.4355 -0.54206,3.20443 0.24831,4.54057 1.213,2.44634 4.24097,3.58027 6.57279,2.35899 1.47012,-0.60608 2.14174,-2.36719 3.50774,-3.14366 0.8253,-0.5955 3.05843,-1.96063 3.57241,-0.7028 0.53613,1.03721 -0.42576,2.74987 -1.12853,3.83176 -1.23307,1.48966 -2.77723,2.83642 -3.25572,4.86266 -0.48684,2.74349 1.19471,5.77248 3.78289,6.36715 1.36441,0.49814 2.87286,0.0189 4.05165,-0.75307 1.56922,-1.17721 2.40318,-3.44187 2.06563,-5.4508 -0.22829,-1.53502 -1.23069,-2.66181 -2.19938,-3.69755 -1.17616,-1.47228 -2.10959,-3.41957 -1.73322,-5.40552 1.10536,-0.1028 2.4607,0.47422 3.32364,1.29491 1.64606,1.18896 2.77429,3.33879 4.90106,3.62774 2.55013,0.54909 5.27543,-1.38717 5.78797,-4.13707 0.34885,-1.54058 0.0401,-3.19805 -0.90705,-4.42046 -1.07074,-1.53857 -2.87478,-2.339 -4.64458,-2.10097 -1.89033,0.22488 -3.2129,1.83606 -4.65029,2.98326 -1.01492,0.5788 -2.95454,1.92378 -3.7973,1.00165 0.14287,-3.54629 0.82893,-7.05842 1.86293,-10.42628 0.29292,-0.72692 0.60658,-0.44946 0.45699,-1.20628 0.61145,-1.61272 -1.95587,0.39172 -2.71881,-0.46578 -1.04802,0.3967 -2.16933,-0.40914 -3.16357,-0.64029 z"
     id="path4847-5-7" />
  <path
     style="fill:#000000;fill-opacity:1;stroke-width:0.08124915"
     d="m 502.49922,924.57642 c 0.11074,1.35908 0.89518,2.6601 1.08635,4.0535 0.59557,2.95835 1.25601,5.93749 1.17373,8.98923 -2.01045,-0.0525 -3.88853,-1.19138 -5.21363,-2.76816 -1.10381,-1.0289 -2.41077,-2.02696 -3.94855,-1.93811 -2.14708,-0.27439 -4.25756,1.20201 -5.03365,3.34538 -0.50158,1.4355 -0.54206,3.20443 0.24831,4.54057 1.21304,2.44634 4.24101,3.58027 6.57279,2.35899 1.47016,-0.60608 2.14178,-2.36719 3.50778,-3.14366 0.8253,-0.5955 3.05843,-1.96063 3.57241,-0.7028 0.53613,1.03721 -0.42576,2.74987 -1.12853,3.83176 -1.23307,1.48966 -2.77723,2.83642 -3.25572,4.86266 -0.48684,2.74349 1.19471,5.77248 3.78289,6.36715 1.36441,0.49814 2.87286,0.0189 4.05165,-0.75307 1.56922,-1.17721 2.40318,-3.44187 2.06563,-5.4508 -0.22829,-1.53502 -1.23069,-2.66181 -2.19938,-3.69755 -1.17616,-1.47228 -2.10959,-3.41957 -1.73326,-5.40552 1.1054,-0.1028 2.46074,0.47422 3.32368,1.29491 1.64602,1.18896 2.77429,3.33879 4.90107,3.62774 2.55012,0.54909 5.27542,-1.38717 5.78796,-4.13707 0.34885,-1.54058 0.0401,-3.19805 -0.90705,-4.42046 -1.07074,-1.53857 -2.87478,-2.339 -4.64458,-2.10097 -1.89033,0.22488 -3.2129,1.83606 -4.65029,2.98326 -1.01492,0.5788 -2.95454,1.92378 -3.7973,1.00165 0.14287,-3.54629 0.82893,-7.05842 1.86293,-10.42628 0.29292,-0.72692 0.60658,-0.44946 0.45699,-1.20628 0.61145,-1.61272 -1.95587,0.39172 -2.71881,-0.46578 -1.04802,0.3967 -2.16933,-0.40914 -3.16357,-0.64029 z"
     id="path4847-5-3" />
  <path
     style="fill:#000000;fill-opacity:1;stroke-width:0.27083036"
     d="m 370.99735,379.57654 c 0.36926,-4.53026 2.98393,-8.86704 3.6212,-13.51178 1.9852,-9.86105 4.18662,-19.79157 3.91245,-29.96409 -6.70148,0.17461 -12.96177,3.97126 -17.37876,9.2273 -3.67933,3.42958 -8.03591,6.75655 -13.16178,6.46031 -7.15699,0.91532 -14.19194,-4.00664 -16.77892,-11.15131 -1.67191,-4.78492 -1.80684,-10.68132 0.82833,-15.13523 4.04333,-8.15445 14.1366,-11.93424 21.90924,-7.86323 4.90049,2.02023 7.13918,7.89063 11.69257,10.47885 2.75101,1.98501 10.19471,6.53541 11.90801,2.3427 1.78703,-3.45747 -1.41922,-9.16626 -3.76177,-12.77261 -4.11027,-4.96554 -9.2575,-9.45471 -10.85238,-16.20884 -1.62285,-9.14495 3.98226,-19.24159 12.60956,-21.22388 4.5481,-1.66046 9.57623,-0.0601 13.50554,2.51036 5.23075,3.92392 8.01052,11.47285 6.88543,18.16926 -0.7609,5.11669 -4.10238,8.87271 -7.33123,12.3252 -3.92054,4.90752 -7.03196,11.39848 -5.7775,18.01833 3.68455,0.3428 8.20233,-1.58075 11.0789,-4.3163 5.48677,-3.96329 9.24755,-11.12927 16.33678,-12.09252 8.50042,-1.83028 17.58482,4.62395 19.29328,13.79021 1.16251,5.13532 0.13341,10.66019 -3.02355,14.73498 -3.56912,5.12844 -9.58254,7.79663 -15.48185,7.0032 -6.30119,-0.74952 -10.70975,-6.12023 -15.50106,-9.94428 -3.38298,-1.92933 -9.84835,-6.41253 -12.65756,-3.33872 0.47637,11.82089 2.7631,23.52801 6.20973,34.75415 0.97659,2.4231 2.02189,1.49828 1.52334,4.02089 2.03811,5.37589 -6.51957,-1.3056 -9.06267,1.55271 -3.49349,-1.32235 -7.23118,1.36373 -10.54533,2.13434 z"
     id="path4847" />
  <path
     style="fill:#000000;fill-opacity:1;stroke-width:0.27083036"
     d="m 170.99734,379.57654 c 0.36926,-4.53025 2.98394,-8.86703 3.6212,-13.51177 1.9852,-9.86105 4.18663,-19.79157 3.91246,-29.96409 -6.70148,0.17461 -12.96178,3.97126 -17.37876,9.2273 -3.67933,3.42958 -8.03592,6.75654 -13.16179,6.46031 -7.15699,0.91532 -14.19194,-4.00664 -16.77891,-11.15131 -1.67191,-4.78492 -1.80684,-10.68132 0.82832,-15.13523 4.04334,-8.15445 14.13661,-11.93424 21.90924,-7.86323 4.9005,2.02023 7.13919,7.89063 11.69258,10.47885 2.751,1.98501 10.1947,6.53541 11.908,2.3427 1.78704,-3.45747 -1.41921,-9.16626 -3.76176,-12.77261 -4.11028,-4.96554 -9.2575,-9.45472 -10.85239,-16.20884 -1.62285,-9.14495 3.98227,-19.24159 12.60957,-21.22388 4.54809,-1.66046 9.57622,-0.0601 13.50553,2.51036 5.23076,3.92392 8.01052,11.47285 6.88543,18.16926 -0.76089,5.11669 -4.10237,8.87271 -7.33122,12.32519 -3.92054,4.90753 -7.03196,11.39849 -5.7775,18.01834 3.68455,0.3428 8.20233,-1.58075 11.07889,-4.3163 5.48678,-3.96329 9.24756,-11.12927 16.33678,-12.09252 8.50042,-1.83028 17.58482,4.62395 19.29328,13.79021 1.16251,5.13532 0.13341,10.66019 -3.02355,14.73498 -3.56912,5.12844 -9.58253,7.79663 -15.48185,7.0032 -6.30119,-0.74952 -10.70974,-6.12023 -15.50105,-9.94428 -3.38298,-1.92934 -9.84835,-6.41254 -12.65756,-3.33872 0.47637,11.82089 2.7631,23.52801 6.20972,34.75415 0.9766,2.4231 2.0219,1.49828 1.52334,4.02089 2.03811,5.37589 -6.51957,-1.3056 -9.06266,1.55271 -3.4935,-1.32235 -7.23118,1.36373 -10.54534,2.13433 z"
     id="path4847-3" />
  <path
     style="fill:#000000;fill-opacity:1;stroke-width:0.27083036"
     d="m 370.99735,679.57655 c 0.36926,4.53025 2.98393,8.86703 3.6212,13.51177 1.9852,9.86105 4.18662,19.79157 3.91245,29.9641 -6.70148,-0.17462 -12.96177,-3.97127 -17.37876,-9.22731 -3.67933,-3.42958 -8.03592,-6.75654 -13.16179,-6.4603 -7.15699,-0.91533 -14.19193,4.00663 -16.77891,11.1513 -1.67191,4.78492 -1.80684,10.68133 0.82833,15.13523 4.04333,8.15445 14.1366,11.93424 21.90924,7.86324 4.90049,-2.02024 7.13918,-7.89064 11.69257,-10.47886 2.751,-1.98501 10.19471,-6.53541 11.90801,-2.3427 1.78703,3.45747 -1.41922,9.16626 -3.76177,12.77261 -4.11027,4.96554 -9.2575,9.45472 -10.85238,16.20885 -1.62286,9.14494 3.98226,19.24159 12.60956,21.22387 4.54809,1.66046 9.57623,0.0601 13.50554,-2.51036 5.23075,-3.92392 8.01052,-11.47285 6.88543,-18.16926 -0.7609,-5.11669 -4.10238,-8.87271 -7.33123,-12.32519 -3.92054,-4.90753 -7.03196,-11.39849 -5.7775,-18.01833 3.68455,-0.34281 8.20233,1.58075 11.07889,4.31629 5.48678,3.96329 9.24756,11.12927 16.33679,12.09252 8.50042,1.83028 17.58481,-4.62394 19.29327,-13.79021 1.16251,-5.13532 0.13342,-10.66019 -3.02354,-14.73498 -3.56912,-5.12844 -9.58254,-7.79663 -15.48185,-7.0032 -6.30119,0.74952 -10.70975,6.12023 -15.50106,9.94428 -3.38298,1.92934 -9.84835,6.41254 -12.65756,3.33872 0.47637,-11.82089 2.7631,-23.52801 6.20973,-34.75415 0.97659,-2.4231 2.02189,-1.49828 1.52334,-4.02089 2.03811,-5.37589 -6.51958,1.3056 -9.06267,-1.55271 -3.49349,1.32235 -7.23118,-1.36373 -10.54533,-2.13433 z"
     id="path4847-4" />
  <path
     style="fill:#000000;fill-opacity:1;stroke-width:0.27083036"
     d="m 170.99734,679.57654 c 0.36926,4.53026 2.98394,8.86704 3.6212,13.51178 1.9852,9.86105 4.18663,19.79157 3.91246,29.96409 -6.70148,-0.17461 -12.96178,-3.97126 -17.37876,-9.2273 -3.67933,-3.42958 -8.03592,-6.75655 -13.16179,-6.46031 -7.15699,-0.91532 -14.19194,4.00664 -16.77891,11.15131 -1.67191,4.78492 -1.80684,10.68132 0.82832,15.13523 4.04334,8.15445 14.13661,11.93424 21.90924,7.86323 4.9005,-2.02023 7.13919,-7.89063 11.69257,-10.47885 2.75101,-1.98501 10.19471,-6.53541 11.90801,-2.3427 1.78704,3.45747 -1.41921,9.16626 -3.76176,12.77261 -4.11028,4.96554 -9.2575,9.45471 -10.85239,16.20884 -1.62285,9.14495 3.98226,19.24159 12.60957,21.22388 4.54809,1.66046 9.57622,0.0601 13.50553,-2.51036 5.23076,-3.92392 8.01052,-11.47285 6.88543,-18.16926 -0.76089,-5.11669 -4.10237,-8.87271 -7.33122,-12.3252 -3.92054,-4.90752 -7.03196,-11.39848 -5.7775,-18.01833 3.68455,-0.3428 8.20233,1.58075 11.07889,4.3163 5.48678,3.96329 9.24756,11.12927 16.33678,12.09252 8.50042,1.83028 17.58482,-4.62395 19.29328,-13.79021 1.16251,-5.13532 0.13342,-10.66019 -3.02355,-14.73498 -3.56912,-5.12844 -9.58253,-7.79663 -15.48185,-7.0032 -6.30119,0.74952 -10.70974,6.12023 -15.50105,9.94428 -3.38298,1.92933 -9.84835,6.41253 -12.65756,3.33872 0.47637,-11.82089 2.7631,-23.52801 6.20972,-34.75415 0.9766,-2.4231 2.0219,-1.49828 1.52334,-4.02089 2.03811,-5.37589 -6.51957,1.3056 -9.06266,-1.55271 -3.4935,1.32235 -7.23118,-1.36373 -10.54534,-2.13434 z"
     id="path4847-1" />
</svg>
