<?xml version="1.0" encoding="UTF-8" standalone="no"?>
<svg
   xmlns:dc="http://purl.org/dc/elements/1.1/"
   xmlns:cc="http://creativecommons.org/ns#"
   xmlns:rdf="http://www.w3.org/1999/02/22-rdf-syntax-ns#"
   xmlns:svg="http://www.w3.org/2000/svg"
   xmlns="http://www.w3.org/2000/svg"
   version="1.1"
   id="svg2"
   width="560"
   height="1059.5765"
   viewBox="0 0 560 1059.5765">
  <metadata
     id="metadata8">
    <rdf:RDF>
      <cc:Work
         rdf:about="">
        <dc:format>image/svg+xml</dc:format>
        <dc:type
           rdf:resource="http://purl.org/dc/dcmitype/StillImage" />
        <dc:title></dc:title>
      </cc:Work>
    </rdf:RDF>
  </metadata>
  <defs
     id="defs6" />
  <text
     id="text4955"
     y="109.57654"
     x="40.588543"
     style="font-style:normal;font-variant:normal;font-weight:normal;font-stretch:normal;font-size:69.33333588px;line-height:1.25;font-family:Rose;-inkscape-font-specification:Rose;letter-spacing:0px;word-spacing:0px;fill:#000000;fill-opacity:1;stroke:none"
     xml:space="preserve"><tspan
       y="109.57654"
       x="40.588543"
       id="tspan4953">10</tspan></text>
  <text
     id="text4955-6"
     y="109.57654"
     x="440.58871"
     style="font-style:normal;font-variant:normal;font-weight:normal;font-stretch:normal;font-size:69.33216858px;line-height:1.25;font-family:Rose;-inkscape-font-specification:Rose;letter-spacing:0px;word-spacing:0px;fill:#000000;fill-opacity:1;stroke:none;stroke-width:0.99998319"
     xml:space="preserve"><tspan
       style="stroke-width:0.99998319"
       y="109.57654"
       x="440.58871"
       id="tspan4953-2">10</tspan></text>
  <text
     transform="scale(-1)"
     id="text4955-3"
     y="-968.99841"
     x="-133.65366"
     style="font-style:normal;font-variant:normal;font-weight:normal;font-stretch:normal;font-size:69.33333588px;line-height:1.25;font-family:Rose;-inkscape-font-specification:Rose;letter-spacing:0px;word-spacing:0px;fill:#000000;fill-opacity:1;stroke:none"
     xml:space="preserve"><tspan
       y="-968.99841"
       x="-133.65366"
       id="tspan4953-7">10</tspan></text>
  <text
     transform="scale(-1)"
     id="text4955-6-2"
     y="-968.99841"
     x="-533.65228"
     style="font-style:normal;font-variant:normal;font-weight:normal;font-stretch:normal;font-size:69.33216858px;line-height:1.25;font-family:Rose;-inkscape-font-specification:Rose;letter-spacing:0px;word-spacing:0px;fill:#000000;fill-opacity:1;stroke:none;stroke-width:0.99998319"
     xml:space="preserve"><tspan
       style="stroke-width:0.99998319"
       y="-968.99841"
       x="-533.65228"
       id="tspan4953-2-7">10</tspan></text>
  <path
     style="fill:#000000;fill-opacity:1;stroke-width:0.08124915"
     d="m 59.299198,153.57636 c 0.11074,-1.35908 0.89518,-2.6601 1.08635,-4.0535 0.59557,-2.95831 1.25601,-5.93749 1.17373,-8.98923 -2.01045,0.0525 -3.88853,1.19138 -5.21363,2.76816 -1.10378,1.0289 -2.41077,2.02696 -3.94851,1.93811 -2.14711,0.27477 -4.2576,-1.20201 -5.03369,-3.34538 -0.50158,-1.4355 -0.54206,-3.20439 0.24869,-4.54057 1.213,-2.44634 4.24097,-3.58027 6.57279,-2.35899 1.47012,0.60608 2.14174,2.36719 3.50774,3.14366 0.8253,0.5955 3.05843,1.96063 3.57241,0.7028 0.53613,-1.03721 -0.42576,-2.74987 -1.12853,-3.83176 -1.23307,-1.48966 -2.77723,-2.83642 -3.25572,-4.86266 -0.48684,-2.74349 1.19471,-5.77248 3.78289,-6.36715 1.36441,-0.49814 2.87286,-0.0189 4.05165,0.75307 1.56923,1.17721 2.40318,3.44187 2.06563,5.4508 -0.22828,1.53502 -1.23069,2.66181 -2.19938,3.69755 -1.17616,1.47228 -2.10959,3.41957 -1.73322,5.40552 1.10536,0.1028 2.4607,-0.47422 3.32364,-1.29491 1.64606,-1.18896 2.77429,-3.33875 4.90107,-3.62774 2.55012,-0.54909 5.27542,1.38717 5.78796,4.13707 0.34885,1.54058 0.0401,3.19805 -0.90704,4.42046 -1.07074,1.53857 -2.87479,2.339 -4.64459,2.10097 -1.89033,-0.22488 -3.2129,-1.83606 -4.65029,-2.98326 -1.01492,-0.5788 -2.95454,-1.92378 -3.79729,-1.00161 0.14286,3.54625 0.82892,7.05838 1.86292,10.42624 0.29292,0.72692 0.60658,0.44946 0.45699,1.20628 0.61145,1.61276 -1.95587,-0.39172 -2.71881,0.46578 -1.04802,-0.3967 -2.16933,0.40914 -3.16357,0.64029 z"
     id="path4847-5" />
  <path
     style="fill:#000000;fill-opacity:1;stroke-width:0.08124915"
     d="m 499.29915,153.57636 c 0.1108,-1.35908 0.8952,-2.6601 1.0864,-4.0535 0.5956,-2.95831 1.256,-5.93749 1.1738,-8.98923 -2.0105,0.0525 -3.8886,1.19138 -5.2137,2.76816 -1.1038,1.0289 -2.4107,2.02696 -3.9485,1.93811 -2.1471,0.27477 -4.25758,-1.20201 -5.03371,-3.34538 -0.50156,-1.4355 -0.54207,-3.20439 0.2487,-4.54057 1.21301,-2.44634 4.24101,-3.58027 6.57281,-2.35899 1.4701,0.60608 2.1417,2.36719 3.5078,3.14366 0.8253,0.5955 3.0584,1.96063 3.5723,0.7028 0.5362,-1.03721 -0.4257,-2.74987 -1.1285,-3.83176 -1.2331,-1.48966 -2.7772,-2.83642 -3.2557,-4.86266 -0.4869,-2.74349 1.1947,-5.77248 3.7829,-6.36715 1.3644,-0.49814 2.8729,-0.0189 4.0516,0.75307 1.5693,1.17721 2.4032,3.44187 2.0656,5.4508 -0.2282,1.53502 -1.2306,2.66181 -2.1993,3.69755 -1.1761,1.47228 -2.1096,3.41957 -1.7333,5.40552 1.1054,0.1028 2.4607,-0.47422 3.3237,-1.29491 1.6461,-1.18896 2.7743,-3.33875 4.9011,-3.62774 2.5501,-0.54909 5.2754,1.38717 5.7879,4.13707 0.3489,1.54058 0.04,3.19805 -0.907,4.42046 -1.0708,1.53857 -2.8748,2.339 -4.6446,2.10097 -1.8903,-0.22488 -3.2129,-1.83606 -4.6503,-2.98326 -1.0149,-0.5788 -2.9545,-1.92378 -3.7973,-1.00161 0.1429,3.54625 0.829,7.05838 1.8629,10.42624 0.2929,0.72692 0.6066,0.44946 0.4571,1.20628 0.6114,1.61276 -1.9559,-0.39172 -2.7188,0.46578 -1.0481,-0.3967 -2.1694,0.40914 -3.1637,0.64029 z"
     id="path4847-5-4" />
  <path
     style="fill:#000000;fill-opacity:1;stroke-width:0.08124915"
     d="m 62.299198,923.57643 c 0.11074,1.3591 0.89518,2.6601 1.08635,4.0535 0.59557,2.9583 1.25601,5.9375 1.17373,8.9892 -2.01045,-0.053 -3.88853,-1.1914 -5.21363,-2.7681 -1.10378,-1.0289 -2.41077,-2.027 -3.94851,-1.9381 -2.14711,-0.2744 -4.2576,1.202 -5.03369,3.3453 -0.50158,1.4355 -0.54206,3.2045 0.24831,4.5406 1.21301,2.4463 4.24097,3.5803 6.57279,2.359 1.47012,-0.6061 2.14175,-2.3672 3.50774,-3.1437 0.8253,-0.5955 3.05843,-1.9606 3.57241,-0.7028 0.53613,1.0372 -0.42576,2.7499 -1.12853,3.8318 -1.23307,1.4897 -2.77723,2.8364 -3.25572,4.8627 -0.48684,2.7434 1.19471,5.7724 3.78289,6.3671 1.36441,0.4981 2.87286,0.019 4.05166,-0.7531 1.56922,-1.1772 2.40317,-3.4418 2.06562,-5.4508 -0.22828,-1.535 -1.23069,-2.6618 -2.19938,-3.6975 -1.17615,-1.4723 -2.10958,-3.4196 -1.73322,-5.4055 1.10536,-0.1028 2.4607,0.4742 3.32364,1.2949 1.64606,1.1889 2.77429,3.3388 4.90107,3.6277 2.55012,0.5491 5.27542,-1.3872 5.78797,-4.1371 0.34885,-1.5405 0.0401,-3.198 -0.90705,-4.4204 -1.07074,-1.5386 -2.87479,-2.339 -4.64459,-2.101 -1.89033,0.2249 -3.2129,1.8361 -4.65029,2.9833 -1.01492,0.5788 -2.95453,1.9238 -3.79729,1.0016 0.14286,-3.5463 0.82892,-7.0584 1.86293,-10.4263 0.29291,-0.7269 0.60657,-0.4494 0.45698,-1.2062 0.61145,-1.6128 -1.95587,0.3917 -2.7188,-0.4658 -1.04803,0.3967 -2.16934,-0.4092 -3.16358,-0.6403 z"
     id="path4847-5-7" />
  <path
     style="fill:#000000;fill-opacity:1;stroke-width:0.08124915"
     d="m 502.09925,923.57643 c 0.1107,1.3591 0.8952,2.6601 1.0863,4.0535 0.5956,2.9583 1.256,5.9375 1.1738,8.9892 -2.0105,-0.053 -3.8886,-1.1914 -5.2137,-2.7681 -1.1038,-1.0289 -2.4107,-2.027 -3.9485,-1.9381 -2.1471,-0.2744 -4.2576,1.202 -5.0337,3.3453 -0.5016,1.4355 -0.542,3.2045 0.2483,4.5406 1.2131,2.4463 4.241,3.5803 6.5728,2.359 1.4702,-0.6061 2.1418,-2.3672 3.5078,-3.1437 0.8253,-0.5955 3.0584,-1.9606 3.5724,-0.7028 0.5361,1.0372 -0.4257,2.7499 -1.1285,3.8318 -1.2331,1.4897 -2.7772,2.8364 -3.2557,4.8627 -0.4869,2.7434 1.1947,5.7724 3.7829,6.3671 1.3644,0.4981 2.8728,0.019 4.0516,-0.7531 1.5692,-1.1772 2.4032,-3.4418 2.0656,-5.4508 -0.2283,-1.535 -1.2307,-2.6618 -2.1993,-3.6975 -1.1762,-1.4723 -2.1096,-3.4196 -1.7333,-5.4055 1.1054,-0.1028 2.4607,0.4742 3.3237,1.2949 1.646,1.1889 2.7743,3.3388 4.901,3.6277 2.5502,0.5491 5.2755,-1.3872 5.788,-4.1371 0.3489,-1.5405 0.04,-3.198 -0.907,-4.4204 -1.0708,-1.5386 -2.8748,-2.339 -4.6446,-2.101 -1.8904,0.2249 -3.2129,1.8361 -4.6503,2.9833 -1.0149,0.5788 -2.9546,1.9238 -3.7973,1.0016 0.1429,-3.5463 0.8289,-7.0584 1.8629,-10.4263 0.2929,-0.7269 0.6066,-0.4494 0.457,-1.2062 0.6115,-1.6128 -1.9559,0.3917 -2.7188,-0.4658 -1.048,0.3967 -2.1693,-0.4092 -3.1636,-0.6403 z"
     id="path4847-5-3" />
  <path
     style="fill:#000000;fill-opacity:1;stroke-width:0.27083036"
     d="m 370.99735,319.57654 c 0.36926,-4.53026 2.98393,-8.86704 3.6212,-13.51178 1.9852,-9.86105 4.18662,-19.79157 3.91245,-29.96409 -6.70148,0.17461 -12.96177,3.97126 -17.37876,9.2273 -3.67933,3.42958 -8.03592,6.75655 -13.16179,6.46031 -7.15699,0.91532 -14.19193,-4.00664 -16.77891,-11.15131 -1.67191,-4.78492 -1.80684,-10.68132 0.82832,-15.13523 4.04334,-8.15445 14.13661,-11.93424 21.90925,-7.86323 4.90049,2.02023 7.13918,7.89063 11.69257,10.47885 2.751,1.98501 10.19471,6.53541 11.90801,2.3427 1.78703,-3.45747 -1.41922,-9.16626 -3.76177,-12.77261 -4.11027,-4.96554 -9.2575,-9.45471 -10.85238,-16.20884 -1.62286,-9.14495 3.98226,-19.24159 12.60956,-21.22388 4.54809,-1.66046 9.57623,-0.0601 13.50554,2.51036 5.23075,3.92392 8.01052,11.47285 6.88543,18.16927 -0.7609,5.11668 -4.10238,8.8727 -7.33123,12.32519 -3.92054,4.90752 -7.03196,11.39848 -5.7775,18.01833 3.68455,0.3428 8.20233,-1.58075 11.07889,-4.3163 5.48678,-3.96329 9.24756,-11.12927 16.33679,-12.09252 8.50042,-1.83028 17.58481,4.62395 19.29327,13.79021 1.16251,5.13532 0.13342,10.66019 -3.02354,14.73498 -3.56912,5.12844 -9.58254,7.79664 -15.48185,7.0032 -6.30119,-0.74952 -10.70975,-6.12023 -15.50106,-9.94428 -3.38298,-1.92933 -9.84835,-6.41253 -12.65756,-3.33872 0.47637,11.82089 2.7631,23.52801 6.20973,34.75416 0.97659,2.42309 2.02189,1.49828 1.52334,4.02088 2.03811,5.37589 -6.51958,-1.3056 -9.06267,1.55271 -3.49349,-1.32234 -7.23118,1.36373 -10.54533,2.13434 z"
     id="path4847" />
  <path
     style="fill:#000000;fill-opacity:1;stroke-width:0.27083036"
     d="m 170.99734,319.57654 c 0.36926,-4.53026 2.98394,-8.86704 3.62121,-13.51178 1.98519,-9.86105 4.18662,-19.79157 3.91245,-29.96409 -6.70148,0.17461 -12.96178,3.97126 -17.37876,9.2273 -3.67933,3.42958 -8.03592,6.75655 -13.16179,6.46031 -7.15699,0.91532 -14.19194,-4.00664 -16.77891,-11.15131 -1.67191,-4.78492 -1.80684,-10.68132 0.82832,-15.13523 4.04334,-8.15445 14.13661,-11.93424 21.90924,-7.86323 4.9005,2.02023 7.13919,7.89063 11.69258,10.47885 2.751,1.98501 10.19471,6.53541 11.908,2.3427 1.78704,-3.45747 -1.41921,-9.16626 -3.76176,-12.77261 -4.11028,-4.96554 -9.2575,-9.45471 -10.85239,-16.20884 -1.62285,-9.14495 3.98227,-19.24159 12.60957,-21.22388 4.54809,-1.66046 9.57622,-0.0601 13.50553,2.51036 5.23076,3.92392 8.01052,11.47285 6.88543,18.16927 -0.76089,5.11668 -4.10237,8.8727 -7.33122,12.32519 -3.92054,4.90752 -7.03196,11.39848 -5.7775,18.01833 3.68455,0.3428 8.20233,-1.58075 11.07889,-4.3163 5.48678,-3.96329 9.24756,-11.12927 16.33678,-12.09252 8.50042,-1.83028 17.58482,4.62395 19.29328,13.79021 1.16251,5.13532 0.13342,10.66019 -3.02355,14.73498 -3.56912,5.12844 -9.58253,7.79664 -15.48185,7.0032 -6.30119,-0.74952 -10.70974,-6.12023 -15.50105,-9.94428 -3.38298,-1.92933 -9.84835,-6.41253 -12.65756,-3.33872 0.47637,11.82089 2.7631,23.52801 6.20972,34.75416 0.9766,2.42309 2.0219,1.49828 1.52334,4.02088 2.03811,5.37589 -6.51957,-1.3056 -9.06266,1.55271 -3.49349,-1.32234 -7.23118,1.36373 -10.54534,2.13434 z"
     id="path4847-2" />
  <path
     style="fill:#000000;fill-opacity:1;stroke-width:0.27083036"
     d="m 270.89734,409.57654 c 0.36926,-4.53025 2.98394,-8.86703 3.62121,-13.51177 1.98519,-9.86105 4.18662,-19.79157 3.91245,-29.9641 -6.70148,0.17462 -12.96178,3.97127 -17.37876,9.22731 -3.67933,3.42958 -8.03592,6.75654 -13.16179,6.4603 -7.15699,0.91533 -14.19193,-4.00663 -16.77891,-11.1513 -1.67191,-4.78492 -1.80684,-10.68133 0.82832,-15.13523 4.04334,-8.15445 14.13661,-11.93424 21.90925,-7.86324 4.90049,2.02024 7.13918,7.89064 11.69257,10.47886 2.751,1.98501 10.19471,6.53541 11.908,2.3427 1.78704,-3.45747 -1.41921,-9.16626 -3.76176,-12.77261 -4.11027,-4.96554 -9.2575,-9.45472 -10.85238,-16.20885 -1.62286,-9.14494 3.98226,-19.24159 12.60956,-21.22387 4.54809,-1.66046 9.57623,-0.0601 13.50554,2.51036 5.23075,3.92392 8.01052,11.47285 6.88543,18.16926 -0.7609,5.11669 -4.10238,8.87271 -7.33123,12.32519 -3.92054,4.90753 -7.03196,11.39849 -5.7775,18.01833 3.68455,0.34281 8.20233,-1.58075 11.07889,-4.31629 5.48678,-3.96329 9.24756,-11.12927 16.33678,-12.09252 8.50043,-1.83028 17.58482,4.62394 19.29328,13.79021 1.16251,5.13532 0.13342,10.66019 -3.02354,14.73498 -3.56912,5.12844 -9.58254,7.79663 -15.48186,7.0032 -6.30119,-0.74952 -10.70974,-6.12023 -15.50105,-9.94428 -3.38298,-1.92934 -9.84835,-6.41254 -12.65756,-3.33872 0.47637,11.82089 2.7631,23.52801 6.20973,34.75415 0.97659,2.4231 2.02189,1.49828 1.52333,4.02089 2.03812,5.37589 -6.51957,-1.3056 -9.06266,1.55271 -3.49349,-1.32235 -7.23118,1.36373 -10.54534,2.13433 z"
     id="path4847-3" />
  <path
     style="fill:#000000;fill-opacity:1;stroke-width:0.27083036"
     d="m 170.99734,491.57654 c 0.36926,-4.53026 2.98394,-8.86704 3.6212,-13.51178 1.9852,-9.86105 4.18662,-19.79157 3.91246,-29.96409 -6.70148,0.17461 -12.96178,3.97126 -17.37876,9.2273 -3.67934,3.42958 -8.03592,6.75655 -13.16179,6.46031 -7.15699,0.91532 -14.19194,-4.00664 -16.77891,-11.15131 -1.67191,-4.78492 -1.80684,-10.68132 0.82832,-15.13523 4.04334,-8.15445 14.13661,-11.93424 21.90924,-7.86323 4.9005,2.02023 7.13919,7.89063 11.69257,10.47885 2.75101,1.98501 10.19471,6.53541 11.90801,2.3427 1.78704,-3.45747 -1.41921,-9.16626 -3.76176,-12.77261 -4.11028,-4.96554 -9.2575,-9.45471 -10.85239,-16.20884 -1.62285,-9.14495 3.98226,-19.24159 12.60956,-21.22388 4.5481,-1.66046 9.57623,-0.0601 13.50554,2.51036 5.23075,3.92392 8.01052,11.47285 6.88543,18.16926 -0.76089,5.11669 -4.10237,8.87271 -7.33122,12.3252 -3.92055,4.90752 -7.03197,11.39848 -5.7775,18.01833 3.68454,0.3428 8.20233,-1.58075 11.07889,-4.3163 5.48678,-3.96329 9.24756,-11.12927 16.33678,-12.09252 8.50042,-1.83028 17.58482,4.62395 19.29328,13.79021 1.16251,5.13532 0.13342,10.66019 -3.02355,14.73498 -3.56912,5.12844 -9.58254,7.79663 -15.48185,7.0032 -6.30119,-0.74952 -10.70975,-6.12023 -15.50105,-9.94428 -3.38298,-1.92933 -9.84836,-6.41253 -12.65756,-3.33872 0.47637,11.82089 2.76309,23.52801 6.20972,34.75415 0.97659,2.4231 2.0219,1.49828 1.52334,4.02089 2.03811,5.37589 -6.51957,-1.3056 -9.06266,1.55271 -3.4935,-1.32235 -7.23119,1.36373 -10.54534,2.13434 z"
     id="path4847-4" />
  <path
     style="fill:#000000;fill-opacity:1;stroke-width:0.27083036"
     d="m 370.99734,491.57654 c 0.36926,-4.53026 2.98394,-8.86704 3.62121,-13.51178 1.98519,-9.86105 4.18662,-19.79157 3.91245,-29.96409 -6.70148,0.17461 -12.96178,3.97126 -17.37876,9.2273 -3.67933,3.42958 -8.03592,6.75655 -13.16179,6.46031 -7.15699,0.91533 -14.19193,-4.00664 -16.77891,-11.15131 -1.67191,-4.78492 -1.80684,-10.68132 0.82832,-15.13523 4.04334,-8.15444 14.13661,-11.93424 21.90925,-7.86323 4.90049,2.02023 7.13918,7.89063 11.69257,10.47885 2.751,1.98501 10.19471,6.53541 11.908,2.34271 1.78704,-3.45748 -1.41921,-9.16627 -3.76176,-12.77262 -4.11027,-4.96554 -9.2575,-9.45471 -10.85238,-16.20884 -1.62286,-9.14495 3.98226,-19.24159 12.60956,-21.22388 4.54809,-1.66046 9.57623,-0.0601 13.50554,2.51037 5.23075,3.92392 8.01052,11.47284 6.88543,18.16926 -0.7609,5.11668 -4.10238,8.8727 -7.33123,12.32519 -3.92054,4.90753 -7.03196,11.39849 -5.7775,18.01833 3.68455,0.3428 8.20233,-1.58075 11.07889,-4.3163 5.48678,-3.96328 9.24756,-11.12927 16.33678,-12.09252 8.50043,-1.83027 17.58482,4.62395 19.29328,13.79021 1.16251,5.13532 0.13342,10.6602 -3.02354,14.73498 -3.56912,5.12844 -9.58254,7.79664 -15.48186,7.0032 -6.30119,-0.74952 -10.70974,-6.12023 -15.50105,-9.94428 -3.38298,-1.92933 -9.84835,-6.41253 -12.65756,-3.33872 0.47637,11.82089 2.7631,23.52802 6.20973,34.75416 0.97659,2.42309 2.02189,1.49828 1.52333,4.02089 2.03812,5.37588 -6.51957,-1.3056 -9.06266,1.5527 -3.49349,-1.32234 -7.23118,1.36373 -10.54534,2.13434 z"
     id="path4847-8" />
  <path
     style="fill:#000000;fill-opacity:1;stroke-width:0.27083036"
     d="m 170.99734,579.57654 c 0.36926,4.53026 2.98394,8.86704 3.6212,13.51178 1.9852,9.86105 4.18663,19.79157 3.91246,29.96409 -6.70148,-0.17461 -12.96178,-3.97126 -17.37876,-9.2273 -3.67933,-3.42958 -8.03592,-6.75655 -13.16179,-6.46031 -7.15699,-0.91532 -14.19194,4.00664 -16.77891,11.15131 -1.67191,4.78492 -1.80684,10.68132 0.82832,15.13523 4.04334,8.15445 14.13661,11.93424 21.90924,7.86323 4.9005,-2.02023 7.13919,-7.89063 11.69258,-10.47885 2.751,-1.98501 10.1947,-6.53541 11.908,-2.3427 1.78704,3.45747 -1.41921,9.16626 -3.76176,12.77261 -4.11028,4.96554 -9.2575,9.45471 -10.85239,16.20884 -1.62285,9.14495 3.98227,19.24159 12.60957,21.22388 4.54809,1.66046 9.57622,0.0601 13.50553,-2.51036 5.23076,-3.92392 8.01052,-11.47285 6.88543,-18.16927 -0.76089,-5.11668 -4.10237,-8.8727 -7.33122,-12.32519 -3.92054,-4.90752 -7.03196,-11.39848 -5.7775,-18.01833 3.68455,-0.3428 8.20233,1.58075 11.07889,4.3163 5.48678,3.96329 9.24756,11.12927 16.33678,12.09252 8.50042,1.83028 17.58482,-4.62395 19.29328,-13.79021 1.16251,-5.13532 0.13342,-10.66019 -3.02355,-14.73498 -3.56912,-5.12844 -9.58253,-7.79664 -15.48185,-7.0032 -6.30119,0.74952 -10.70974,6.12023 -15.50105,9.94428 -3.38298,1.92933 -9.84835,6.41253 -12.65756,3.33872 0.47637,-11.82089 2.7631,-23.52801 6.20972,-34.75416 0.9766,-2.42309 2.0219,-1.49828 1.52334,-4.02088 2.03811,-5.37589 -6.51957,1.3056 -9.06266,-1.55271 -3.4935,1.32234 -7.23118,-1.36373 -10.54534,-2.13434 z"
     id="path4847-37" />
  <path
     style="fill:#000000;fill-opacity:1;stroke-width:0.27083036"
     d="m 370.99734,579.57654 c 0.36926,4.53026 2.98394,8.86704 3.6212,13.51178 1.9852,9.86105 4.18663,19.79157 3.91246,29.96409 -6.70148,-0.17461 -12.96178,-3.97126 -17.37876,-9.2273 -3.67933,-3.42958 -8.03592,-6.75655 -13.16179,-6.46031 -7.15699,-0.91532 -14.19194,4.00664 -16.77891,11.15131 -1.67191,4.78492 -1.80684,10.68132 0.82832,15.13523 4.04334,8.15445 14.13661,11.93424 21.90924,7.86323 4.9005,-2.02023 7.13919,-7.89063 11.69258,-10.47885 2.751,-1.98501 10.1947,-6.53541 11.908,-2.3427 1.78704,3.45747 -1.41921,9.16626 -3.76176,12.77261 -4.11028,4.96554 -9.2575,9.45471 -10.85239,16.20884 -1.62285,9.14495 3.98227,19.24159 12.60957,21.22388 4.54809,1.66046 9.57622,0.0601 13.50553,-2.51036 5.23076,-3.92392 8.01052,-11.47285 6.88543,-18.16927 -0.76089,-5.11668 -4.10237,-8.8727 -7.33122,-12.32519 -3.92054,-4.90752 -7.03196,-11.39848 -5.7775,-18.01833 3.68455,-0.3428 8.20233,1.58075 11.07889,4.3163 5.48678,3.96329 9.24756,11.12927 16.33678,12.09252 8.50042,1.83028 17.58482,-4.62395 19.29328,-13.79021 1.16251,-5.13532 0.13342,-10.66019 -3.02355,-14.73498 -3.56912,-5.12844 -9.58253,-7.79664 -15.48185,-7.0032 -6.30119,0.74952 -10.70974,6.12023 -15.50105,9.94428 -3.38298,1.92933 -9.84835,6.41253 -12.65756,3.33872 0.47637,-11.82089 2.7631,-23.52801 6.20972,-34.75416 0.9766,-2.42309 2.0219,-1.49828 1.52334,-4.02088 2.03811,-5.37589 -6.51957,1.3056 -9.06266,-1.55271 -3.4935,1.32234 -7.23118,-1.36373 -10.54534,-2.13434 z"
     id="path4847-37-2" />
  <path
     style="fill:#000000;fill-opacity:1;stroke-width:0.27083036"
     d="m 270.99735,675.57654 c 0.36926,4.53026 2.98393,8.86704 3.6212,13.51178 1.9852,9.86105 4.18662,19.79157 3.91245,29.96409 -6.70148,-0.17461 -12.96177,-3.97126 -17.37876,-9.2273 -3.67933,-3.42958 -8.03592,-6.75655 -13.16179,-6.46031 -7.15699,-0.91532 -14.19193,4.00664 -16.77891,11.15131 -1.67191,4.78492 -1.80684,10.68132 0.82832,15.13523 4.04334,8.15445 14.13661,11.93424 21.90925,7.86323 4.90049,-2.02023 7.13918,-7.89063 11.69257,-10.47885 2.751,-1.98501 10.19471,-6.53541 11.90801,-2.3427 1.78703,3.45747 -1.41922,9.16626 -3.76177,12.77261 -4.11027,4.96554 -9.2575,9.45471 -10.85238,16.20884 -1.62286,9.14495 3.98226,19.24159 12.60956,21.22388 4.54809,1.66046 9.57623,0.0601 13.50554,-2.51036 5.23075,-3.92392 8.01052,-11.47285 6.88543,-18.16927 -0.7609,-5.11668 -4.10238,-8.8727 -7.33123,-12.32519 -3.92054,-4.90752 -7.03196,-11.39848 -5.7775,-18.01833 3.68455,-0.3428 8.20233,1.58075 11.07889,4.3163 5.48678,3.96329 9.24756,11.12927 16.33679,12.09252 8.50042,1.83028 17.58481,-4.62395 19.29327,-13.79021 1.16251,-5.13532 0.13342,-10.66019 -3.02354,-14.73498 -3.56912,-5.12844 -9.58254,-7.79664 -15.48185,-7.0032 -6.30119,0.74952 -10.70975,6.12023 -15.50106,9.94428 -3.38298,1.92933 -9.84835,6.41253 -12.65756,3.33872 0.47637,-11.82089 2.7631,-23.52801 6.20973,-34.75416 0.97659,-2.42309 2.02189,-1.49828 1.52334,-4.02088 2.03811,-5.37589 -6.51958,1.3056 -9.06267,-1.55271 -3.49349,1.32234 -7.23118,-1.36373 -10.54533,-2.13434 z"
     id="path4847-37-1" />
  <path
     style="fill:#000000;fill-opacity:1;stroke-width:0.27083036"
     d="m 170.99734,759.57654 c 0.36926,4.53026 2.98394,8.86704 3.62121,13.51178 1.98519,9.86105 4.18662,19.79157 3.91245,29.96409 -6.70148,-0.17461 -12.96178,-3.97126 -17.37876,-9.2273 -3.67933,-3.42958 -8.03592,-6.75655 -13.16179,-6.46031 -7.15699,-0.91532 -14.19194,4.00664 -16.77891,11.15131 -1.67191,4.78492 -1.80684,10.68132 0.82832,15.13523 4.04334,8.15445 14.13661,11.93424 21.90924,7.86323 4.9005,-2.02023 7.13919,-7.89063 11.69258,-10.47885 2.751,-1.98501 10.19471,-6.53541 11.908,-2.3427 1.78704,3.45747 -1.41921,9.16626 -3.76176,12.77261 -4.11027,4.96554 -9.2575,9.45471 -10.85238,16.20884 -1.62286,9.14495 3.98226,19.24159 12.60956,21.22388 4.54809,1.66046 9.57622,0.0601 13.50554,-2.51036 5.23075,-3.92392 8.01051,-11.47285 6.88543,-18.16927 -0.7609,-5.11668 -4.10238,-8.8727 -7.33123,-12.32519 -3.92054,-4.90752 -7.03196,-11.39848 -5.7775,-18.01833 3.68455,-0.3428 8.20233,1.58075 11.07889,4.3163 5.48678,3.96329 9.24756,11.12927 16.33678,12.09252 8.50043,1.83028 17.58482,-4.62395 19.29328,-13.79021 1.16251,-5.13532 0.13342,-10.66019 -3.02354,-14.73498 -3.56913,-5.12844 -9.58254,-7.79664 -15.48186,-7.0032 -6.30119,0.74952 -10.70974,6.12023 -15.50105,9.94428 -3.38298,1.92933 -9.84835,6.41253 -12.65756,3.33872 0.47637,-11.82089 2.7631,-23.52801 6.20973,-34.75416 0.97659,-2.42309 2.02189,-1.49828 1.52333,-4.02088 2.03811,-5.37589 -6.51957,1.3056 -9.06266,-1.55271 -3.49349,1.32234 -7.23118,-1.36373 -10.54534,-2.13434 z"
     id="path4847-37-3" />
  <path
     style="fill:#000000;fill-opacity:1;stroke-width:0.27083036"
     d="m 370.99735,759.57654 c 0.36926,4.53026 2.98393,8.86704 3.6212,13.51178 1.9852,9.86105 4.18662,19.79157 3.91245,29.96409 -6.70148,-0.17461 -12.96177,-3.97126 -17.37876,-9.2273 -3.67933,-3.42958 -8.03591,-6.75655 -13.16178,-6.46031 -7.15699,-0.91532 -14.19194,4.00664 -16.77892,11.15131 -1.67191,4.78492 -1.80684,10.68132 0.82833,15.13523 4.04333,8.15445 14.1366,11.93424 21.90924,7.86323 4.90049,-2.02023 7.13918,-7.89063 11.69257,-10.47885 2.75101,-1.98501 10.19471,-6.53541 11.90801,-2.3427 1.78703,3.45747 -1.41922,9.16626 -3.76177,12.77261 -4.11027,4.96554 -9.2575,9.45471 -10.85238,16.20884 -1.62285,9.14495 3.98226,19.24159 12.60956,21.22388 4.5481,1.66046 9.57623,0.0601 13.50554,-2.51036 5.23075,-3.92392 8.01052,-11.47285 6.88543,-18.16927 -0.7609,-5.11668 -4.10238,-8.8727 -7.33123,-12.32519 -3.92054,-4.90752 -7.03196,-11.39848 -5.7775,-18.01833 3.68455,-0.3428 8.20233,1.58075 11.0789,4.3163 5.48677,3.96329 9.24755,11.12927 16.33678,12.09252 8.50042,1.83028 17.58482,-4.62395 19.29328,-13.79021 1.16251,-5.13532 0.13341,-10.66019 -3.02355,-14.73498 -3.56912,-5.12844 -9.58254,-7.79664 -15.48185,-7.0032 -6.30119,0.74952 -10.70975,6.12023 -15.50106,9.94428 -3.38298,1.92933 -9.84835,6.41253 -12.65756,3.33872 0.47637,-11.82089 2.7631,-23.52801 6.20973,-34.75416 0.97659,-2.42309 2.02189,-1.49828 1.52334,-4.02088 2.03811,-5.37589 -6.51957,1.3056 -9.06267,-1.55271 -3.49349,1.32234 -7.23118,-1.36373 -10.54533,-2.13434 z"
     id="path4847-37-22" />
</svg>
